M48
; DRILL file {KiCad 7.0.5} date Sat Jun 17 18:46:47 2023
; FORMAT={-:-/ absolute / inch / decimal}
; #@! TF.CreationDate,2023-06-17T18:46:47+04:00
; #@! TF.GenerationSoftware,Kicad,Pcbnew,7.0.5
; #@! TF.FileFunction,NonPlated,1,2,NPTH
FMAT,2
INCH
; #@! TA.AperFunction,NonPlated,NPTH,ComponentDrill
T1C0.0390
; #@! TA.AperFunction,NonPlated,NPTH,ComponentDrill
T2C0.0591
; #@! TA.AperFunction,NonPlated,NPTH,ComponentDrill
T3C0.0670
; #@! TA.AperFunction,NonPlated,NPTH,ComponentDrill
T4C0.1350
%
G90
G05
T1
X5.5297Y-3.3465
X5.6459Y-2.6874
X5.7621Y-2.0283
X5.9345Y-3.4179
X6.0507Y-2.7588
X6.1669Y-2.0996
X6.3527Y-2.957
X6.5259Y-2.3105
X6.6991Y-1.664
X6.7497Y-3.0633
X6.9229Y-2.4169
X7.0961Y-1.7704
X7.1093Y-2.9192
X7.2226Y-4.1973
X7.3236Y-2.2851
X7.5002Y-3.0462
X7.538Y-1.651
X7.6177Y-4.3106
X7.7142Y-3.3402
X7.7145Y-2.4121
X7.8906Y-4.3977
X7.9289Y-1.778
X7.9541Y-2.7154
X8.0979Y-3.4875
X8.1939Y-2.0906
X8.2792Y-4.5315
X8.2991Y-3.6842
X8.3378Y-2.8627
X8.5389Y-3.0594
X8.5471Y-4.6328
X8.5776Y-2.2378
X8.6828Y-3.8315
X8.7788Y-2.4345
X8.9227Y-3.2067
X8.9282Y-4.7868
X9.1625Y-2.5818
T2
X6.5753Y-4.5323
X6.5757Y-4.5321
X6.8467Y-4.4845
X6.8471Y-4.4842
T3
X5.4901Y-3.5074
X5.6063Y-2.8483
X5.7226Y-2.1892
X5.9166Y-3.5826
X6.0328Y-2.9235
X6.1491Y-2.2644
X6.2992Y-3.1138
X6.4724Y-2.4673
X6.6457Y-1.8209
X6.7175Y-3.2259
X6.8908Y-2.5794
X7.0477Y-3.0731
X7.064Y-1.9329
X7.1664Y-4.3532
X7.2621Y-2.439
X7.4596Y-3.2069
X7.4764Y-1.8049
X7.5827Y-4.4726
X7.6447Y-3.4906
X7.6739Y-2.5728
X7.8263Y-4.5505
X7.8845Y-2.8658
X7.8882Y-1.9387
X8.049Y-3.6458
X8.1244Y-2.241
X8.2295Y-3.8346
X8.2358Y-4.6915
X8.2888Y-3.021
X8.4694Y-3.2098
X8.475Y-4.782
X8.5287Y-2.3962
X8.6338Y-3.9898
X8.7092Y-2.585
X8.8737Y-3.365
X8.8765Y-4.9442
X9.1135Y-2.7402
T4
X5.7034Y-3.545
X5.8196Y-2.8859
X5.9358Y-2.2268
X6.5084Y-3.1699
X6.6816Y-2.5234
X6.8548Y-1.8769
X7.2537Y-3.14
X7.3746Y-4.4129
X7.468Y-2.5059
X7.6823Y-1.8718
X7.8468Y-3.5682
X8.031Y-4.621
X8.0867Y-2.9434
X8.3265Y-2.3186
X8.4317Y-3.9122
X8.6715Y-3.2874
X8.6757Y-4.8631
X8.9114Y-2.6626
T0
M30
