M48
; DRILL file {KiCad 7.0.5} date Sat Jun 17 18:46:47 2023
; FORMAT={-:-/ absolute / inch / decimal}
; #@! TF.CreationDate,2023-06-17T18:46:47+04:00
; #@! TF.GenerationSoftware,Kicad,Pcbnew,7.0.5
; #@! TF.FileFunction,Plated,1,2,PTH
FMAT,2
INCH
; #@! TA.AperFunction,Plated,PTH,ViaDrill
T1C0.0157
; #@! TA.AperFunction,Plated,PTH,ComponentDrill
T2C0.0236
; #@! TA.AperFunction,Plated,PTH,ComponentDrill
T3C0.0315
; #@! TA.AperFunction,Plated,PTH,ComponentDrill
T4C0.0394
; #@! TA.AperFunction,Plated,PTH,ComponentDrill
T5C0.0500
%
G90
G05
T1
X5.725Y-3.205
X5.825Y-2.55
X5.855Y-3.23
X5.955Y-2.575
X6.02Y-3.71
X6.04Y-3.58
X6.295Y-3.51
X6.395Y-3.485
X6.515Y-4.44
X6.525Y-3.52
X6.575Y-2.845
X6.625Y-4.44
X6.66Y-4.635
X6.705Y-2.88
X6.74Y-4.42
X6.775Y-4.615
X6.78Y-2.2
X6.79Y-3.455
X6.889Y-4.3839
X6.91Y-2.235
X6.915Y-4.59
X6.97Y-3.4629
X6.985Y-4.575
X6.99Y-4.23
X7.03Y-3.425
X7.04Y-4.435
X7.0838Y-4.2135
X7.1188Y-4.0885
X7.155Y-3.465
X7.24Y-2.78
X7.365Y-2.82
X7.46Y-2.15
X7.585Y-2.19
X7.605Y-3.835
X7.6408Y-4.7215
X7.6828Y-4.5975
X7.73Y-3.885
X7.745Y-4.025
X7.845Y-3.21
X7.895Y-4.195
X7.93Y-4.075
X7.965Y-3.255
X8.08Y-2.58
X8.185Y-4.18
X8.205Y-2.63
X8.2868Y-4.9265
X8.31Y-4.225
X8.3338Y-4.8055
X8.425Y-3.55
X8.545Y-3.6
X8.665Y-2.925
X8.79Y-2.97
T2
X6.1593Y-3.7568
X6.1988Y-3.6915
X6.2577Y-3.7394
X6.2695Y-4.3828
X6.2957Y-3.6744
X6.3093Y-4.3174
X6.3562Y-3.722
X6.3664Y-4.3657
X6.3957Y-3.6567
X6.4078Y-4.3
X6.4547Y-3.7047
X6.4664Y-4.348
X6.4942Y-3.6394
X6.5063Y-4.2827
X6.5532Y-3.6873
X6.5649Y-4.3307
X6.5927Y-3.622
X6.6047Y-4.2653
X6.6517Y-3.6699
X6.6634Y-4.3133
X6.6912Y-3.6046
X6.7032Y-4.2479
X6.7501Y-3.6526
X6.7619Y-4.2959
X6.7897Y-3.5873
X6.8017Y-4.2306
X6.8604Y-4.2786
X6.9002Y-4.2132
T3
X7.0546Y-3.6167
X7.0546Y-3.9167
X7.1546Y-3.6167
X7.1546Y-3.9167
X7.2546Y-3.6167
X7.2546Y-3.9167
X7.3546Y-3.6167
X7.3546Y-3.9167
T4
X6.89Y-3.8
X6.89Y-3.895
T5
X5.4835Y-3.6582
X5.5998Y-2.9991
X5.663Y-3.7738
X5.716Y-2.3399
X5.7793Y-3.1147
X5.8713Y-3.7266
X5.8955Y-2.4556
X5.9875Y-3.0674
X6.1037Y-2.4083
X6.2795Y-3.2634
X6.4483Y-3.3942
X6.4527Y-2.6169
X6.6215Y-2.7478
X6.626Y-1.9705
X6.6598Y-3.3653
X6.7947Y-2.1013
X6.833Y-2.7188
X7.0062Y-2.0724
X7.0202Y-3.2214
X7.1441Y-4.5024
X7.1819Y-3.3609
X7.2346Y-2.5873
X7.3106Y-4.6362
X7.3947Y-3.3431
X7.3962Y-2.7268
X7.4489Y-1.9532
X7.5226Y-4.611
X7.609Y-2.709
X7.6094Y-3.6374
X7.6105Y-2.0927
X7.7636Y-3.7851
X7.7962Y-4.6983
X7.8233Y-2.0749
X7.8493Y-3.0125
X7.9554Y-4.8406
X7.977Y-3.7785
X8.0034Y-3.1603
X8.0891Y-2.3877
X8.1685Y-4.8265
X8.1943Y-3.9814
X8.2168Y-3.1536
X8.2433Y-2.5354
X8.3484Y-4.1291
X8.4341Y-3.3565
X8.4372Y-4.9281
X8.4567Y-2.5288
X8.5618Y-4.1225
X8.5883Y-3.5043
X8.5887Y-5.0785
X8.674Y-2.7317
X8.8017Y-3.4976
X8.8022Y-5.0755
X8.8281Y-2.8794
X9.0415Y-2.8728
T0
M30
