%TF.GenerationSoftware,KiCad,Pcbnew,7.0.5*%
%TF.CreationDate,2023-06-17T18:46:35+04:00*%
%TF.ProjectId,KBD,4b42442e-6b69-4636-9164-5f7063625858,rev?*%
%TF.SameCoordinates,Original*%
%TF.FileFunction,Copper,L1,Top*%
%TF.FilePolarity,Positive*%
%FSLAX46Y46*%
G04 Gerber Fmt 4.6, Leading zero omitted, Abs format (unit mm)*
G04 Created by KiCad (PCBNEW 7.0.5) date 2023-06-17 18:46:35*
%MOMM*%
%LPD*%
G01*
G04 APERTURE LIST*
G04 Aperture macros list*
%AMRoundRect*
0 Rectangle with rounded corners*
0 $1 Rounding radius*
0 $2 $3 $4 $5 $6 $7 $8 $9 X,Y pos of 4 corners*
0 Add a 4 corners polygon primitive as box body*
4,1,4,$2,$3,$4,$5,$6,$7,$8,$9,$2,$3,0*
0 Add four circle primitives for the rounded corners*
1,1,$1+$1,$2,$3*
1,1,$1+$1,$4,$5*
1,1,$1+$1,$6,$7*
1,1,$1+$1,$8,$9*
0 Add four rect primitives between the rounded corners*
20,1,$1+$1,$2,$3,$4,$5,0*
20,1,$1+$1,$4,$5,$6,$7,0*
20,1,$1+$1,$6,$7,$8,$9,0*
20,1,$1+$1,$8,$9,$2,$3,0*%
%AMHorizOval*
0 Thick line with rounded ends*
0 $1 width*
0 $2 $3 position (X,Y) of the first rounded end (center of the circle)*
0 $4 $5 position (X,Y) of the second rounded end (center of the circle)*
0 Add line between two ends*
20,1,$1,$2,$3,$4,$5,0*
0 Add two circle primitives to create the rounded ends*
1,1,$1,$2,$3*
1,1,$1,$4,$5*%
%AMRotRect*
0 Rectangle, with rotation*
0 The origin of the aperture is its center*
0 $1 length*
0 $2 width*
0 $3 Rotation angle, in degrees counterclockwise*
0 Add horizontal line*
21,1,$1,$2,0,0,$3*%
G04 Aperture macros list end*
%TA.AperFunction,SMDPad,CuDef*%
%ADD10RotRect,0.900000X1.200000X165.000000*%
%TD*%
%TA.AperFunction,SMDPad,CuDef*%
%ADD11RotRect,0.900000X1.200000X339.000000*%
%TD*%
%TA.AperFunction,SMDPad,CuDef*%
%ADD12RotRect,0.900000X1.200000X254.000000*%
%TD*%
%TA.AperFunction,SMDPad,CuDef*%
%ADD13RotRect,0.900000X1.200000X170.000000*%
%TD*%
%TA.AperFunction,SMDPad,CuDef*%
%ADD14RotRect,0.900000X1.200000X251.000000*%
%TD*%
%TA.AperFunction,SMDPad,CuDef*%
%ADD15RotRect,0.900000X1.200000X260.000000*%
%TD*%
%TA.AperFunction,SMDPad,CuDef*%
%ADD16RotRect,0.900000X1.200000X342.000000*%
%TD*%
%TA.AperFunction,SMDPad,CuDef*%
%ADD17RotRect,0.900000X1.200000X248.000000*%
%TD*%
%TA.AperFunction,ComponentPad*%
%ADD18R,2.000000X2.000000*%
%TD*%
%TA.AperFunction,ComponentPad*%
%ADD19R,1.600000X1.600000*%
%TD*%
%TA.AperFunction,ComponentPad*%
%ADD20O,1.600000X1.600000*%
%TD*%
%TA.AperFunction,SMDPad,CuDef*%
%ADD21RotRect,1.200000X1.810000X10.000000*%
%TD*%
%TA.AperFunction,SMDPad,CuDef*%
%ADD22RotRect,1.235000X1.810000X10.000000*%
%TD*%
%TA.AperFunction,ComponentPad*%
%ADD23C,2.032000*%
%TD*%
%TA.AperFunction,ComponentPad*%
%ADD24RoundRect,0.225000X-0.139099X-0.506855X0.304065X-0.428713X0.139099X0.506855X-0.304065X0.428713X0*%
%TD*%
%TA.AperFunction,ComponentPad*%
%ADD25HorizOval,0.900000X-0.043412X0.246202X0.043412X-0.246202X0*%
%TD*%
%TA.AperFunction,SMDPad,CuDef*%
%ADD26RoundRect,0.250000X-0.366727X0.370024X-0.502607X-0.137087X0.366727X-0.370024X0.502607X0.137087X0*%
%TD*%
%TA.AperFunction,SMDPad,CuDef*%
%ADD27RotRect,1.500000X1.000000X344.000000*%
%TD*%
%TA.AperFunction,ComponentPad*%
%ADD28RoundRect,0.225000X0.139099X0.506855X-0.304065X0.428713X-0.139099X-0.506855X0.304065X-0.428713X0*%
%TD*%
%TA.AperFunction,ViaPad*%
%ADD29C,0.800000*%
%TD*%
%TA.AperFunction,Conductor*%
%ADD30C,0.250000*%
%TD*%
G04 APERTURE END LIST*
D10*
%TO.P,D4,1,K*%
%TO.N,Row_1*%
X175450778Y-56827051D03*
%TO.P,D4,2,A*%
%TO.N,Net-(D4-A)*%
X172263222Y-55972949D03*
%TD*%
D11*
%TO.P,D7,1,K*%
%TO.N,Row_2*%
X199266592Y-81508693D03*
%TO.P,D7,2,A*%
%TO.N,Net-(D7-A)*%
X202347408Y-82691307D03*
%TD*%
%TO.P,D11,1,K*%
%TO.N,Row_3*%
X207966592Y-106108693D03*
%TO.P,D11,2,A*%
%TO.N,Net-(D11-A)*%
X211047408Y-107291307D03*
%TD*%
%TO.P,D6,1,K*%
%TO.N,Row_2*%
X214016592Y-90208693D03*
%TO.P,D6,2,A*%
%TO.N,Net-(D6-A)*%
X217097408Y-91391307D03*
%TD*%
D10*
%TO.P,D14,1,K*%
%TO.N,Row_3*%
X165650778Y-89427051D03*
%TO.P,D14,2,A*%
%TO.N,Net-(D14-A)*%
X162463222Y-88572949D03*
%TD*%
D12*
%TO.P,D18,1,K*%
%TO.N,Row_4*%
X180814802Y-103860918D03*
%TO.P,D18,2,A*%
%TO.N,Net-(D18-A)*%
X179905198Y-107033082D03*
%TD*%
D13*
%TO.P,D10,1,K*%
%TO.N,Row_2*%
X148681933Y-82086519D03*
%TO.P,D10,2,A*%
%TO.N,Net-(D10-A)*%
X145432067Y-81513481D03*
%TD*%
D14*
%TO.P,D17,1,K*%
%TO.N,Row_4*%
X195121187Y-116790094D03*
%TO.P,D17,2,A*%
%TO.N,Net-(D17-A)*%
X194046813Y-119910306D03*
%TD*%
D15*
%TO.P,D15,1,K*%
%TO.N,Row_3*%
X153448519Y-90958067D03*
%TO.P,D15,2,A*%
%TO.N,Net-(D15-A)*%
X152875481Y-94207933D03*
%TD*%
D11*
%TO.P,D2,1,K*%
%TO.N,Row_1*%
X205266592Y-65608693D03*
%TO.P,D2,2,A*%
%TO.N,Net-(D2-A)*%
X208347408Y-66791307D03*
%TD*%
%TO.P,D12,1,K*%
%TO.N,Row_3*%
X193216592Y-97408693D03*
%TO.P,D12,2,A*%
%TO.N,Net-(D12-A)*%
X196297408Y-98591307D03*
%TD*%
D16*
%TO.P,D3,1,K*%
%TO.N,Row_1*%
X189487757Y-54640122D03*
%TO.P,D3,2,A*%
%TO.N,Net-(D3-A)*%
X192626243Y-55659878D03*
%TD*%
%TO.P,D8,1,K*%
%TO.N,Row_2*%
X183887757Y-70690122D03*
%TO.P,D8,2,A*%
%TO.N,Net-(D8-A)*%
X187026243Y-71709878D03*
%TD*%
D17*
%TO.P,D16,1,K*%
%TO.N,Row_4*%
X211712101Y-122052747D03*
%TO.P,D16,2,A*%
%TO.N,Net-(D16-A)*%
X210475899Y-125112453D03*
%TD*%
D11*
%TO.P,D1,1,K*%
%TO.N,Row_1*%
X220166592Y-74358693D03*
%TO.P,D1,2,A*%
%TO.N,Net-(D1-A)*%
X223247408Y-75541307D03*
%TD*%
D10*
%TO.P,D9,1,K*%
%TO.N,Row_2*%
X170250778Y-73027051D03*
%TO.P,D9,2,A*%
%TO.N,Net-(D9-A)*%
X167063222Y-72172949D03*
%TD*%
D13*
%TO.P,D5,1,K*%
%TO.N,Row_1*%
X151281933Y-65286519D03*
%TO.P,D5,2,A*%
%TO.N,Net-(D5-A)*%
X148032067Y-64713481D03*
%TD*%
D16*
%TO.P,D13,1,K*%
%TO.N,Row_3*%
X178587757Y-86890122D03*
%TO.P,D13,2,A*%
%TO.N,Net-(D13-A)*%
X181726243Y-87909878D03*
%TD*%
D18*
%TO.P,TP2,1,1*%
%TO.N,MCU_Bat+*%
X175006000Y-98933000D03*
%TD*%
%TO.P,TP1,1,1*%
%TO.N,Bat+*%
X175006000Y-96520000D03*
%TD*%
D19*
%TO.P,SW19,1*%
%TO.N,3.3V*%
X186807000Y-91863500D03*
D20*
%TO.P,SW19,2*%
%TO.N,5V*%
X184267000Y-91863500D03*
%TO.P,SW19,3*%
%TO.N,SCL*%
X181727000Y-91863500D03*
%TO.P,SW19,4*%
%TO.N,Bat+*%
X179187000Y-91863500D03*
%TO.P,SW19,5*%
%TO.N,MCU_Bat+*%
X179187000Y-99483500D03*
%TO.P,SW19,6*%
%TO.N,LED_IN*%
X181727000Y-99483500D03*
%TO.P,SW19,7*%
%TO.N,LED_PWR*%
X184267000Y-99483500D03*
%TO.P,SW19,8*%
X186807000Y-99483500D03*
%TD*%
D21*
%TO.P,J3,R1*%
%TO.N,SDA*%
X171047211Y-111455722D03*
D22*
%TO.P,J3,R2*%
%TO.N,0V*%
X168110022Y-111973628D03*
D21*
%TO.P,J3,S*%
%TO.N,I2CPullUp*%
X177078626Y-116291849D03*
%TO.P,J3,T*%
%TO.N,SCL*%
X174986442Y-110761129D03*
%TD*%
D23*
%TO.P,SW1,1,1*%
%TO.N,Net-(D1-A)*%
X224234883Y-73137258D03*
%TO.P,SW1,2,2*%
%TO.N,Column_1*%
X220319554Y-69384899D03*
X229655358Y-72968578D03*
%TD*%
%TO.P,SW13,1,1*%
%TO.N,Net-(D13-A)*%
X182420434Y-85366801D03*
%TO.P,SW13,2,2*%
%TO.N,Column_3*%
X178314087Y-81824498D03*
X187824652Y-84914668D03*
%TD*%
%TO.P,SW5,1,1*%
%TO.N,Net-(D5-A)*%
X149745128Y-62371034D03*
%TO.P,SW5,2,2*%
%TO.N,Column_5*%
X145185750Y-59434697D03*
X155033828Y-61171178D03*
%TD*%
D24*
%TO.P,J1,1,Pin_1*%
%TO.N,Row_1*%
X159245000Y-111322000D03*
D25*
%TO.P,J1,2,Pin_2*%
%TO.N,Row_2*%
X161707019Y-110887880D03*
%TO.P,J1,3,Pin_3*%
%TO.N,Row_3*%
X164247823Y-110439867D03*
%TO.P,J1,4,Pin_4*%
%TO.N,Row_4*%
X166749235Y-109998801D03*
%TO.P,J1,5,Pin_5*%
%TO.N,SDA*%
X169250647Y-109557735D03*
%TO.P,J1,6,Pin_6*%
%TO.N,SCL*%
X171752058Y-109116668D03*
%TO.P,J1,7,Pin_7*%
%TO.N,Column_1*%
X174253470Y-108675602D03*
%TD*%
D23*
%TO.P,SW11,1,1*%
%TO.N,Net-(D11-A)*%
X212050373Y-104878992D03*
%TO.P,SW11,2,2*%
%TO.N,Column_1*%
X208135044Y-101126633D03*
X217470848Y-104710312D03*
%TD*%
%TO.P,SW17,1,1*%
%TO.N,Net-(D17-A)*%
X202067796Y-122950935D03*
%TO.P,SW17,2,2*%
%TO.N,Column_2*%
X198023896Y-119337505D03*
X207479082Y-122593186D03*
%TD*%
%TO.P,SW4,1,1*%
%TO.N,Net-(D4-A)*%
X172585493Y-53372126D03*
%TO.P,SW4,2,2*%
%TO.N,Column_4*%
X168299383Y-50049587D03*
X177958642Y-52637777D03*
%TD*%
D26*
%TO.P,R2,1*%
%TO.N,I2CPullUp*%
X177528172Y-107449593D03*
%TO.P,R2,2*%
%TO.N,SCL*%
X177055828Y-109212407D03*
%TD*%
D23*
%TO.P,SW10,1,1*%
%TO.N,Net-(D10-A)*%
X146793109Y-79112765D03*
%TO.P,SW10,2,2*%
%TO.N,Column_5*%
X142233731Y-76176428D03*
X152081809Y-77912909D03*
%TD*%
%TO.P,SW7,1,1*%
%TO.N,Net-(D7-A)*%
X203287138Y-80270726D03*
%TO.P,SW7,2,2*%
%TO.N,Column_2*%
X199371809Y-76518367D03*
X208707613Y-80102046D03*
%TD*%
%TO.P,SW16,1,1*%
%TO.N,Net-(D16-A)*%
X218153136Y-128992945D03*
%TO.P,SW16,2,2*%
%TO.N,Column_1*%
X214303891Y-125172826D03*
X223575729Y-128918892D03*
%TD*%
D27*
%TO.P,D19,1,VDD*%
%TO.N,LED_PWR*%
X196205929Y-102053670D03*
%TO.P,D19,2,DOUT*%
%TO.N,unconnected-(D19-DOUT-Pad2)*%
X195323889Y-105129707D03*
%TO.P,D19,3,VSS*%
%TO.N,0V*%
X200034071Y-106480330D03*
%TO.P,D19,4,DIN*%
%TO.N,LED_IN*%
X200916111Y-103404293D03*
%TD*%
D23*
%TO.P,SW3,1,1*%
%TO.N,Net-(D3-A)*%
X193307434Y-53154486D03*
%TO.P,SW3,2,2*%
%TO.N,Column_3*%
X189201087Y-49612183D03*
X198711652Y-52702353D03*
%TD*%
%TO.P,SW18,1,1*%
%TO.N,Net-(D18-A)*%
X185688285Y-117759047D03*
%TO.P,SW18,2,2*%
%TO.N,Column_3*%
X181460815Y-114362211D03*
X191073432Y-117118584D03*
%TD*%
%TO.P,SW9,1,1*%
%TO.N,Net-(D9-A)*%
X168185568Y-69792865D03*
%TO.P,SW9,2,2*%
%TO.N,Column_4*%
X163899458Y-66470326D03*
X173558717Y-69058516D03*
%TD*%
%TO.P,SW6,1,1*%
%TO.N,Net-(D6-A)*%
X218142629Y-89008125D03*
%TO.P,SW6,2,2*%
%TO.N,Column_1*%
X214227300Y-85255766D03*
X223563104Y-88839445D03*
%TD*%
%TO.P,SW2,1,1*%
%TO.N,Net-(D2-A)*%
X209379393Y-64399859D03*
%TO.P,SW2,2,2*%
%TO.N,Column_2*%
X205464064Y-60647500D03*
X214799868Y-64231179D03*
%TD*%
%TO.P,SW14,1,1*%
%TO.N,Net-(D14-A)*%
X163785645Y-86213604D03*
%TO.P,SW14,2,2*%
%TO.N,Column_4*%
X159499535Y-82891065D03*
X169158794Y-85479255D03*
%TD*%
D28*
%TO.P,J2,1,Pin_1*%
%TO.N,Column_2*%
X171453470Y-92775602D03*
D25*
%TO.P,J2,2,Pin_2*%
%TO.N,Column_3*%
X168952058Y-93216668D03*
%TO.P,J2,3,Pin_3*%
%TO.N,Column_4*%
X166450647Y-93657735D03*
%TO.P,J2,4,Pin_4*%
%TO.N,Column_5*%
X163949235Y-94098801D03*
%TO.P,J2,5,Pin_5*%
%TO.N,3.3V*%
X161447823Y-94539867D03*
%TO.P,J2,6,Pin_6*%
%TO.N,0V*%
X158946412Y-94980934D03*
%TO.P,J2,7,Pin_7*%
%TO.N,5V*%
X156445000Y-95422000D03*
%TD*%
D23*
%TO.P,SW15,1,1*%
%TO.N,Net-(D15-A)*%
X143841090Y-95854498D03*
%TO.P,SW15,2,2*%
%TO.N,Column_5*%
X139281712Y-92918161D03*
X149129790Y-94654642D03*
%TD*%
%TO.P,SW8,1,1*%
%TO.N,Net-(D8-A)*%
X187863933Y-69260644D03*
%TO.P,SW8,2,2*%
%TO.N,Column_3*%
X183757586Y-65718341D03*
X193268151Y-68808511D03*
%TD*%
D26*
%TO.P,R1,1*%
%TO.N,I2CPullUp*%
X179415344Y-108727186D03*
%TO.P,R1,2*%
%TO.N,SDA*%
X178943000Y-110490000D03*
%TD*%
D23*
%TO.P,SW12,1,1*%
%TO.N,Net-(D12-A)*%
X197194882Y-96141594D03*
%TO.P,SW12,2,2*%
%TO.N,Column_2*%
X193279553Y-92389235D03*
X202615357Y-95972914D03*
%TD*%
D28*
%TO.P,J2,1,Pin_1*%
%TO.N,Column_2*%
X175264650Y-107015370D03*
D25*
%TO.P,J2,2,Pin_2*%
%TO.N,Column_3*%
X172763238Y-107456436D03*
%TO.P,J2,3,Pin_3*%
%TO.N,Column_4*%
X170261827Y-107897503D03*
%TO.P,J2,4,Pin_4*%
%TO.N,Column_5*%
X167760415Y-108338569D03*
%TO.P,J2,5,Pin_5*%
%TO.N,3.3V*%
X165259003Y-108779635D03*
%TO.P,J2,6,Pin_6*%
%TO.N,0V*%
X162757592Y-109220702D03*
%TO.P,J2,7,Pin_7*%
%TO.N,5V*%
X160256180Y-109661768D03*
%TD*%
D24*
%TO.P,J1,1,Pin_1*%
%TO.N,Row_1*%
X157449200Y-93763000D03*
D25*
%TO.P,J1,2,Pin_2*%
%TO.N,Row_2*%
X159911219Y-93328880D03*
%TO.P,J1,3,Pin_3*%
%TO.N,Row_3*%
X162452023Y-92880867D03*
%TO.P,J1,4,Pin_4*%
%TO.N,Row_4*%
X164953435Y-92439801D03*
%TO.P,J1,5,Pin_5*%
%TO.N,SDA*%
X167454847Y-91998735D03*
%TO.P,J1,6,Pin_6*%
%TO.N,SCL*%
X169956258Y-91557668D03*
%TO.P,J1,7,Pin_7*%
%TO.N,Column_1*%
X172457670Y-91116602D03*
%TD*%
D29*
%TO.N,Row_4*%
X178816000Y-112649000D03*
X165481000Y-112776000D03*
%TO.N,0V*%
X172466000Y-87757000D03*
%TO.N,5V*%
X177038000Y-87958500D03*
%TO.N,Row_1*%
X220091000Y-74295000D03*
X205232000Y-65532000D03*
X151257000Y-65405000D03*
X175514000Y-56769000D03*
X189484000Y-54610000D03*
%TO.N,Row_2*%
X199263000Y-81534000D03*
X213995000Y-90170000D03*
X183896000Y-70612000D03*
X170307000Y-73152000D03*
X148717000Y-82042000D03*
X159893000Y-89154000D03*
%TO.N,Row_3*%
X207899000Y-106172000D03*
X178562000Y-86995000D03*
X193167000Y-97409000D03*
X165735000Y-89408000D03*
X153416000Y-90932000D03*
%TO.N,Row_4*%
X195142800Y-116775400D03*
X211678200Y-122058600D03*
X180817200Y-103846800D03*
%TO.N,Net-(D1-A)*%
X223266000Y-75438000D03*
%TO.N,Net-(D2-A)*%
X208407000Y-66802000D03*
%TO.N,Net-(D3-A)*%
X192659000Y-55626000D03*
%TO.N,Net-(D4-A)*%
X172212000Y-55880000D03*
%TO.N,Net-(D5-A)*%
X147955000Y-64770000D03*
%TO.N,Net-(D6-A)*%
X217043000Y-91440000D03*
%TO.N,Net-(D7-A)*%
X202311000Y-82677000D03*
%TO.N,Net-(D8-A)*%
X187071000Y-71628000D03*
%TO.N,Net-(D9-A)*%
X167005000Y-72263000D03*
%TO.N,Net-(D10-A)*%
X145415000Y-81407000D03*
%TO.N,Net-(D11-A)*%
X211074000Y-107315000D03*
%TO.N,Net-(D12-A)*%
X196342000Y-98679000D03*
%TO.N,Net-(D13-A)*%
X181737000Y-88011000D03*
%TO.N,Net-(D14-A)*%
X162433000Y-88519000D03*
%TO.N,Net-(D15-A)*%
X152908000Y-94234000D03*
%TO.N,Net-(D16-A)*%
X210484400Y-125132000D03*
%TO.N,Net-(D17-A)*%
X194076000Y-119925000D03*
%TO.N,Net-(D18-A)*%
X179928200Y-107021800D03*
%TO.N,SDA*%
X171196000Y-112268000D03*
X172085000Y-117221000D03*
%TO.N,SCL*%
X174980149Y-111350251D03*
X175641000Y-116586000D03*
%TO.N,0V*%
X200533000Y-106553000D03*
X168275000Y-112776000D03*
X169164000Y-117729000D03*
%TO.N,LED_IN*%
X201422000Y-103505000D03*
%TO.N,I2CPullUp*%
X177546000Y-107442000D03*
X177419000Y-116205000D03*
%TO.N,LED_PWR*%
X196723000Y-102235000D03*
%TD*%
D30*
%TO.N,LED_PWR*%
X193971500Y-99483500D02*
X186807000Y-99483500D01*
X196723000Y-102235000D02*
X193971500Y-99483500D01*
%TO.N,Row_4*%
X171911819Y-113501000D02*
X172763819Y-112649000D01*
X172763819Y-112649000D02*
X178816000Y-112649000D01*
X166206000Y-113501000D02*
X171911819Y-113501000D01*
X165481000Y-112776000D02*
X166206000Y-113501000D01*
%TO.N,Net-(D15-A)*%
X148348632Y-96870497D02*
X145575508Y-96870497D01*
X151531165Y-95552248D02*
X152828700Y-94254713D01*
X144349089Y-96362497D02*
X143841090Y-95854498D01*
%TO.N,Column_5*%
X148663431Y-94654642D02*
X147825457Y-94654642D01*
X142375543Y-90509060D02*
X145598822Y-93732339D01*
%TO.N,Row_3*%
X178908498Y-80483498D02*
X179655087Y-81230087D01*
X177581851Y-80483498D02*
X178908498Y-80483498D01*
X179655087Y-81230087D02*
X179655087Y-85747739D01*
X168657349Y-89408000D02*
X177581851Y-80483498D01*
X165735000Y-89408000D02*
X168657349Y-89408000D01*
%TO.N,MCU_Bat+*%
X175556500Y-99483500D02*
X175006000Y-98933000D01*
X179187000Y-99483500D02*
X175556500Y-99483500D01*
%TO.N,Column_2*%
X171453470Y-103204190D02*
X175264650Y-107015370D01*
X171453470Y-92775602D02*
X171453470Y-103204190D01*
%TO.N,Column_3*%
X168952058Y-103645256D02*
X168952058Y-93216668D01*
X172763238Y-107456436D02*
X168952058Y-103645256D01*
%TO.N,Column_4*%
X166450647Y-104093647D02*
X166450647Y-93657735D01*
X170254503Y-107897503D02*
X166450647Y-104093647D01*
X170261827Y-107897503D02*
X170254503Y-107897503D01*
%TO.N,Column_5*%
X163949235Y-104513235D02*
X163949235Y-94098801D01*
X167760415Y-108324415D02*
X163949235Y-104513235D01*
X167760415Y-108338569D02*
X167760415Y-108324415D01*
%TO.N,3.3V*%
X165167635Y-108779635D02*
X161447823Y-105059823D01*
X161447823Y-105059823D02*
X161447823Y-94539867D01*
X165259003Y-108779635D02*
X165167635Y-108779635D01*
%TO.N,0V*%
X158946412Y-105606412D02*
X158946412Y-94980934D01*
X162560702Y-109220702D02*
X158946412Y-105606412D01*
X162757592Y-109220702D02*
X162560702Y-109220702D01*
%TO.N,5V*%
X156464000Y-95441000D02*
X156445000Y-95422000D01*
X160207768Y-109661768D02*
X156464000Y-105918000D01*
X160256180Y-109661768D02*
X160207768Y-109661768D01*
X156464000Y-105918000D02*
X156464000Y-95441000D01*
%TO.N,Row_3*%
X181452078Y-84025801D02*
X178587757Y-86890122D01*
X193216592Y-94266498D02*
X182975895Y-84025801D01*
X182975895Y-84025801D02*
X181452078Y-84025801D01*
X193216592Y-97408693D02*
X193216592Y-94266498D01*
%TO.N,Column_1*%
X181423968Y-102937968D02*
X179891032Y-102937968D01*
X185978689Y-107492689D02*
X181423968Y-102937968D01*
X208135044Y-101126633D02*
X201768988Y-107492689D01*
X201768988Y-107492689D02*
X185978689Y-107492689D01*
%TO.N,0V*%
X188060500Y-99033500D02*
X194778047Y-99033500D01*
X200533000Y-104788453D02*
X200533000Y-106553000D01*
X183067500Y-98358500D02*
X187385500Y-98358500D01*
X172466000Y-87757000D02*
X183067500Y-98358500D01*
X187385500Y-98358500D02*
X188060500Y-99033500D01*
X194778047Y-99033500D02*
X200533000Y-104788453D01*
%TO.N,LED_PWR*%
X184267000Y-99483500D02*
X186807000Y-99483500D01*
%TO.N,5V*%
X177038000Y-87958500D02*
X180160500Y-87958500D01*
X180160500Y-87958500D02*
X184065500Y-91863500D01*
X184065500Y-91863500D02*
X184267000Y-91863500D01*
%TO.N,Row_1*%
X220107105Y-74299206D02*
X220166592Y-74358693D01*
X220096949Y-74295000D02*
X220091000Y-74295000D01*
X220091000Y-74295000D02*
X220091000Y-74283101D01*
X220107088Y-74299223D02*
G75*
G03*
X220096949Y-74295000I-10188J-10177D01*
G01*
%TO.N,Row_2*%
X158242000Y-80772000D02*
X161544000Y-80772000D01*
X159893000Y-89154000D02*
X158158535Y-87419535D01*
X148717000Y-82042000D02*
X149987000Y-80772000D01*
X158158535Y-87419535D02*
X158158535Y-80855465D01*
X169164000Y-73152000D02*
X161544000Y-80772000D01*
X158158535Y-80855465D02*
X158242000Y-80772000D01*
X170307000Y-73152000D02*
X169164000Y-73152000D01*
X149987000Y-80772000D02*
X158242000Y-80772000D01*
%TO.N,Row_3*%
X160529223Y-90958067D02*
X153448519Y-90958067D01*
X162452023Y-92880867D02*
X160529223Y-90958067D01*
X162452023Y-92880867D02*
X162452023Y-92625806D01*
%TO.N,Row_4*%
X211706248Y-122058600D02*
X211678200Y-122058600D01*
X167061288Y-110310854D02*
X166749235Y-109998801D01*
X209830662Y-123934186D02*
X205044786Y-123934186D01*
X211678200Y-122086648D02*
X209830662Y-123934186D01*
X211678200Y-122058600D02*
X211678200Y-122086648D01*
X180814802Y-103860918D02*
X180817200Y-103846800D01*
X180817200Y-103846800D02*
X180814802Y-105419202D01*
X195121187Y-114366187D02*
X195142800Y-116775400D01*
X185393703Y-109998103D02*
X190753103Y-109998103D01*
X197468435Y-120678505D02*
X195121187Y-118331257D01*
X195121187Y-118331257D02*
X195121187Y-116790094D01*
X180814802Y-105419202D02*
X185393703Y-109998103D01*
X195142800Y-116775400D02*
X195121187Y-116790094D01*
X211712101Y-122052747D02*
X211706248Y-122058600D01*
X205044786Y-123934186D02*
X201789105Y-120678505D01*
X190753103Y-109998103D02*
X195121187Y-114366187D01*
X201789105Y-120678505D02*
X197468435Y-120678505D01*
%TO.N,Column_1*%
X210292686Y-101126633D02*
X208135044Y-101126633D01*
X213929950Y-85255766D02*
X213884205Y-85255766D01*
X223575729Y-128918892D02*
X222138889Y-128918892D01*
X225156896Y-77467039D02*
X229655358Y-72968578D01*
X214318791Y-85255766D02*
X214227299Y-85255766D01*
X223563104Y-88480235D02*
X223563104Y-81314795D01*
X214959232Y-85255766D02*
X214593265Y-85255766D01*
X222138889Y-128918892D02*
X218392823Y-125172826D01*
X175159143Y-108675602D02*
X174253470Y-108675602D01*
X213929950Y-85255766D02*
X213952823Y-85255766D01*
X214135807Y-85255766D02*
X214044314Y-85255766D01*
X176015934Y-106813066D02*
X176149919Y-107572932D01*
X213884205Y-85255766D02*
X213861333Y-85255766D01*
X214318791Y-85255766D02*
X214341663Y-85255766D01*
X176149919Y-107572932D02*
X175888578Y-107946167D01*
X214478900Y-85255766D02*
X214341663Y-85255766D01*
X220827553Y-69892898D02*
X220319554Y-69384899D01*
X228371518Y-71684738D02*
X229655358Y-72968578D01*
X223203894Y-88839445D02*
X222844684Y-88839445D01*
X219064640Y-93337908D02*
X223309104Y-89093444D01*
X214044314Y-85255766D02*
X213952823Y-85255766D01*
X179891032Y-102937968D02*
X176015934Y-106813066D01*
X214959232Y-85255766D02*
X216384942Y-85255766D01*
X217470848Y-104653247D02*
X217470848Y-97185664D01*
X214227299Y-85255766D02*
X214135807Y-85255766D01*
X215526008Y-104202312D02*
X213976012Y-102652316D01*
X218392823Y-125172826D02*
X214303891Y-125172826D01*
X217470848Y-104710312D02*
X218486847Y-105726311D01*
X225272054Y-70400898D02*
X222053972Y-70400898D01*
X218486847Y-105726311D02*
X218273815Y-105939343D01*
X175888578Y-107946167D02*
X175159143Y-108675602D01*
X220068268Y-86781449D02*
X221618264Y-88331445D01*
X216752428Y-104710312D02*
X217413783Y-104710312D01*
X218273815Y-125053818D02*
X218392823Y-125172826D01*
X218273815Y-105939343D02*
X218273815Y-125053818D01*
X214593265Y-85255766D02*
X214478900Y-85255766D01*
X217430446Y-104750612D02*
G75*
G03*
X217413783Y-104710312I-16646J16712D01*
G01*
X225156889Y-77467032D02*
G75*
G03*
X223563104Y-81314795I3847811J-3847768D01*
G01*
X221618267Y-88331442D02*
G75*
G03*
X222844684Y-88839445I1226433J1226442D01*
G01*
X220827571Y-69892880D02*
G75*
G03*
X222053972Y-70400898I1226429J1226380D01*
G01*
X217430510Y-104750676D02*
G75*
G03*
X217390146Y-104848078I97390J-97424D01*
G01*
X217413783Y-104710248D02*
G75*
G03*
X217470848Y-104653247I17J57048D01*
G01*
X223203894Y-88839404D02*
G75*
G03*
X223563104Y-88480235I6J359204D01*
G01*
X213976010Y-102652318D02*
G75*
G03*
X210292686Y-101126633I-3683310J-3683282D01*
G01*
X215525996Y-104202324D02*
G75*
G03*
X216752428Y-104710312I1226404J1226424D01*
G01*
X228371541Y-71684715D02*
G75*
G03*
X225272054Y-70400898I-3099441J-3099485D01*
G01*
X220068252Y-86781465D02*
G75*
G03*
X216384942Y-85255766I-3683352J-3683335D01*
G01*
X219064658Y-93337926D02*
G75*
G03*
X217470848Y-97185664I3847742J-3847774D01*
G01*
X223309066Y-89093406D02*
G75*
G03*
X223203894Y-88839445I-105166J105206D01*
G01*
X217430470Y-104750636D02*
G75*
G03*
X217470848Y-104653247I-97370J97436D01*
G01*
X223309086Y-89093426D02*
G75*
G03*
X223563104Y-88480235I-613186J613226D01*
G01*
%TO.N,Column_2*%
X207989193Y-80102046D02*
X208348403Y-80102046D01*
X200670517Y-95464914D02*
X199120521Y-93914918D01*
X204209149Y-84600509D02*
X208453613Y-80356045D01*
X171646653Y-92582418D02*
X171453470Y-92775602D01*
X193279553Y-92389235D02*
X195437195Y-92389235D01*
X207479082Y-122593186D02*
X206042242Y-122593186D01*
X201529451Y-76518367D02*
X199371809Y-76518367D01*
X214616885Y-64231179D02*
X214982851Y-64231179D01*
X202786561Y-119337505D02*
X198023896Y-119337505D01*
X214982851Y-64231179D02*
X215165834Y-64231179D01*
X202615357Y-95254494D02*
X202615357Y-88448265D01*
X208707613Y-79742836D02*
X208707613Y-72577397D01*
X210301405Y-68729641D02*
X214670479Y-64360567D01*
X214081448Y-64231179D02*
X214616885Y-64231179D01*
X206042242Y-122593186D02*
X202786561Y-119337505D01*
X207621706Y-60647500D02*
X205464064Y-60647500D01*
X212855028Y-63723179D02*
X211305032Y-62173183D01*
X206762773Y-79594046D02*
X205212777Y-78044050D01*
X206762771Y-79594048D02*
G75*
G03*
X207989193Y-80102046I1226429J1226448D01*
G01*
X201896937Y-95972957D02*
G75*
G03*
X202615357Y-95254494I-37J718457D01*
G01*
X204209168Y-84600528D02*
G75*
G03*
X202615357Y-88448265I3847732J-3847772D01*
G01*
X214982851Y-64231203D02*
G75*
G03*
X214670479Y-64360567I-51J-441697D01*
G01*
X214670520Y-64360608D02*
G75*
G03*
X214616885Y-64231179I-53620J53608D01*
G01*
X208453596Y-80356028D02*
G75*
G03*
X208707613Y-79742836I-613196J613228D01*
G01*
X208348403Y-80102013D02*
G75*
G03*
X208707613Y-79742836I-3J359213D01*
G01*
X205212806Y-78044021D02*
G75*
G03*
X201529451Y-76518367I-3683306J-3683379D01*
G01*
X199120514Y-93914925D02*
G75*
G03*
X195437195Y-92389235I-3683314J-3683275D01*
G01*
X210301399Y-68729635D02*
G75*
G03*
X208707613Y-72577397I3847801J-3847765D01*
G01*
X212855012Y-63723195D02*
G75*
G03*
X214081448Y-64231179I1226388J1226395D01*
G01*
X208453569Y-80356001D02*
G75*
G03*
X208348403Y-80102046I-105169J105201D01*
G01*
X202107347Y-96480903D02*
G75*
G03*
X201896937Y-95972914I-210447J210403D01*
G01*
X211305027Y-62173188D02*
G75*
G03*
X207621706Y-60647500I-3683327J-3683312D01*
G01*
X202107368Y-96480924D02*
G75*
G03*
X202615357Y-95254494I-1226468J1226424D01*
G01*
X200670500Y-95464931D02*
G75*
G03*
X201896937Y-95972914I1226400J1226431D01*
G01*
%TO.N,Column_3*%
X191999561Y-49612183D02*
X189201087Y-49612183D01*
X187824652Y-76505973D02*
X187824652Y-84196248D01*
X191404420Y-68321697D02*
X190346149Y-67263426D01*
X176877247Y-81824498D02*
X178314087Y-81824498D01*
X168952058Y-93216668D02*
X168952058Y-89749687D01*
X192579692Y-68808511D02*
X192923921Y-68808511D01*
X191073432Y-117118584D02*
X188317059Y-114362211D01*
X189418444Y-72658217D02*
X193024743Y-69051917D01*
X188317059Y-114362211D02*
X181460815Y-114362211D01*
X193268151Y-68464281D02*
X193268151Y-60399817D01*
X186615983Y-65718341D02*
X183757586Y-65718341D01*
X198203652Y-53210352D02*
X194861943Y-56552061D01*
X195729727Y-51157268D02*
X196766812Y-52194353D01*
X168952058Y-89749687D02*
X176877247Y-81824498D01*
X190346159Y-67263416D02*
G75*
G03*
X186615983Y-65718341I-3730159J-3730184D01*
G01*
X194861935Y-56552053D02*
G75*
G03*
X193268151Y-60399817I3847765J-3847747D01*
G01*
X195729739Y-51157256D02*
G75*
G03*
X191999561Y-49612183I-3730139J-3730144D01*
G01*
X196766789Y-52194376D02*
G75*
G03*
X197993232Y-52702353I1226411J1226476D01*
G01*
X198203598Y-53210298D02*
G75*
G03*
X197993232Y-52702353I-210398J210398D01*
G01*
X192923921Y-68808551D02*
G75*
G03*
X193268151Y-68464281I-21J344251D01*
G01*
X191404419Y-68321698D02*
G75*
G03*
X192579692Y-68808511I1175281J1175298D01*
G01*
X193024739Y-69051913D02*
G75*
G03*
X192923921Y-68808511I-100839J100813D01*
G01*
X193024755Y-69051929D02*
G75*
G03*
X193268151Y-68464281I-587655J587629D01*
G01*
X189418458Y-72658231D02*
G75*
G03*
X187824652Y-76505973I3847742J-3847769D01*
G01*
X187106232Y-84914652D02*
G75*
G03*
X187824652Y-84196248I-32J718452D01*
G01*
%TO.N,Column_4*%
X177958642Y-54195992D02*
X177958642Y-52637777D01*
X175152509Y-58560339D02*
X176856817Y-56856031D01*
X163752236Y-91374629D02*
X165288629Y-91374629D01*
X172817804Y-71895044D02*
X170752586Y-73960262D01*
X173558717Y-69058516D02*
X173558717Y-70106324D01*
X165288629Y-91374629D02*
X166450647Y-92536647D01*
X173558717Y-62408095D02*
X173558717Y-69058516D01*
X173558717Y-69058516D02*
X172264622Y-67764421D01*
X159499535Y-87121928D02*
X163752236Y-91374629D01*
X169158794Y-77808018D02*
X169158794Y-84541855D01*
X163594716Y-66470326D02*
X163547833Y-66470326D01*
X163711924Y-66470326D02*
X163618158Y-66470326D01*
X166450647Y-93657735D02*
X166565736Y-93542646D01*
X163993224Y-66470326D02*
X163899457Y-66470326D01*
X176664547Y-51343682D02*
X177958642Y-52637777D01*
X164274524Y-66470326D02*
X164157316Y-66470326D01*
X163805690Y-66470326D02*
X163711924Y-66470326D01*
X166450647Y-92536647D02*
X166450647Y-93657735D01*
X163899457Y-66470326D02*
X163805690Y-66470326D01*
X164649590Y-66470326D02*
X169140400Y-66470326D01*
X163993224Y-66470326D02*
X164016666Y-66470326D01*
X159499535Y-82891065D02*
X159499535Y-87121928D01*
X164649590Y-66470326D02*
X164274524Y-66470326D01*
X164157316Y-66470326D02*
X164016666Y-66470326D01*
X164740477Y-82891065D02*
X159499535Y-82891065D01*
X173540325Y-50049587D02*
X168299383Y-50049587D01*
X168495952Y-84816413D02*
X167864699Y-84185160D01*
X163547833Y-66470326D02*
X163524392Y-66470326D01*
X163594716Y-66470326D02*
X163618158Y-66470326D01*
X167864714Y-84185145D02*
G75*
G03*
X164740477Y-82891065I-3124214J-3124255D01*
G01*
X175152505Y-58560335D02*
G75*
G03*
X173558717Y-62408095I3847795J-3847765D01*
G01*
X172264613Y-67764430D02*
G75*
G03*
X169140400Y-66470326I-3124213J-3124170D01*
G01*
X176664534Y-51343695D02*
G75*
G03*
X173540325Y-50049587I-3124234J-3124205D01*
G01*
X168495917Y-84816448D02*
G75*
G03*
X169158794Y-84541855I274583J274548D01*
G01*
X172817789Y-71895029D02*
G75*
G03*
X173558717Y-70106324I-1788689J1788729D01*
G01*
X170752586Y-73960262D02*
G75*
G03*
X169158794Y-77808018I3847714J-3847738D01*
G01*
X176856817Y-56856031D02*
G75*
G03*
X177958642Y-54195992I-2660017J2660031D01*
G01*
%TO.N,Column_5*%
X152611285Y-90085715D02*
X161078715Y-90085715D01*
X142091918Y-90107954D02*
X139281712Y-92918161D01*
X161078715Y-90085715D02*
X163949235Y-92956235D01*
X154165587Y-60302937D02*
X155033828Y-61171178D01*
X149129790Y-94654642D02*
X151507957Y-92276475D01*
X142233731Y-89765589D02*
X142233731Y-76176428D01*
X163949235Y-92956235D02*
X163949235Y-94098801D01*
X149117450Y-76176428D02*
X142233731Y-76176428D01*
X152069469Y-59434697D02*
X145185750Y-59434697D01*
X145185750Y-59434697D02*
X145185750Y-71137016D01*
X142233731Y-89765589D02*
X142233731Y-90166695D01*
X151507957Y-91189043D02*
X152611285Y-90085715D01*
X143709740Y-74700418D02*
X142233731Y-76176428D01*
X151213568Y-77044668D02*
X152081809Y-77912909D01*
X151507957Y-92276475D02*
X151507957Y-91189043D01*
X142233732Y-90166695D02*
G75*
G03*
X142375543Y-90509060I484168J-5D01*
G01*
X145598842Y-93732319D02*
G75*
G03*
X147825457Y-94654642I2226658J2226619D01*
G01*
X142233804Y-90166695D02*
G75*
G03*
X142091919Y-90107955I-83104J-5D01*
G01*
X151213596Y-77044640D02*
G75*
G03*
X149117450Y-76176428I-2096096J-2096160D01*
G01*
X143709740Y-74700418D02*
G75*
G03*
X145185750Y-71137016I-3563440J3563418D01*
G01*
X148663431Y-94654648D02*
G75*
G03*
X149459555Y-94324876I-31J1125948D01*
G01*
X154165611Y-60302913D02*
G75*
G03*
X152069469Y-59434697I-2096111J-2096187D01*
G01*
X142091914Y-90107950D02*
G75*
G03*
X142233731Y-89765589I-342314J342350D01*
G01*
%TO.N,Net-(D1-A)*%
X223244857Y-75565000D02*
X223240468Y-75565000D01*
X224234883Y-73928630D02*
X224234883Y-73137258D01*
X223266000Y-75522715D02*
X223266000Y-75522715D01*
X223235561Y-75553153D02*
X223247408Y-75541307D01*
X223266000Y-75438000D02*
X223266000Y-75522715D01*
X223266000Y-75543857D02*
X223266000Y-75522715D01*
X223308357Y-75438000D02*
X223266000Y-75438000D01*
X223792798Y-74995915D02*
X223380666Y-75408048D01*
X223266000Y-75522715D02*
G75*
G02*
X223266000Y-75522715I0J0D01*
G01*
X223792786Y-74995903D02*
G75*
G03*
X224234883Y-73928630I-1067286J1067303D01*
G01*
X223244857Y-75565000D02*
G75*
G03*
X223266000Y-75543857I43J21100D01*
G01*
X223266000Y-75522715D02*
G75*
G02*
X223266000Y-75522715I0J0D01*
G01*
X223308357Y-75437957D02*
G75*
G03*
X223380666Y-75408048I43J102257D01*
G01*
X223235625Y-75553217D02*
G75*
G03*
X223240468Y-75565000I4875J-4883D01*
G01*
%TO.N,Net-(D2-A)*%
X208407000Y-66802000D02*
X208347408Y-66791307D01*
X208377204Y-66116922D02*
X208407000Y-66802000D01*
X208832289Y-64946962D02*
X209379393Y-64399859D01*
X208832299Y-64946972D02*
G75*
G03*
X208377205Y-66116922I1102201J-1102228D01*
G01*
%TO.N,Net-(D3-A)*%
X192659000Y-55626560D02*
X192659000Y-55626000D01*
X192658603Y-55627517D02*
X192626243Y-55659878D01*
X192983777Y-55302343D02*
X192660517Y-55625603D01*
X192659560Y-55626000D02*
X192659000Y-55626000D01*
X193307434Y-54520967D02*
X193307434Y-53154486D01*
X192983794Y-55302360D02*
G75*
G03*
X193307434Y-54520967I-781394J781360D01*
G01*
X192659561Y-55625958D02*
G75*
G03*
X192660517Y-55625603I39J1358D01*
G01*
X192658633Y-55627545D02*
G75*
G03*
X192658999Y-55626560I-1033J945D01*
G01*
%TO.N,Net-(D4-A)*%
X172284085Y-55880000D02*
X172212000Y-55880000D01*
X172470831Y-55765338D02*
X172407143Y-55829027D01*
X172212000Y-55880000D02*
X172212000Y-55987951D01*
X172585493Y-55488522D02*
X172585493Y-53372126D01*
X172237611Y-55998560D02*
X172263222Y-55972949D01*
X172284085Y-55879997D02*
G75*
G03*
X172407142Y-55829026I15J173997D01*
G01*
X172212030Y-55987951D02*
G75*
G03*
X172237611Y-55998560I14970J-49D01*
G01*
X172470824Y-55765331D02*
G75*
G03*
X172585493Y-55488522I-276824J276831D01*
G01*
%TO.N,Net-(D5-A)*%
X147955000Y-64770000D02*
X147993533Y-64427047D01*
X148276096Y-63840065D02*
X149745128Y-62371034D01*
X147955000Y-64770000D02*
X148032067Y-64713481D01*
X148276100Y-63840069D02*
G75*
G03*
X147993534Y-64427047I697000J-697031D01*
G01*
%TO.N,Net-(D6-A)*%
X217070204Y-90746673D02*
X217043000Y-91440000D01*
X217588041Y-89562712D02*
X218142629Y-89008125D01*
X217043000Y-91440000D02*
X217097408Y-91391307D01*
X217588055Y-89562726D02*
G75*
G03*
X217070204Y-90746673I1253445J-1253474D01*
G01*
%TO.N,Net-(D7-A)*%
X202328930Y-82709784D02*
X202799069Y-82239646D01*
X202354561Y-82684153D02*
X202347408Y-82691307D01*
X203287138Y-81061343D02*
X203287138Y-80270726D01*
X202311000Y-82702357D02*
X202311000Y-82677000D01*
X202351598Y-82677000D02*
X202311000Y-82677000D01*
X202311025Y-82702357D02*
G75*
G03*
X202328930Y-82709784I10475J-43D01*
G01*
X202799040Y-82239617D02*
G75*
G03*
X203287138Y-81061343I-1178240J1178317D01*
G01*
X202354574Y-82684166D02*
G75*
G03*
X202351598Y-82677000I-2974J2966D01*
G01*
%TO.N,Net-(D8-A)*%
X187863933Y-70337748D02*
X187863933Y-69260644D01*
X187121245Y-71614875D02*
X187486026Y-71250093D01*
X187057875Y-71678245D02*
X187026243Y-71709878D01*
X187071000Y-71628000D02*
X187089560Y-71628000D01*
X187071000Y-71628000D02*
X187071000Y-71646560D01*
X187089560Y-71627974D02*
G75*
G03*
X187121245Y-71614875I40J44774D01*
G01*
X187485999Y-71250066D02*
G75*
G03*
X187863933Y-70337748I-912299J912366D01*
G01*
X187057893Y-71678263D02*
G75*
G03*
X187071000Y-71646560I-31693J31663D01*
G01*
%TO.N,Net-(D9-A)*%
X167016253Y-72219917D02*
X167063222Y-72172949D01*
X167005000Y-72263000D02*
X166989085Y-72263000D01*
X166984424Y-72251746D02*
X167740890Y-71495280D01*
X167005000Y-72247085D02*
X167005000Y-72263000D01*
X168185568Y-70421734D02*
X168185568Y-69792865D01*
X166984422Y-72251744D02*
G75*
G03*
X166989085Y-72263000I4678J-4656D01*
G01*
X167740883Y-71495273D02*
G75*
G03*
X168185568Y-70421734I-1073583J1073573D01*
G01*
X167016265Y-72219929D02*
G75*
G03*
X167005000Y-72247085I27135J-27171D01*
G01*
%TO.N,Net-(D10-A)*%
X145423533Y-81415533D02*
X145415000Y-81407000D01*
X145432067Y-81436135D02*
X145432067Y-81513481D01*
X145423533Y-81398466D02*
X145415000Y-81407000D01*
X145432067Y-80931870D02*
X145432067Y-81377864D01*
X145755966Y-80149907D02*
X146793109Y-79112765D01*
X145755987Y-80149928D02*
G75*
G03*
X145432067Y-80931870I781913J-781972D01*
G01*
X145432032Y-81436135D02*
G75*
G03*
X145423532Y-81415534I-29132J35D01*
G01*
X145423558Y-81398491D02*
G75*
G03*
X145432067Y-81377864I-20658J20591D01*
G01*
%TO.N,Net-(D11-A)*%
X211074000Y-107315000D02*
X211040468Y-107315000D01*
X212050373Y-105597942D02*
X212050373Y-104878992D01*
X211035561Y-107303153D02*
X211047408Y-107291307D01*
X211074000Y-107289857D02*
X211074000Y-107315000D01*
X211091778Y-107246936D02*
X211562186Y-106776528D01*
X211562165Y-106776507D02*
G75*
G03*
X212050373Y-105597942I-1178565J1178607D01*
G01*
X211091800Y-107246958D02*
G75*
G03*
X211074000Y-107289857I42900J-42942D01*
G01*
X211035625Y-107303217D02*
G75*
G03*
X211040468Y-107315000I4875J-4883D01*
G01*
%TO.N,Net-(D12-A)*%
X197194882Y-97090754D02*
X197194882Y-96141594D01*
X196342000Y-98679000D02*
X196342000Y-98612857D01*
X196388769Y-98499945D02*
X196768440Y-98120273D01*
X196342000Y-98679000D02*
X196271723Y-98679000D01*
X196253561Y-98635153D02*
X196297408Y-98591307D01*
X196768468Y-98120301D02*
G75*
G03*
X197194882Y-97090754I-1029568J1029501D01*
G01*
X196388787Y-98499963D02*
G75*
G03*
X196342000Y-98612857I112913J-112937D01*
G01*
X196253531Y-98635123D02*
G75*
G03*
X196271723Y-98679000I18169J-18177D01*
G01*
%TO.N,Net-(D13-A)*%
X181664676Y-87971444D02*
X181726243Y-87909878D01*
X182420434Y-86732426D02*
X182420434Y-85366801D01*
X181776555Y-87859565D02*
X182078717Y-87557404D01*
X181737000Y-88011000D02*
X181737000Y-87955060D01*
X181737000Y-88011000D02*
X181681060Y-88011000D01*
X181776586Y-87859596D02*
G75*
G03*
X181737000Y-87955060I95414J-95504D01*
G01*
X182078712Y-87557399D02*
G75*
G03*
X182420434Y-86732426I-825012J824999D01*
G01*
X181664661Y-87971429D02*
G75*
G03*
X181681060Y-88011000I16439J-16371D01*
G01*
%TO.N,Net-(D14-A)*%
X162448111Y-88588060D02*
X162463222Y-88572949D01*
X163419037Y-87617133D02*
X162546929Y-88489241D01*
X162433000Y-88581800D02*
X162433000Y-88519000D01*
X163785645Y-86732065D02*
X163785645Y-86213604D01*
X162433000Y-88519000D02*
X162475085Y-88519000D01*
X163419049Y-87617145D02*
G75*
G03*
X163785645Y-86732065I-885049J885045D01*
G01*
X162433082Y-88581800D02*
G75*
G03*
X162448111Y-88588060I8818J0D01*
G01*
X162475085Y-88518990D02*
G75*
G03*
X162546929Y-88489241I15J101590D01*
G01*
%TO.N,Net-(D15-A)*%
X152908000Y-94198408D02*
X152908000Y-94234000D01*
X152891740Y-94191673D02*
X152875481Y-94207933D01*
X152878707Y-94234000D02*
X152908000Y-94234000D01*
X148348632Y-96870514D02*
G75*
G03*
X151531165Y-95552248I-32J4500814D01*
G01*
X144349089Y-96362497D02*
G75*
G03*
X145575508Y-96870497I1226411J1226397D01*
G01*
X152908036Y-94198408D02*
G75*
G03*
X152891741Y-94191674I-9536J8D01*
G01*
X152878707Y-94233999D02*
G75*
G03*
X152828700Y-94254713I-7J-70701D01*
G01*
%TO.N,Net-(D16-A)*%
X212347057Y-125112453D02*
X210484400Y-125132000D01*
X210484400Y-125132000D02*
X210475899Y-125112453D01*
X216227549Y-128992945D02*
X212347057Y-125112453D01*
X218153136Y-128992945D02*
X216227549Y-128992945D01*
%TO.N,Net-(D17-A)*%
X202067796Y-122950935D02*
X197087442Y-122950935D01*
X194061507Y-119925000D02*
X194046813Y-119910306D01*
X197087442Y-122950935D02*
X194076000Y-119939493D01*
X194076000Y-119925000D02*
X194061507Y-119925000D01*
X194076000Y-119939493D02*
X194076000Y-119925000D01*
%TO.N,SDA*%
X177351431Y-112081569D02*
X178943000Y-110490000D01*
X171673058Y-112081569D02*
X177351431Y-112081569D01*
X171047211Y-111455722D02*
X171673058Y-112081569D01*
X171047211Y-111455722D02*
X171047211Y-111354299D01*
X171047211Y-111354299D02*
X169250647Y-109557735D01*
%TO.N,SCL*%
X174980149Y-111350251D02*
X176983400Y-109347000D01*
X176983400Y-109347000D02*
X177292000Y-109347000D01*
X172746566Y-109116668D02*
X171752058Y-109116668D01*
X174980149Y-111350251D02*
X172746566Y-109116668D01*
%TO.N,0V*%
X164420596Y-111973628D02*
X168110022Y-111973628D01*
X162757592Y-110310624D02*
X164420596Y-111973628D01*
X162757592Y-109220702D02*
X162757592Y-110310624D01*
%TO.N,I2CPullUp*%
X179415344Y-108727186D02*
X178907344Y-108727186D01*
X177546000Y-107442000D02*
X177764344Y-107584186D01*
X177419000Y-116205000D02*
X177026646Y-115812646D01*
X180062658Y-113561342D02*
X180062658Y-109374500D01*
X180062658Y-109374500D02*
X179415344Y-108727186D01*
X178907344Y-108727186D02*
X177546000Y-107442000D01*
X177419000Y-116205000D02*
X180062658Y-113561342D01*
X179096422Y-108727186D02*
X179415344Y-108727186D01*
%TD*%
M02*
