%TF.GenerationSoftware,KiCad,Pcbnew,7.0.5*%
%TF.CreationDate,2023-06-17T18:46:36+04:00*%
%TF.ProjectId,KBD,4b42442e-6b69-4636-9164-5f7063625858,rev?*%
%TF.SameCoordinates,Original*%
%TF.FileFunction,Copper,L2,Bot*%
%TF.FilePolarity,Positive*%
%FSLAX46Y46*%
G04 Gerber Fmt 4.6, Leading zero omitted, Abs format (unit mm)*
G04 Created by KiCad (PCBNEW 7.0.5) date 2023-06-17 18:46:36*
%MOMM*%
%LPD*%
G01*
G04 APERTURE LIST*
G04 Aperture macros list*
%AMRoundRect*
0 Rectangle with rounded corners*
0 $1 Rounding radius*
0 $2 $3 $4 $5 $6 $7 $8 $9 X,Y pos of 4 corners*
0 Add a 4 corners polygon primitive as box body*
4,1,4,$2,$3,$4,$5,$6,$7,$8,$9,$2,$3,0*
0 Add four circle primitives for the rounded corners*
1,1,$1+$1,$2,$3*
1,1,$1+$1,$4,$5*
1,1,$1+$1,$6,$7*
1,1,$1+$1,$8,$9*
0 Add four rect primitives between the rounded corners*
20,1,$1+$1,$2,$3,$4,$5,0*
20,1,$1+$1,$4,$5,$6,$7,0*
20,1,$1+$1,$6,$7,$8,$9,0*
20,1,$1+$1,$8,$9,$2,$3,0*%
%AMHorizOval*
0 Thick line with rounded ends*
0 $1 width*
0 $2 $3 position (X,Y) of the first rounded end (center of the circle)*
0 $4 $5 position (X,Y) of the second rounded end (center of the circle)*
0 Add line between two ends*
20,1,$1,$2,$3,$4,$5,0*
0 Add two circle primitives to create the rounded ends*
1,1,$1,$2,$3*
1,1,$1,$4,$5*%
%AMRotRect*
0 Rectangle, with rotation*
0 The origin of the aperture is its center*
0 $1 length*
0 $2 width*
0 $3 Rotation angle, in degrees counterclockwise*
0 Add horizontal line*
21,1,$1,$2,0,0,$3*%
G04 Aperture macros list end*
%TA.AperFunction,ComponentPad*%
%ADD10R,2.000000X2.000000*%
%TD*%
%TA.AperFunction,ComponentPad*%
%ADD11R,1.600000X1.600000*%
%TD*%
%TA.AperFunction,ComponentPad*%
%ADD12O,1.600000X1.600000*%
%TD*%
%TA.AperFunction,ComponentPad*%
%ADD13C,2.032000*%
%TD*%
%TA.AperFunction,ComponentPad*%
%ADD14RoundRect,0.225000X-0.139099X-0.506855X0.304065X-0.428713X0.139099X0.506855X-0.304065X0.428713X0*%
%TD*%
%TA.AperFunction,ComponentPad*%
%ADD15HorizOval,0.900000X-0.043412X0.246202X0.043412X-0.246202X0*%
%TD*%
%TA.AperFunction,ComponentPad*%
%ADD16RoundRect,0.225000X0.139099X0.506855X-0.304065X0.428713X-0.139099X-0.506855X0.304065X-0.428713X0*%
%TD*%
%TA.AperFunction,SMDPad,CuDef*%
%ADD17RotRect,1.200000X1.810000X10.000000*%
%TD*%
%TA.AperFunction,SMDPad,CuDef*%
%ADD18RotRect,1.235000X1.810000X10.000000*%
%TD*%
%TA.AperFunction,SMDPad,CuDef*%
%ADD19RotRect,1.000000X1.000000X280.000000*%
%TD*%
%TA.AperFunction,SMDPad,CuDef*%
%ADD20RotRect,1.500000X1.000000X164.000000*%
%TD*%
%TA.AperFunction,ViaPad*%
%ADD21C,0.800000*%
%TD*%
%TA.AperFunction,Conductor*%
%ADD22C,0.250000*%
%TD*%
G04 APERTURE END LIST*
D10*
%TO.P,TP2,1,1*%
%TO.N,MCU_Bat+*%
X175006000Y-98933000D03*
%TD*%
%TO.P,TP1,1,1*%
%TO.N,Bat+*%
X175006000Y-96520000D03*
%TD*%
D11*
%TO.P,SW19,1*%
%TO.N,3.3V*%
X186807000Y-91863500D03*
D12*
%TO.P,SW19,2*%
%TO.N,5V*%
X184267000Y-91863500D03*
%TO.P,SW19,3*%
%TO.N,SCL*%
X181727000Y-91863500D03*
%TO.P,SW19,4*%
%TO.N,Bat+*%
X179187000Y-91863500D03*
%TO.P,SW19,5*%
%TO.N,MCU_Bat+*%
X179187000Y-99483500D03*
%TO.P,SW19,6*%
%TO.N,LED_IN*%
X181727000Y-99483500D03*
%TO.P,SW19,7*%
%TO.N,LED_PWR*%
X184267000Y-99483500D03*
%TO.P,SW19,8*%
X186807000Y-99483500D03*
%TD*%
D13*
%TO.P,SW1,1,1*%
%TO.N,Net-(D1-A)*%
X224234883Y-73137258D03*
%TO.P,SW1,2,2*%
%TO.N,Column_1*%
X220319554Y-69384899D03*
X229655358Y-72968578D03*
%TD*%
%TO.P,SW13,1,1*%
%TO.N,Net-(D13-A)*%
X182420434Y-85366801D03*
%TO.P,SW13,2,2*%
%TO.N,Column_3*%
X178314087Y-81824498D03*
X187824652Y-84914668D03*
%TD*%
%TO.P,SW5,1,1*%
%TO.N,Net-(D5-A)*%
X149745128Y-62371034D03*
%TO.P,SW5,2,2*%
%TO.N,Column_5*%
X145185750Y-59434697D03*
X155033828Y-61171178D03*
%TD*%
D14*
%TO.P,J1,1,Pin_1*%
%TO.N,Row_1*%
X159245000Y-111322000D03*
D15*
%TO.P,J1,2,Pin_2*%
%TO.N,Row_2*%
X161707019Y-110887880D03*
%TO.P,J1,3,Pin_3*%
%TO.N,Row_3*%
X164247823Y-110439867D03*
%TO.P,J1,4,Pin_4*%
%TO.N,Row_4*%
X166749235Y-109998801D03*
%TO.P,J1,5,Pin_5*%
%TO.N,SDA*%
X169250647Y-109557735D03*
%TO.P,J1,6,Pin_6*%
%TO.N,SCL*%
X171752058Y-109116668D03*
%TO.P,J1,7,Pin_7*%
%TO.N,Column_1*%
X174253470Y-108675602D03*
%TD*%
D13*
%TO.P,SW11,1,1*%
%TO.N,Net-(D11-A)*%
X212050373Y-104878992D03*
%TO.P,SW11,2,2*%
%TO.N,Column_1*%
X208135044Y-101126633D03*
X217470848Y-104710312D03*
%TD*%
%TO.P,SW17,1,1*%
%TO.N,Net-(D17-A)*%
X202067796Y-122950935D03*
%TO.P,SW17,2,2*%
%TO.N,Column_2*%
X198023896Y-119337505D03*
X207479082Y-122593186D03*
%TD*%
%TO.P,SW4,1,1*%
%TO.N,Net-(D4-A)*%
X172585493Y-53372126D03*
%TO.P,SW4,2,2*%
%TO.N,Column_4*%
X168299383Y-50049587D03*
X177958642Y-52637777D03*
%TD*%
%TO.P,SW10,1,1*%
%TO.N,Net-(D10-A)*%
X146793109Y-79112765D03*
%TO.P,SW10,2,2*%
%TO.N,Column_5*%
X142233731Y-76176428D03*
X152081809Y-77912909D03*
%TD*%
%TO.P,SW7,1,1*%
%TO.N,Net-(D7-A)*%
X203287138Y-80270726D03*
%TO.P,SW7,2,2*%
%TO.N,Column_2*%
X199371809Y-76518367D03*
X208707613Y-80102046D03*
%TD*%
%TO.P,SW16,1,1*%
%TO.N,Net-(D16-A)*%
X218153136Y-128992945D03*
%TO.P,SW16,2,2*%
%TO.N,Column_1*%
X214303891Y-125172826D03*
X223575729Y-128918892D03*
%TD*%
%TO.P,SW3,1,1*%
%TO.N,Net-(D3-A)*%
X193307434Y-53154486D03*
%TO.P,SW3,2,2*%
%TO.N,Column_3*%
X189201087Y-49612183D03*
X198711652Y-52702353D03*
%TD*%
%TO.P,SW18,1,1*%
%TO.N,Net-(D18-A)*%
X185688285Y-117759047D03*
%TO.P,SW18,2,2*%
%TO.N,Column_3*%
X181460815Y-114362211D03*
X191073432Y-117118584D03*
%TD*%
%TO.P,SW9,1,1*%
%TO.N,Net-(D9-A)*%
X168185568Y-69792865D03*
%TO.P,SW9,2,2*%
%TO.N,Column_4*%
X163899458Y-66470326D03*
X173558717Y-69058516D03*
%TD*%
%TO.P,SW6,1,1*%
%TO.N,Net-(D6-A)*%
X218142629Y-89008125D03*
%TO.P,SW6,2,2*%
%TO.N,Column_1*%
X214227300Y-85255766D03*
X223563104Y-88839445D03*
%TD*%
%TO.P,SW2,1,1*%
%TO.N,Net-(D2-A)*%
X209379393Y-64399859D03*
%TO.P,SW2,2,2*%
%TO.N,Column_2*%
X205464064Y-60647500D03*
X214799868Y-64231179D03*
%TD*%
%TO.P,SW14,1,1*%
%TO.N,Net-(D14-A)*%
X163785645Y-86213604D03*
%TO.P,SW14,2,2*%
%TO.N,Column_4*%
X159499535Y-82891065D03*
X169158794Y-85479255D03*
%TD*%
D16*
%TO.P,J2,1,Pin_1*%
%TO.N,Column_2*%
X171453470Y-92775602D03*
D15*
%TO.P,J2,2,Pin_2*%
%TO.N,Column_3*%
X168952058Y-93216668D03*
%TO.P,J2,3,Pin_3*%
%TO.N,Column_4*%
X166450647Y-93657735D03*
%TO.P,J2,4,Pin_4*%
%TO.N,Column_5*%
X163949235Y-94098801D03*
%TO.P,J2,5,Pin_5*%
%TO.N,3.3V*%
X161447823Y-94539867D03*
%TO.P,J2,6,Pin_6*%
%TO.N,0V*%
X158946412Y-94980934D03*
%TO.P,J2,7,Pin_7*%
%TO.N,5V*%
X156445000Y-95422000D03*
%TD*%
D13*
%TO.P,SW15,1,1*%
%TO.N,Net-(D15-A)*%
X143841090Y-95854498D03*
%TO.P,SW15,2,2*%
%TO.N,Column_5*%
X139281712Y-92918161D03*
X149129790Y-94654642D03*
%TD*%
%TO.P,SW8,1,1*%
%TO.N,Net-(D8-A)*%
X187863933Y-69260644D03*
%TO.P,SW8,2,2*%
%TO.N,Column_3*%
X183757586Y-65718341D03*
X193268151Y-68808511D03*
%TD*%
%TO.P,SW12,1,1*%
%TO.N,Net-(D12-A)*%
X197194882Y-96141594D03*
%TO.P,SW12,2,2*%
%TO.N,Column_2*%
X193279553Y-92389235D03*
X202615357Y-95972914D03*
%TD*%
D17*
%TO.P,J3,R1*%
%TO.N,SDA*%
X172047919Y-117182822D03*
D18*
%TO.P,J3,R2*%
%TO.N,0V*%
X169110728Y-117700728D03*
D17*
%TO.P,J3,S*%
%TO.N,I2CPullUp*%
X176061542Y-110575483D03*
%TO.P,J3,T*%
%TO.N,SCL*%
X175987150Y-116488229D03*
%TD*%
D19*
%TO.P,TP5,1,1*%
%TO.N,I2CPullUp*%
X162179000Y-112649000D03*
%TD*%
%TO.P,TP4,1,1*%
%TO.N,3.3V*%
X163554777Y-112406413D03*
%TD*%
D16*
%TO.P,J2,1,Pin_1*%
%TO.N,Column_2*%
X175264650Y-107015370D03*
D15*
%TO.P,J2,2,Pin_2*%
%TO.N,Column_3*%
X172763238Y-107456436D03*
%TO.P,J2,3,Pin_3*%
%TO.N,Column_4*%
X170261827Y-107897503D03*
%TO.P,J2,4,Pin_4*%
%TO.N,Column_5*%
X167760415Y-108338569D03*
%TO.P,J2,5,Pin_5*%
%TO.N,3.3V*%
X165259003Y-108779635D03*
%TO.P,J2,6,Pin_6*%
%TO.N,0V*%
X162757592Y-109220702D03*
%TO.P,J2,7,Pin_7*%
%TO.N,5V*%
X160256180Y-109661768D03*
%TD*%
D19*
%TO.P,TP3,1,1*%
%TO.N,5V*%
X160799285Y-112892280D03*
%TD*%
D20*
%TO.P,D20,1,VDD*%
%TO.N,LED_PWR*%
X200036182Y-103204623D03*
%TO.P,D20,2,DOUT*%
%TO.N,unconnected-(D20-DOUT-Pad2)*%
X199154142Y-106280660D03*
%TO.P,D20,3,VSS*%
%TO.N,0V*%
X194443960Y-104930037D03*
%TO.P,D20,4,DIN*%
%TO.N,LED_IN*%
X195326000Y-101854000D03*
%TD*%
D14*
%TO.P,J1,1,Pin_1*%
%TO.N,Row_1*%
X157449200Y-93763000D03*
D15*
%TO.P,J1,2,Pin_2*%
%TO.N,Row_2*%
X159911219Y-93328880D03*
%TO.P,J1,3,Pin_3*%
%TO.N,Row_3*%
X162452023Y-92880867D03*
%TO.P,J1,4,Pin_4*%
%TO.N,Row_4*%
X164953435Y-92439801D03*
%TO.P,J1,5,Pin_5*%
%TO.N,SDA*%
X167454847Y-91998735D03*
%TO.P,J1,6,Pin_6*%
%TO.N,SCL*%
X169956258Y-91557668D03*
%TO.P,J1,7,Pin_7*%
%TO.N,Column_1*%
X172457670Y-91116602D03*
%TD*%
D21*
%TO.N,Row_4*%
X178816000Y-112649000D03*
X165481000Y-112776000D03*
%TO.N,0V*%
X172466000Y-87757000D03*
%TO.N,5V*%
X177038000Y-87958500D03*
%TO.N,Row_1*%
X220091000Y-74295000D03*
X205232000Y-65532000D03*
X151257000Y-65405000D03*
X175514000Y-56769000D03*
X189484000Y-54610000D03*
%TO.N,Row_2*%
X199263000Y-81534000D03*
X213995000Y-90170000D03*
X183896000Y-70612000D03*
X170307000Y-73152000D03*
X148717000Y-82042000D03*
X159893000Y-89154000D03*
%TO.N,Row_3*%
X207899000Y-106172000D03*
X178562000Y-86995000D03*
X193167000Y-97409000D03*
X165735000Y-89408000D03*
X153416000Y-90932000D03*
%TO.N,Row_4*%
X195142800Y-116775400D03*
X211678200Y-122058600D03*
X180817200Y-103846800D03*
%TO.N,Net-(D1-A)*%
X223266000Y-75438000D03*
%TO.N,Net-(D2-A)*%
X208407000Y-66802000D03*
%TO.N,Net-(D3-A)*%
X192659000Y-55626000D03*
%TO.N,Net-(D4-A)*%
X172212000Y-55880000D03*
%TO.N,Net-(D5-A)*%
X147955000Y-64770000D03*
%TO.N,Net-(D6-A)*%
X217043000Y-91440000D03*
%TO.N,Net-(D7-A)*%
X202311000Y-82677000D03*
%TO.N,Net-(D8-A)*%
X187071000Y-71628000D03*
%TO.N,Net-(D9-A)*%
X167005000Y-72263000D03*
%TO.N,Net-(D10-A)*%
X145415000Y-81407000D03*
%TO.N,Net-(D11-A)*%
X211074000Y-107315000D03*
%TO.N,Net-(D12-A)*%
X196342000Y-98679000D03*
%TO.N,Net-(D13-A)*%
X181737000Y-88011000D03*
%TO.N,Net-(D14-A)*%
X162433000Y-88519000D03*
%TO.N,Net-(D15-A)*%
X152908000Y-94234000D03*
%TO.N,Net-(D16-A)*%
X210484400Y-125132000D03*
%TO.N,Net-(D17-A)*%
X194076000Y-119925000D03*
%TO.N,Net-(D18-A)*%
X179928200Y-107021800D03*
%TO.N,SDA*%
X171196000Y-112268000D03*
X172085000Y-117221000D03*
%TO.N,SCL*%
X174980149Y-111350251D03*
X175641000Y-116586000D03*
%TO.N,0V*%
X200533000Y-106553000D03*
X168275000Y-112776000D03*
X169164000Y-117729000D03*
%TO.N,LED_IN*%
X201422000Y-103505000D03*
%TO.N,I2CPullUp*%
X177546000Y-107442000D03*
X177419000Y-116205000D03*
%TO.N,LED_PWR*%
X196723000Y-102235000D03*
%TD*%
D22*
%TO.N,LED_IN*%
X201422000Y-103505000D02*
X201422000Y-102998153D01*
X199806847Y-101383000D02*
X195797000Y-101383000D01*
X201422000Y-102998153D02*
X199806847Y-101383000D01*
X195797000Y-101383000D02*
X195326000Y-101854000D01*
%TO.N,Bat+*%
X175006000Y-96044500D02*
X175006000Y-96520000D01*
X179187000Y-91863500D02*
X175006000Y-96044500D01*
%TO.N,Row_4*%
X184912000Y-119126000D02*
X192792200Y-119126000D01*
X192792200Y-119126000D02*
X195142800Y-116775400D01*
X181737000Y-115951000D02*
X184912000Y-119126000D01*
X180848000Y-115951000D02*
X181737000Y-115951000D01*
X178816000Y-113919000D02*
X180848000Y-115951000D01*
X178816000Y-112649000D02*
X178816000Y-113919000D01*
%TO.N,LED_PWR*%
X199066559Y-102235000D02*
X200036182Y-103204623D01*
X196723000Y-102235000D02*
X199066559Y-102235000D01*
%TO.N,Row_4*%
X166749235Y-111507765D02*
X165481000Y-112776000D01*
X166749235Y-109998801D02*
X166749235Y-111507765D01*
%TO.N,I2CPullUp*%
X173699000Y-111543000D02*
X174666517Y-110575483D01*
X170895695Y-111543000D02*
X173699000Y-111543000D01*
X167894000Y-112014000D02*
X170424695Y-112014000D01*
X170424695Y-112014000D02*
X170895695Y-111543000D01*
X166243000Y-113665000D02*
X167894000Y-112014000D01*
X163195000Y-113665000D02*
X166243000Y-113665000D01*
X162179000Y-112649000D02*
X163195000Y-113665000D01*
X174666517Y-110575483D02*
X176061542Y-110575483D01*
%TO.N,Bat+*%
X175006000Y-96044500D02*
X175006000Y-96774000D01*
X175038500Y-96012000D02*
X175006000Y-96012000D01*
%TO.N,SCL*%
X171752058Y-107871058D02*
X169956258Y-106075258D01*
X169956258Y-106075258D02*
X169956258Y-91557668D01*
X171752058Y-109116668D02*
X171752058Y-107871058D01*
%TO.N,SDA*%
X167454847Y-106621847D02*
X167454847Y-91998735D01*
X169250647Y-108417647D02*
X167454847Y-106621847D01*
X169250647Y-109557735D02*
X169250647Y-108417647D01*
%TO.N,Row_4*%
X164953435Y-107075973D02*
X164953435Y-92439801D01*
X166749235Y-108871773D02*
X164953435Y-107075973D01*
X166749235Y-109998801D02*
X166749235Y-108871773D01*
%TO.N,Row_3*%
X162452023Y-107588023D02*
X162452023Y-92880867D01*
X164211000Y-110403044D02*
X164211000Y-109347000D01*
X164211000Y-109347000D02*
X162452023Y-107588023D01*
X164247823Y-110439867D02*
X164211000Y-110403044D01*
%TO.N,Row_2*%
X160020000Y-93437661D02*
X159911219Y-93328880D01*
X160020000Y-108013500D02*
X160020000Y-93437661D01*
X161707019Y-109700519D02*
X160020000Y-108013500D01*
X161707019Y-110887880D02*
X161707019Y-109700519D01*
%TO.N,Column_1*%
X174253470Y-107578470D02*
X172457670Y-105782670D01*
X174253470Y-108675602D02*
X174253470Y-107578470D01*
X172457670Y-105782670D02*
X172457670Y-91116602D01*
%TO.N,Column_2*%
X183581766Y-93405234D02*
X175264650Y-101722350D01*
X175264650Y-101722350D02*
X175264650Y-107015370D01*
X192263554Y-93405234D02*
X183581766Y-93405234D01*
X193279553Y-92389235D02*
X192263554Y-93405234D01*
%TO.N,LED_IN*%
X184097500Y-101854000D02*
X181727000Y-99483500D01*
X195326000Y-101854000D02*
X184097500Y-101854000D01*
%TO.N,0V*%
X200533000Y-106067230D02*
X200533000Y-106553000D01*
X199395807Y-104930037D02*
X200533000Y-106067230D01*
X194443960Y-104930037D02*
X199395807Y-104930037D01*
X160264695Y-87757000D02*
X172466000Y-87757000D01*
X158946412Y-94980934D02*
X158946412Y-89075283D01*
X158946412Y-89075283D02*
X160264695Y-87757000D01*
%TO.N,5V*%
X173979090Y-87958500D02*
X177038000Y-87958500D01*
X170158845Y-84138255D02*
X173979090Y-87958500D01*
X169863255Y-84138255D02*
X170158845Y-84138255D01*
%TO.N,3.3V*%
X181266000Y-88683000D02*
X183321500Y-90738500D01*
X165202078Y-88683000D02*
X181266000Y-88683000D01*
X183321500Y-90738500D02*
X185682000Y-90738500D01*
X185682000Y-90738500D02*
X186807000Y-91863500D01*
X161447823Y-92437255D02*
X165202078Y-88683000D01*
X161447823Y-94539867D02*
X161447823Y-92437255D01*
%TO.N,5V*%
X163247044Y-84138255D02*
X156445000Y-90940299D01*
X169863255Y-84138255D02*
X163247044Y-84138255D01*
X156445000Y-90940299D02*
X156445000Y-95422000D01*
%TO.N,SCL*%
X171462496Y-90051430D02*
X179914930Y-90051430D01*
X169956258Y-91557668D02*
X171462496Y-90051430D01*
X179914930Y-90051430D02*
X181727000Y-91863500D01*
%TO.N,*%
X195803200Y-108926800D02*
X195803200Y-108935200D01*
%TO.N,Row_1*%
X172726721Y-59556279D02*
X175514000Y-56769000D01*
X158033400Y-110110400D02*
X158033400Y-94347200D01*
X198982687Y-65532000D02*
X189484000Y-56033313D01*
X157449200Y-95865612D02*
X156286812Y-97028000D01*
X205232000Y-65532000D02*
X198982687Y-65532000D01*
X165570121Y-59556279D02*
X172726721Y-59556279D01*
X205777000Y-66077000D02*
X205232000Y-65532000D01*
X159245000Y-111322000D02*
X158033400Y-110110400D01*
X156286812Y-97028000D02*
X155582618Y-96323806D01*
X155582618Y-96323806D02*
X155582618Y-69543782D01*
X211873000Y-66077000D02*
X205777000Y-66077000D01*
X159721400Y-65405000D02*
X165570121Y-59556279D01*
X188748313Y-56769000D02*
X189484000Y-56033313D01*
X189484000Y-56033313D02*
X189484000Y-54610000D01*
X220091000Y-74295000D02*
X211873000Y-66077000D01*
X175514000Y-56769000D02*
X188748313Y-56769000D01*
X157449200Y-93763000D02*
X157449200Y-95865612D01*
X155582618Y-69543782D02*
X159807200Y-65319200D01*
X158033400Y-94347200D02*
X157449200Y-93763000D01*
X151257000Y-65405000D02*
X159721400Y-65405000D01*
%TO.N,Row_2*%
X159911219Y-93328880D02*
X159911219Y-89172219D01*
X199453500Y-81724500D02*
X199263000Y-81534000D01*
X213995000Y-90170000D02*
X206043786Y-90170000D01*
X185029695Y-70612000D02*
X183896000Y-70612000D01*
X181356000Y-73152000D02*
X183896000Y-70612000D01*
X199263000Y-81534000D02*
X195951695Y-81534000D01*
X170307000Y-73152000D02*
X181356000Y-73152000D01*
X199263000Y-83389214D02*
X199263000Y-81534000D01*
X159911219Y-89172219D02*
X159893000Y-89154000D01*
X195951695Y-81534000D02*
X185029695Y-70612000D01*
X206043786Y-90170000D02*
X199263000Y-83389214D01*
%TO.N,Row_3*%
X162452023Y-92690977D02*
X162452023Y-92880867D01*
X195944086Y-94631914D02*
X193167000Y-97409000D01*
X165735000Y-89408000D02*
X162452023Y-92690977D01*
X203216914Y-94631914D02*
X195944086Y-94631914D01*
X193213237Y-97455237D02*
X193167000Y-97409000D01*
X207899000Y-106172000D02*
X206756000Y-105029000D01*
X206756000Y-98171000D02*
X203216914Y-94631914D01*
X206756000Y-105029000D02*
X206756000Y-98171000D01*
X153416000Y-90932000D02*
X153524500Y-91040500D01*
X193213253Y-97455221D02*
G75*
G03*
X193324864Y-97501475I111647J111621D01*
G01*
%TO.N,Row_4*%
X167095000Y-110326000D02*
X166751000Y-109982000D01*
%TO.N,Column_2*%
X202615357Y-114746044D02*
X202615357Y-95972914D01*
X198023896Y-119337505D02*
X202615357Y-114746044D01*
%TO.N,Column_3*%
X175537884Y-108839000D02*
X174747598Y-109629286D01*
X181460815Y-112925371D02*
X177374444Y-108839000D01*
X172763238Y-108546358D02*
X172763238Y-107456436D01*
X178314087Y-81824498D02*
X179330086Y-82840497D01*
X174747598Y-109629286D02*
X174115320Y-109740774D01*
X174115320Y-109740774D02*
X173589400Y-109372520D01*
X181460815Y-114362211D02*
X181460815Y-112925371D01*
X185750481Y-82840497D02*
X187824652Y-84914668D01*
X177374444Y-108839000D02*
X175537884Y-108839000D01*
X179330086Y-82840497D02*
X185750481Y-82840497D01*
X173589400Y-109372520D02*
X172763238Y-108546358D01*
%TO.N,Net-(D18-A)*%
X179928200Y-107021800D02*
X180211492Y-107021800D01*
X180211492Y-107021800D02*
X183253506Y-110063814D01*
X183253506Y-115324268D02*
X185688285Y-117759047D01*
X183253506Y-110063814D02*
X183253506Y-115324268D01*
%TO.N,SDA*%
X171196000Y-112268000D02*
X172085000Y-113157000D01*
X172085000Y-113157000D02*
X172085000Y-117221000D01*
%TO.N,SCL*%
X174980149Y-113373795D02*
X175641000Y-114034646D01*
X175641000Y-114034646D02*
X175641000Y-116586000D01*
X174980149Y-111350251D02*
X174980149Y-113373795D01*
%TO.N,5V*%
X160256180Y-112349175D02*
X160799285Y-112892280D01*
X160256180Y-109661768D02*
X160256180Y-112349175D01*
%TO.N,0V*%
X169110728Y-113611728D02*
X169110728Y-117700728D01*
X168275000Y-112776000D02*
X169110728Y-113611728D01*
%TO.N,3.3V*%
X165259003Y-111209900D02*
X165259003Y-108779635D01*
X163554777Y-112406413D02*
X164062490Y-112406413D01*
X164062490Y-112406413D02*
X165259003Y-111209900D01*
%TO.N,I2CPullUp*%
X176061542Y-110575483D02*
X177419000Y-111932941D01*
X175595059Y-110109000D02*
X176061542Y-110575483D01*
X177419000Y-111932941D02*
X177419000Y-116205000D01*
%TD*%
M02*
