%TF.GenerationSoftware,KiCad,Pcbnew,7.0.5*%
%TF.CreationDate,2023-06-17T18:46:36+04:00*%
%TF.ProjectId,KBD,4b42442e-6b69-4636-9164-5f7063625858,rev?*%
%TF.SameCoordinates,Original*%
%TF.FileFunction,Soldermask,Top*%
%TF.FilePolarity,Negative*%
%FSLAX46Y46*%
G04 Gerber Fmt 4.6, Leading zero omitted, Abs format (unit mm)*
G04 Created by KiCad (PCBNEW 7.0.5) date 2023-06-17 18:46:36*
%MOMM*%
%LPD*%
G01*
G04 APERTURE LIST*
G04 Aperture macros list*
%AMRoundRect*
0 Rectangle with rounded corners*
0 $1 Rounding radius*
0 $2 $3 $4 $5 $6 $7 $8 $9 X,Y pos of 4 corners*
0 Add a 4 corners polygon primitive as box body*
4,1,4,$2,$3,$4,$5,$6,$7,$8,$9,$2,$3,0*
0 Add four circle primitives for the rounded corners*
1,1,$1+$1,$2,$3*
1,1,$1+$1,$4,$5*
1,1,$1+$1,$6,$7*
1,1,$1+$1,$8,$9*
0 Add four rect primitives between the rounded corners*
20,1,$1+$1,$2,$3,$4,$5,0*
20,1,$1+$1,$4,$5,$6,$7,0*
20,1,$1+$1,$6,$7,$8,$9,0*
20,1,$1+$1,$8,$9,$2,$3,0*%
%AMHorizOval*
0 Thick line with rounded ends*
0 $1 width*
0 $2 $3 position (X,Y) of the first rounded end (center of the circle)*
0 $4 $5 position (X,Y) of the second rounded end (center of the circle)*
0 Add line between two ends*
20,1,$1,$2,$3,$4,$5,0*
0 Add two circle primitives to create the rounded ends*
1,1,$1,$2,$3*
1,1,$1,$4,$5*%
%AMRotRect*
0 Rectangle, with rotation*
0 The origin of the aperture is its center*
0 $1 length*
0 $2 width*
0 $3 Rotation angle, in degrees counterclockwise*
0 Add horizontal line*
21,1,$1,$2,0,0,$3*%
G04 Aperture macros list end*
%ADD10RotRect,0.900000X1.200000X165.000000*%
%ADD11RotRect,0.900000X1.200000X339.000000*%
%ADD12RotRect,0.900000X1.200000X254.000000*%
%ADD13RotRect,0.900000X1.200000X170.000000*%
%ADD14RotRect,0.900000X1.200000X251.000000*%
%ADD15RotRect,0.900000X1.200000X260.000000*%
%ADD16RotRect,0.900000X1.200000X342.000000*%
%ADD17RotRect,0.900000X1.200000X248.000000*%
%ADD18R,2.000000X2.000000*%
%ADD19R,1.600000X1.600000*%
%ADD20O,1.600000X1.600000*%
%ADD21C,1.500000*%
%ADD22RotRect,1.200000X1.810000X10.000000*%
%ADD23RotRect,1.235000X1.810000X10.000000*%
%ADD24C,1.701800*%
%ADD25C,0.990600*%
%ADD26C,3.429000*%
%ADD27C,2.032000*%
%ADD28RoundRect,0.225000X-0.139099X-0.506855X0.304065X-0.428713X0.139099X0.506855X-0.304065X0.428713X0*%
%ADD29HorizOval,0.900000X-0.043412X0.246202X0.043412X-0.246202X0*%
%ADD30RoundRect,0.250000X-0.366727X0.370024X-0.502607X-0.137087X0.366727X-0.370024X0.502607X0.137087X0*%
%ADD31RotRect,1.500000X1.000000X344.000000*%
%ADD32RoundRect,0.225000X0.139099X0.506855X-0.304065X0.428713X-0.139099X-0.506855X0.304065X-0.428713X0*%
G04 APERTURE END LIST*
D10*
%TO.C,D4*%
X175450778Y-56827051D03*
X172263222Y-55972949D03*
%TD*%
D11*
%TO.C,D7*%
X199266592Y-81508693D03*
X202347408Y-82691307D03*
%TD*%
%TO.C,D11*%
X207966592Y-106108693D03*
X211047408Y-107291307D03*
%TD*%
%TO.C,D6*%
X214016592Y-90208693D03*
X217097408Y-91391307D03*
%TD*%
D10*
%TO.C,D14*%
X165650778Y-89427051D03*
X162463222Y-88572949D03*
%TD*%
D12*
%TO.C,D18*%
X180814802Y-103860918D03*
X179905198Y-107033082D03*
%TD*%
D13*
%TO.C,D10*%
X148681933Y-82086519D03*
X145432067Y-81513481D03*
%TD*%
D14*
%TO.C,D17*%
X195121187Y-116790094D03*
X194046813Y-119910306D03*
%TD*%
D15*
%TO.C,D15*%
X153448519Y-90958067D03*
X152875481Y-94207933D03*
%TD*%
D11*
%TO.C,D2*%
X205266592Y-65608693D03*
X208347408Y-66791307D03*
%TD*%
%TO.C,D12*%
X193216592Y-97408693D03*
X196297408Y-98591307D03*
%TD*%
D16*
%TO.C,D3*%
X189487757Y-54640122D03*
X192626243Y-55659878D03*
%TD*%
%TO.C,D8*%
X183887757Y-70690122D03*
X187026243Y-71709878D03*
%TD*%
D17*
%TO.C,D16*%
X211712101Y-122052747D03*
X210475899Y-125112453D03*
%TD*%
D11*
%TO.C,D1*%
X220166592Y-74358693D03*
X223247408Y-75541307D03*
%TD*%
D10*
%TO.C,D9*%
X170250778Y-73027051D03*
X167063222Y-72172949D03*
%TD*%
D13*
%TO.C,D5*%
X151281933Y-65286519D03*
X148032067Y-64713481D03*
%TD*%
D16*
%TO.C,D13*%
X178587757Y-86890122D03*
X181726243Y-87909878D03*
%TD*%
D18*
%TO.C,TP2*%
X175006000Y-98933000D03*
%TD*%
%TO.C,TP1*%
X175006000Y-96520000D03*
%TD*%
D19*
%TO.C,SW19*%
X186807000Y-91863500D03*
D20*
X184267000Y-91863500D03*
X181727000Y-91863500D03*
X179187000Y-91863500D03*
X179187000Y-99483500D03*
X181727000Y-99483500D03*
X184267000Y-99483500D03*
X186807000Y-99483500D03*
%TD*%
D21*
%TO.C,J3*%
X167021543Y-115115370D03*
X173915197Y-113899833D03*
D22*
X171047211Y-111455722D03*
D23*
X168110022Y-111973628D03*
D22*
X177078626Y-116291849D03*
X174986442Y-110761129D03*
%TD*%
D24*
%TO.C,SW1*%
X221214562Y-65658109D03*
D25*
X222981110Y-61837415D03*
D26*
X226349254Y-67629133D03*
D25*
X232727689Y-65578776D03*
D24*
X231483946Y-69600157D03*
D27*
X224234883Y-73137258D03*
X220319554Y-69384899D03*
X229655358Y-72968578D03*
%TD*%
D24*
%TO.C,SW13*%
X179012823Y-78055975D03*
D25*
X180576990Y-74148062D03*
D26*
X184243634Y-79755568D03*
D25*
X190506020Y-77374199D03*
D24*
X189474445Y-81455161D03*
D27*
X182420434Y-85366801D03*
X178314087Y-81824498D03*
X187824652Y-84914668D03*
%TD*%
D24*
%TO.C,SW5*%
X145353209Y-55605603D03*
D25*
X146358278Y-51518032D03*
D26*
X150769652Y-56560668D03*
D25*
X156639671Y-53330919D03*
D24*
X156186095Y-57515733D03*
D27*
X149745128Y-62371034D03*
X145185750Y-59434697D03*
X155033828Y-61171178D03*
%TD*%
D28*
%TO.C,J1*%
X159245000Y-111322000D03*
D29*
X161707019Y-110887880D03*
X164247823Y-110439867D03*
X166749235Y-109998801D03*
X169250647Y-109557735D03*
X171752058Y-109116668D03*
X174253470Y-108675602D03*
%TD*%
D24*
%TO.C,SW11*%
X209030052Y-97399843D03*
D25*
X210796600Y-93579149D03*
D26*
X214164744Y-99370867D03*
D25*
X220543179Y-97320510D03*
D24*
X219299436Y-101341891D03*
D27*
X212050373Y-104878992D03*
X208135044Y-101126633D03*
X217470848Y-104710312D03*
%TD*%
D24*
%TO.C,SW17*%
X198788296Y-115581750D03*
D25*
X200420427Y-111701731D03*
D26*
X203988648Y-117372375D03*
D25*
X210291641Y-115100663D03*
D24*
X209189000Y-119163000D03*
D27*
X202067796Y-122950935D03*
X198023896Y-119337505D03*
X207479082Y-122593186D03*
%TD*%
D24*
%TO.C,SW4*%
X168799933Y-46249659D03*
D25*
X170157432Y-42265240D03*
D26*
X174112525Y-47673164D03*
D25*
X180241698Y-44967311D03*
D24*
X179425117Y-49096669D03*
D27*
X172585493Y-53372126D03*
X168299383Y-50049587D03*
X177958642Y-52637777D03*
%TD*%
D30*
%TO.C,R2*%
X177528172Y-107449593D03*
X177055828Y-109212407D03*
%TD*%
D24*
%TO.C,SW10*%
X142401190Y-72347334D03*
D25*
X143406259Y-68259763D03*
D26*
X147817633Y-73302399D03*
D25*
X153687652Y-70072650D03*
D24*
X153234076Y-74257464D03*
D27*
X146793109Y-79112765D03*
X142233731Y-76176428D03*
X152081809Y-77912909D03*
%TD*%
D24*
%TO.C,SW7*%
X200266817Y-72791577D03*
D25*
X202033365Y-68970883D03*
D26*
X205401509Y-74762601D03*
D25*
X211779944Y-72712244D03*
D24*
X210536201Y-76733625D03*
D27*
X203287138Y-80270726D03*
X199371809Y-76518367D03*
X208707613Y-80102046D03*
%TD*%
D24*
%TO.C,SW16*%
X215263804Y-121462224D03*
D25*
X217096763Y-117672941D03*
D26*
X220363315Y-123522560D03*
D25*
X226776562Y-121583834D03*
D24*
X225462826Y-125582896D03*
D27*
X218153136Y-128992945D03*
X214303891Y-125172826D03*
X223575729Y-128918892D03*
%TD*%
D31*
%TO.C,D19*%
X196205929Y-102053670D03*
X195323889Y-105129707D03*
X200034071Y-106480330D03*
X200916111Y-103404293D03*
%TD*%
D24*
%TO.C,SW3*%
X189899823Y-45843660D03*
D25*
X191463990Y-41935747D03*
D26*
X195130634Y-47543253D03*
D25*
X201393020Y-45161884D03*
D24*
X200361445Y-49242846D03*
D27*
X193307434Y-53154486D03*
X189201087Y-49612183D03*
X198711652Y-52702353D03*
%TD*%
D24*
%TO.C,SW18*%
X182027606Y-110571598D03*
D25*
X183454436Y-106611477D03*
D26*
X187314545Y-112087603D03*
D25*
X193490008Y-109489131D03*
D24*
X192601484Y-113603608D03*
D27*
X185688285Y-117759047D03*
X181460815Y-114362211D03*
X191073432Y-117118584D03*
%TD*%
D24*
%TO.C,SW9*%
X164400008Y-62670398D03*
D25*
X165757507Y-58685979D03*
D26*
X169712600Y-64093903D03*
D25*
X175841773Y-61388050D03*
D24*
X175025192Y-65517408D03*
D27*
X168185568Y-69792865D03*
X163899458Y-66470326D03*
X173558717Y-69058516D03*
%TD*%
D24*
%TO.C,SW6*%
X215122308Y-81528976D03*
D25*
X216888856Y-77708282D03*
D26*
X220257000Y-83500000D03*
D25*
X226635435Y-81449643D03*
D24*
X225391692Y-85471024D03*
D27*
X218142629Y-89008125D03*
X214227300Y-85255766D03*
X223563104Y-88839445D03*
%TD*%
D24*
%TO.C,SW2*%
X206359072Y-56920710D03*
D25*
X208125620Y-53100016D03*
D26*
X211493764Y-58891734D03*
D25*
X217872199Y-56841377D03*
D24*
X216628456Y-60862758D03*
D27*
X209379393Y-64399859D03*
X205464064Y-60647500D03*
X214799868Y-64231179D03*
%TD*%
D24*
%TO.C,SW14*%
X160000085Y-79091137D03*
D25*
X161357584Y-75106718D03*
D26*
X165312677Y-80514642D03*
D25*
X171441850Y-77808789D03*
D24*
X170625269Y-81938147D03*
D27*
X163785645Y-86213604D03*
X159499535Y-82891065D03*
X169158794Y-85479255D03*
%TD*%
D32*
%TO.C,J2*%
X171453470Y-92775602D03*
D29*
X168952058Y-93216668D03*
X166450647Y-93657735D03*
X163949235Y-94098801D03*
X161447823Y-94539867D03*
X158946412Y-94980934D03*
X156445000Y-95422000D03*
%TD*%
D24*
%TO.C,SW15*%
X139449171Y-89089067D03*
D25*
X140454240Y-85001496D03*
D26*
X144865614Y-90044132D03*
D25*
X150735633Y-86814383D03*
D24*
X150282057Y-90999197D03*
D27*
X143841090Y-95854498D03*
X139281712Y-92918161D03*
X149129790Y-94654642D03*
%TD*%
D24*
%TO.C,SW8*%
X184456322Y-61949818D03*
D25*
X186020489Y-58041905D03*
D26*
X189687133Y-63649411D03*
D25*
X195949519Y-61268042D03*
D24*
X194917944Y-65349004D03*
D27*
X187863933Y-69260644D03*
X183757586Y-65718341D03*
X193268151Y-68808511D03*
%TD*%
D30*
%TO.C,R1*%
X179415344Y-108727186D03*
X178943000Y-110490000D03*
%TD*%
D24*
%TO.C,SW12*%
X194174561Y-88662445D03*
D25*
X195941109Y-84841751D03*
D26*
X199309253Y-90633469D03*
D25*
X205687688Y-88583112D03*
D24*
X204443945Y-92604493D03*
D27*
X197194882Y-96141594D03*
X193279553Y-92389235D03*
X202615357Y-95972914D03*
%TD*%
D21*
%TO.C,J3*%
X167013355Y-115120737D03*
X173907009Y-113905200D03*
%TD*%
D32*
%TO.C,J2*%
X175264650Y-107015370D03*
D29*
X172763238Y-107456436D03*
X170261827Y-107897503D03*
X167760415Y-108338569D03*
X165259003Y-108779635D03*
X162757592Y-109220702D03*
X160256180Y-109661768D03*
%TD*%
D28*
%TO.C,J1*%
X157449200Y-93763000D03*
D29*
X159911219Y-93328880D03*
X162452023Y-92880867D03*
X164953435Y-92439801D03*
X167454847Y-91998735D03*
X169956258Y-91557668D03*
X172457670Y-91116602D03*
%TD*%
M02*
