<svg xmlns="http://www.w3.org/2000/svg" viewBox="0 0 272.21 114.58"><defs><style>.cls-1{fill:#fff;}.cls-2{fill:#c7eafb;}.cls-3{fill:#6fbae7;}</style></defs><g id="Layer_2" data-name="Layer 2"><g id="Object"><path class="cls-1" d="M20.57,90.5c.47,0,.95,0,1.42,0,7.39,0,15.16-3.54,21.31-9.7a1,1,0,0,1,1.31-.1A1,1,0,0,1,44.89,82a7.85,7.85,0,0,0-.49,6.51c1.72,5,7.52,9.51,12.51,11.71a49,49,0,0,0,19.18,4.24c6.21,0,14.64-1.54,19.57-8.9a1,1,0,0,1,.83-.45h0a1,1,0,0,1,.84.49A34.49,34.49,0,0,0,156.1,96.7a1,1,0,0,1,.76-.45,1,1,0,0,1,.83.33c4.86,5.51,12.41,8.68,20.7,8.68,11,0,20.69-5.24,25.37-13.66a1,1,0,0,1,.68-.5,1,1,0,0,1,.82.2c7.79,6.2,14.9,9.3,21.72,9.48h.48c7.11,0,15.63-4.24,17.44-12.09a1,1,0,0,1,1-.78c1.55,0,3,.09,4.38.09a30.72,30.72,0,0,0,11.45-1.77c4.32-1.76,8.81-6.09,8.45-11.45a8,8,0,0,0-7.44-7,4.87,4.87,0,0,0-2.74.81,1,1,0,0,1-1.19-.07,1,1,0,0,1-.28-1.16A18.66,18.66,0,0,0,241.11,41.3a18.6,18.6,0,0,0-9.58,2.58,1,1,0,0,1-1,0,1,1,0,0,1-.55-.8c-1-11.14-7.77-22.18-18.1-29.53C203,7.21,191.6,3.39,178.13,2.22c-1.65-.15-3.35-.22-5-.22-13.6,0-30.93,5.08-35,19.38a1,1,0,0,1-1.7.4A24.24,24.24,0,0,0,118.56,14a22.25,22.25,0,0,0-5.67.72A24.18,24.18,0,0,0,95.76,32.29a1,1,0,0,1-.7.74,1,1,0,0,1-1-.26A23.42,23.42,0,0,0,77.48,26a22.24,22.24,0,0,0-7.21,1.18,23.41,23.41,0,0,0-15.36,19,1,1,0,0,1-.74.85,1,1,0,0,1-1.06-.38,21.31,21.31,0,0,0-17-8.47A19.91,19.91,0,0,0,30.6,39,21.28,21.28,0,0,0,15.75,57.56a1,1,0,0,1-1,.93,12.74,12.74,0,0,0-9.42,5.2A15.24,15.24,0,0,0,2.29,76.06C4,83.76,11.81,90,20.57,90.5Zm188.84-34c5.38-2.8,10.44-3.31,14.24-1.42a9,9,0,0,1,4.67,7.29,6.83,6.83,0,0,1-.89,4,7.9,7.9,0,0,1,3.91,2.13A8.62,8.62,0,0,1,234,75.81c-.72,4.66-5.35,8.4-10.53,8.52h0a1,1,0,0,1,0-2c4.18-.09,8-3.16,8.6-6.83a6.59,6.59,0,0,0-2-5.57,5.26,5.26,0,0,0-4.59-1.61,1,1,0,0,1-1.1-.61,1,1,0,0,1,.36-1.2,4.37,4.37,0,0,0,1.71-4,7,7,0,0,0-3.56-5.64c-4.33-2.15-9.65-.05-12.43,1.4a1,1,0,1,1-.92-1.77Zm-96.5-21.2c9.81-12.14,29-15.58,42.52-7.79a10,10,0,0,1,5.44-4.44,13.53,13.53,0,0,1,10.75.76c4.71,2.57,8.26,7.78,10.25,15.07a1,1,0,0,1-.69,1.22.84.84,0,0,1-.27,0,1,1,0,0,1-1-.74c-1.3-4.7-3.95-10.92-9.29-13.83a11.41,11.41,0,0,0-9.11-.64,7.79,7.79,0,0,0-4.76,4.35,1,1,0,0,1-.62.58,1,1,0,0,1-.84-.1c-12.71-8-31.42-4.91-40.86,6.78a1,1,0,0,1-1.41.14A1,1,0,0,1,112.91,35.28Zm.66,43.92h0a1,1,0,0,1,1,1c0,2.66,1.87,5.35,4.72,6.85s6.37,1.78,9.08,1.83a58.26,58.26,0,0,0,20.75-3.46,1,1,0,1,1,.68,1.88,60,60,0,0,1-20.45,3.59h-1c-2.93-.05-6.71-.33-10-2.06-3.5-1.85-5.77-5.22-5.79-8.6A1,1,0,0,1,113.57,79.2ZM43.34,62.5a1,1,0,0,1,1.25.66,13.82,13.82,0,0,0,17.84,8.28,1,1,0,0,1,.79,1.83,13.85,13.85,0,0,1-5.49,1.11,16.18,16.18,0,0,1-6.79-1.54,15.16,15.16,0,0,1-8.27-9.09A1,1,0,0,1,43.34,62.5Z"/><path class="cls-2" d="M57.24,72.37a51.77,51.77,0,0,1-7.07-2.23,15.71,15.71,0,0,0,1.61.89A14.41,14.41,0,0,0,57.24,72.37Z"/><path class="cls-2" d="M270.19,74.8c-6,5.47-17.12,5.19-21.95-1.66A23.13,23.13,0,0,1,234,74a7.73,7.73,0,0,1-.05,1.8c-.72,4.66-5.35,8.4-10.53,8.52h0a1,1,0,0,1,0-2c4.18-.09,8-3.16,8.6-6.83a5.68,5.68,0,0,0-.09-2.13,22.33,22.33,0,0,1-7.1-4.07,15.51,15.51,0,0,1-28.66-2.21,29.15,29.15,0,0,1-25.27,14.49c-4.49-.07-10.23-3.34-8.59-7.52C155.34,80.3,147.12,85.58,137.91,87s-19.53-1.88-24.65-9.67C108,80.54,102.11,83.21,96,82.77s-12.3-4.9-12.9-11a49.44,49.44,0,0,1-20.13,1.63,14.12,14.12,0,0,1-5.21,1,16.18,16.18,0,0,1-6.79-1.54,15.92,15.92,0,0,1-6.42-5.34,48,48,0,0,1-8.89-6.19c-8.23,4.37-13.18,13.9-22,16.92a18.53,18.53,0,0,1-10.55.36C5.75,85.08,12.8,90,20.57,90.5c.47,0,.95,0,1.42,0,7.39,0,15.16-3.54,21.31-9.7a1,1,0,0,1,1.31-.1A1,1,0,0,1,44.89,82a7.85,7.85,0,0,0-.49,6.51c1.72,5,7.52,9.51,12.51,11.71a49,49,0,0,0,19.18,4.24c6.21,0,14.64-1.54,19.57-8.9a1,1,0,0,1,.83-.45h0a1,1,0,0,1,.84.49A34.49,34.49,0,0,0,156.1,96.7a1,1,0,0,1,.76-.45,1,1,0,0,1,.83.33c4.86,5.51,12.41,8.68,20.7,8.68,11,0,20.69-5.24,25.37-13.66a1,1,0,0,1,.68-.5,1,1,0,0,1,.82.2c7.79,6.2,14.9,9.3,21.72,9.48h.48c7.11,0,15.63-4.24,17.44-12.09a1,1,0,0,1,1-.78c1.55,0,3,.09,4.38.09a30.72,30.72,0,0,0,11.45-1.77C266.06,84.48,270.54,80.16,270.19,74.8ZM149.81,87.29a60,60,0,0,1-20.45,3.59h-1c-2.93-.05-6.71-.33-10-2.06-3.5-1.85-5.77-5.22-5.79-8.6a1,1,0,0,1,1-1h0a1,1,0,0,1,1,1c0,2.66,1.87,5.35,4.72,6.85s6.37,1.78,9.08,1.83a58.26,58.26,0,0,0,20.75-3.46,1,1,0,1,1,.68,1.88Z"/><path class="cls-3" d="M20.44,92.5c.52,0,1,0,1.55,0h0c6.84,0,14-2.8,20-7.78a10.32,10.32,0,0,0,.55,4.41c2,6,8.6,10.7,13.6,12.9a51,51,0,0,0,20,4.41c9,0,16-2.95,20.34-8.55a37.31,37.31,0,0,0,30,16.64H127a37.42,37.42,0,0,0,30.06-15.73c5.24,5.36,12.93,8.41,21.32,8.41,11.25,0,21.3-5.22,26.53-13.68,7.8,6,15,9,22,9.2h.53c7.64,0,16.77-4.5,19.18-12.84,1.26,0,2.45.06,3.65.06a32.53,32.53,0,0,0,12.2-1.92c5-2,10.13-7.09,9.69-13.44a10,10,0,0,0-9.43-8.84,6.92,6.92,0,0,0-1.59.17A20.64,20.64,0,0,0,241.11,39.3a20.9,20.9,0,0,0-9.27,2.13c-1.5-11.2-8.42-22.13-18.76-29.48-9.25-6.57-21-10.52-34.78-11.73C176.59.08,174.84,0,173.1,0c-13.79,0-31.24,5.07-36.39,19.21A26.46,26.46,0,0,0,118.56,12a24.78,24.78,0,0,0-6.17.78A26.28,26.28,0,0,0,94.26,30.2,25.55,25.55,0,0,0,77.48,24a24,24,0,0,0-7.86,1.29A25.49,25.49,0,0,0,53.3,43.75a23.53,23.53,0,0,0-17.23-7.54,21.51,21.51,0,0,0-6,.84A23.38,23.38,0,0,0,13.83,56.56a14.91,14.91,0,0,0-10,5.9,17.32,17.32,0,0,0-3.45,14C2.18,85,10.83,91.91,20.44,92.5ZM5.37,63.69a12.74,12.74,0,0,1,9.42-5.2,1,1,0,0,0,1-.93A21.28,21.28,0,0,1,30.6,39a19.91,19.91,0,0,1,5.47-.76,21.31,21.31,0,0,1,17,8.47,1,1,0,0,0,1.06.38,1,1,0,0,0,.74-.85,23.41,23.41,0,0,1,15.36-19A22.24,22.24,0,0,1,77.48,26a23.42,23.42,0,0,1,16.6,6.77,1,1,0,0,0,1,.26,1,1,0,0,0,.7-.74,24.18,24.18,0,0,1,17.13-17.61,22.25,22.25,0,0,1,5.67-.72,24.24,24.24,0,0,1,17.85,7.82,1,1,0,0,0,1.7-.4C142.17,7.08,159.5,2,173.1,2c1.68,0,3.38.07,5,.22,13.47,1.17,24.84,5,33.79,11.36C222.25,20.93,229,32,230,43.11a1,1,0,0,0,.55.8,1,1,0,0,0,1,0,18.6,18.6,0,0,1,9.58-2.58,18.66,18.66,0,0,1,17.43,26.09,1,1,0,0,0,.28,1.16,1,1,0,0,0,1.19.07,4.87,4.87,0,0,1,2.74-.81,8,8,0,0,1,7.44,7c.36,5.36-4.13,9.69-8.45,11.45A30.72,30.72,0,0,1,250.29,88c-1.43,0-2.83,0-4.38-.09a1,1,0,0,0-1,.78c-1.81,7.85-10.33,12.09-17.44,12.09H227c-6.82-.18-13.93-3.28-21.72-9.48a1,1,0,0,0-.82-.2,1,1,0,0,0-.68.5c-4.68,8.42-14.4,13.66-25.37,13.66-8.29,0-15.84-3.17-20.7-8.68a1,1,0,0,0-.83-.33,1,1,0,0,0-.76.45,34.49,34.49,0,0,1-58.74-1.07,1,1,0,0,0-.84-.49h0a1,1,0,0,0-.83.45c-4.93,7.36-13.36,8.9-19.57,8.9a49,49,0,0,1-19.18-4.24c-5-2.2-10.79-6.67-12.51-11.71A7.85,7.85,0,0,1,44.89,82a1,1,0,0,0-.28-1.28,1,1,0,0,0-1.31.1C37.15,87,29.38,90.55,22,90.55c-.47,0-.95,0-1.42,0C11.81,90,4,83.76,2.29,76.06A15.24,15.24,0,0,1,5.37,63.69Z"/><path class="cls-3" d="M114.47,36.54c9.44-11.69,28.15-14.79,40.86-6.78a1,1,0,0,0,.84.1,1,1,0,0,0,.62-.58,7.79,7.79,0,0,1,4.76-4.35,11.41,11.41,0,0,1,9.11.64c5.34,2.91,8,9.13,9.29,13.83a1,1,0,0,0,1,.74.84.84,0,0,0,.27,0,1,1,0,0,0,.69-1.22c-2-7.29-5.54-12.5-10.25-15.07a13.53,13.53,0,0,0-10.75-.76,10,10,0,0,0-5.44,4.44c-13.49-7.79-32.71-4.35-42.52,7.79a1,1,0,0,0,.15,1.4A1,1,0,0,0,114.47,36.54Z"/><path class="cls-3" d="M210.33,58.25c2.78-1.45,8.1-3.55,12.43-1.4a7,7,0,0,1,3.56,5.64,4.37,4.37,0,0,1-1.71,4,1,1,0,0,0-.36,1.2,1,1,0,0,0,1.1.61,5.26,5.26,0,0,1,4.59,1.61,6.59,6.59,0,0,1,2,5.57c-.56,3.67-4.42,6.74-8.6,6.83a1,1,0,0,0,0,2h0c5.18-.12,9.81-3.86,10.53-8.52a8.62,8.62,0,0,0-2.61-7.31,7.9,7.9,0,0,0-3.91-2.13,6.83,6.83,0,0,0,.89-4,9,9,0,0,0-4.67-7.29c-3.8-1.89-8.86-1.38-14.24,1.42a1,1,0,1,0,.92,1.77Z"/><path class="cls-3" d="M50.94,72.84a16.18,16.18,0,0,0,6.79,1.54,13.85,13.85,0,0,0,5.49-1.11,1,1,0,0,0-.79-1.83,13.82,13.82,0,0,1-17.84-8.28,1,1,0,0,0-1.92.59A15.16,15.16,0,0,0,50.94,72.84Z"/><path class="cls-3" d="M118.37,88.81c3.26,1.73,7,2,10,2.06h1a60,60,0,0,0,20.45-3.59,1,1,0,1,0-.68-1.88,58.26,58.26,0,0,1-20.75,3.46c-2.71-.05-6.19-.29-9.08-1.83s-4.7-4.19-4.72-6.85a1,1,0,0,0-1-1h0a1,1,0,0,0-1,1C112.6,83.59,114.87,87,118.37,88.81Z"/></g></g></svg>