<svg xmlns="http://www.w3.org/2000/svg" viewBox="0 0 258.43 113.19"><defs><style>.cls-1{fill:#fff;}.cls-2{fill:#c7eafb;}.cls-3{fill:#6fbae7;}</style></defs><g id="Layer_2" data-name="Layer 2"><g id="Object"><path class="cls-1" d="M253.23,49.13a16.58,16.58,0,0,0-13.09-6.05,15.64,15.64,0,0,0-9.22,2.85,1,1,0,0,1-.94.12,1,1,0,0,1-.62-.7,31.45,31.45,0,0,0-19.92-21.87,30.24,30.24,0,0,0-9.75-1.59,31.16,31.16,0,0,0-18.89,6.29c.63.19,1.26.41,1.89.67,6.37,2.69,11.48,10.6,8.64,17.66a1,1,0,0,1-.93.63,1,1,0,0,1-.92-1.38c2.41-6-2.06-12.74-7.57-15.07-6.57-2.77-13.9-.85-18.88,1.25a1,1,0,0,1-.78-1.84c4.34-1.83,10.35-3.52,16.32-2.46a33.66,33.66,0,0,0-23.13-22,32.18,32.18,0,0,0-8.05-1,33.67,33.67,0,0,0-23.2,9.2,1,1,0,0,1-1.41,0C115.5,6.31,104.72,2,93.21,2,81.31,2,70.27,6.53,62.93,14.44c-.11.11-.21.23-.31.34a21.42,21.42,0,0,1,12.52,1.57,42,42,0,0,1,5.08,2.93A1,1,0,1,1,79.14,21a40.63,40.63,0,0,0-4.83-2.79A19.82,19.82,0,0,0,60,17.52a13,13,0,0,1-2.92,2.22A11.63,11.63,0,0,1,54,20.84a19.91,19.91,0,0,0-6.85,17.23,1,1,0,0,1-.33.88,1,1,0,0,1-.92.2C42,38.08,37.27,40,34.7,43.69A16,16,0,0,0,32.6,56l4.13,2.15a1,1,0,0,1,.43,1.35,1,1,0,0,1-.89.54,1,1,0,0,1-.46-.11l-4.55-2.37a1,1,0,0,1-.51-.67,18.09,18.09,0,0,1,2.31-14.32A13.05,13.05,0,0,1,45,37a21.67,21.67,0,0,1,5.67-15.74h-1c-.82,0-1.65,0-2.47,0l-1.81,0h-.5C26.81,21.13,9.61,33.36,4,50.22-1.69,67.28,5.58,88.08,20.55,97.57a38.44,38.44,0,0,0,20.64,5.78c11.23,0,21.69-4.37,28.7-12A1,1,0,0,1,71,91.09a1,1,0,0,1,.66.88c.62,11,12.66,18.56,23.51,18.65h.29c11.44,0,22.15-5.76,31.6-10.85a1,1,0,0,1,.48-.12.92.92,0,0,1,.51.15c8.57,5.2,18.8,10.61,29.7,11.32.68,0,1.38.07,2.07.07,10.86,0,20.46-5.2,24.45-13.25a1,1,0,0,1,.9-.55h0a1,1,0,0,1,.9.56,23,23,0,0,0,19.67,12.64h.5A23.13,23.13,0,0,0,226,98.93a1,1,0,0,1,.65-.5,1,1,0,0,1,.8.16,17.23,17.23,0,0,0,9.89,3,17.88,17.88,0,0,0,13.1-5.51c5.63-6.19,5.78-16.78.33-23.12a1,1,0,0,1-.24-.73,1,1,0,0,1,.36-.69C257.24,66.19,258.35,55.72,253.23,49.13ZM106.32,86a14.43,14.43,0,0,1-9,3,17,17,0,0,1-4.64-.65,15.31,15.31,0,0,1-10.44-9.11,1,1,0,0,1,1.88-.69,14.13,14.13,0,0,0,21,5.89A1,1,0,0,1,106.32,86ZM229,76.41a9.77,9.77,0,0,1-9.82,4.7c-.78,3.69-4.7,6.15-8.31,6.38l-.78,0c-3.71,0-7.28-1.64-10.19-3a1,1,0,0,1,.84-1.82c3,1.41,6.52,3,10,2.78,3.12-.2,6.51-2.5,6.57-5.62a1,1,0,0,1,.42-.79,1,1,0,0,1,.87-.15,7.44,7.44,0,0,0,7.09-12.69,1,1,0,0,1-.09-1.41,1,1,0,0,1,1.41-.09A9.74,9.74,0,0,1,229,76.41Z"/><path class="cls-2" d="M253.44,91.12a30.15,30.15,0,0,1-9.61-.44,23.38,23.38,0,0,1-16-12.66,9.92,9.92,0,0,1-8.66,3.09c-.78,3.69-4.7,6.15-8.31,6.38l-.78,0c-3.71,0-7.28-1.64-10.19-3a1,1,0,0,1,.84-1.82c3,1.41,6.52,3,10,2.78,3.12-.2,6.51-2.5,6.57-5.62a1,1,0,0,1,.42-.79,1,1,0,0,1,.87-.15A7.7,7.7,0,0,0,227,75.82a15.78,15.78,0,0,1-.52-7.08c-6.22,5.11-16.66,3.78-21.39-2.73a89.4,89.4,0,0,1-13.67,9.21c-3,1.62-6.16,3.11-9.54,3s-6.92-2.19-7.59-5.5a29.69,29.69,0,0,1-47.8-7.17c-19.66,14-49.42,11.11-66.08-6.33A52.69,52.69,0,0,1,23.51,77.44,51.85,51.85,0,0,1,3.84,74.58c2.76,9.39,8.6,17.85,16.71,23a38.44,38.44,0,0,0,20.64,5.78c11.23,0,21.69-4.37,28.7-12A1,1,0,0,1,71,91.09a1,1,0,0,1,.66.88c.62,11,12.66,18.56,23.51,18.65h.29c11.44,0,22.15-5.76,31.6-10.85a1,1,0,0,1,.48-.12.92.92,0,0,1,.51.15c8.57,5.2,18.8,10.61,29.7,11.32.68,0,1.38.07,2.07.07,10.86,0,20.46-5.2,24.45-13.25a1,1,0,0,1,.9-.55h0a1,1,0,0,1,.9.56,23,23,0,0,0,19.67,12.64h.5A23.13,23.13,0,0,0,226,98.93a1,1,0,0,1,.65-.5,1,1,0,0,1,.8.16,17.23,17.23,0,0,0,9.89,3,17.88,17.88,0,0,0,13.1-5.51A16.18,16.18,0,0,0,253.44,91.12ZM106.32,86a14.43,14.43,0,0,1-9,3,17,17,0,0,1-4.64-.65,15.31,15.31,0,0,1-10.44-9.11,1,1,0,0,1,1.88-.69,14.13,14.13,0,0,0,21,5.89A1,1,0,0,1,106.32,86Z"/><path class="cls-3" d="M254.81,47.91a18.56,18.56,0,0,0-14.67-6.83,17.89,17.89,0,0,0-9.2,2.44,33.53,33.53,0,0,0-20.85-21.93,32,32,0,0,0-10.4-1.7,33.26,33.26,0,0,0-19.51,6.23,35.73,35.73,0,0,0-24.24-22.4,34.25,34.25,0,0,0-8.55-1.08,35.73,35.73,0,0,0-23.87,9.09C115.89,4.26,104.9,0,93.21,0c-12.45,0-24,4.77-31.75,13.08l-.9,1c-.52.58-1,1.14-1.57,1.68a20.79,20.79,0,0,0-5.29,2.79l-.57.44a19.79,19.79,0,0,1-3.46.25c-.8,0-1.61,0-2.41,0l-1.85-.05h-.52C26,19.13,8,31.94,2.1,49.59-4,67.78,3.51,89.14,19.48,99.26a40.37,40.37,0,0,0,21.71,6.09A41.22,41.22,0,0,0,69.88,94.23c2,11,14.18,18.3,25.24,18.39h.3c11.74,0,22.51-5.69,32.05-10.81,8.67,5.23,19,10.58,30.11,11.31.72,0,1.46.07,2.2.07,10.87,0,20.59-4.94,25.34-12.72a24.47,24.47,0,0,0,42,.36,19.28,19.28,0,0,0,10.14,2.77,19.64,19.64,0,0,0,14.58-6.17,20,20,0,0,0,1-25C259.39,66.24,260.36,55,254.81,47.91ZM250.73,73c5.45,6.34,5.3,16.93-.33,23.12a17.88,17.88,0,0,1-13.1,5.51,17.23,17.23,0,0,1-9.89-3,1,1,0,0,0-.8-.16,1,1,0,0,0-.65.5A23.13,23.13,0,0,1,206.2,110.6h-.5A23,23,0,0,1,186,98a1,1,0,0,0-.9-.56h0a1,1,0,0,0-.9.55c-4,8-13.59,13.25-24.45,13.25-.69,0-1.39,0-2.07-.07-10.9-.71-21.13-6.12-29.7-11.32a.92.92,0,0,0-.51-.15,1,1,0,0,0-.48.12c-9.45,5.09-20.16,10.85-31.6,10.85h-.29C84.28,110.53,72.24,103,71.62,92a1,1,0,0,0-.66-.88,1,1,0,0,0-1.07.26c-7,7.63-17.47,12-28.7,12a38.44,38.44,0,0,1-20.64-5.78C5.58,88.08-1.69,67.28,4,50.22c5.62-16.86,22.82-29.09,40.9-29.09h.5l1.81,0c.82,0,1.65,0,2.47,0h1A21.67,21.67,0,0,0,45,37a13.05,13.05,0,0,0-12,5.6,18.09,18.09,0,0,0-2.31,14.32,1,1,0,0,0,.51.67l4.55,2.37a1,1,0,0,0,.46.11,1,1,0,0,0,.89-.54,1,1,0,0,0-.43-1.35L32.6,56a16,16,0,0,1,2.1-12.29C37.27,40,42,38.08,45.89,39.15a1,1,0,0,0,.92-.2,1,1,0,0,0,.33-.88A19.91,19.91,0,0,1,54,20.84a11.63,11.63,0,0,0,3.12-1.1A13,13,0,0,0,60,17.52a19.82,19.82,0,0,1,14.28.65A40.63,40.63,0,0,1,79.14,21a1,1,0,1,0,1.08-1.68,42,42,0,0,0-5.08-2.93,21.42,21.42,0,0,0-12.52-1.57c.1-.11.2-.23.31-.34C70.27,6.53,81.31,2,93.21,2c11.51,0,22.29,4.31,29.57,11.82a1,1,0,0,0,1.41,0,33.67,33.67,0,0,1,23.2-9.2,32.18,32.18,0,0,1,8.05,1,33.66,33.66,0,0,1,23.13,22c-6-1.06-12,.63-16.32,2.46a1,1,0,0,0,.78,1.84c5-2.1,12.31-4,18.88-1.25,5.51,2.33,10,9.09,7.57,15.07a1,1,0,0,0,.92,1.38,1,1,0,0,0,.93-.63c2.84-7.06-2.27-15-8.64-17.66-.63-.26-1.26-.48-1.89-.67a31.16,31.16,0,0,1,18.89-6.29,30.24,30.24,0,0,1,9.75,1.59,31.45,31.45,0,0,1,19.92,21.87,1,1,0,0,0,.62.7,1,1,0,0,0,.94-.12,15.64,15.64,0,0,1,9.22-2.85,16.58,16.58,0,0,1,13.09,6.05c5.12,6.59,4,17.06-2.38,22.42a1,1,0,0,0-.36.69A1,1,0,0,0,250.73,73Z"/><path class="cls-3" d="M227,64.74a1,1,0,0,0-1.41.09,1,1,0,0,0,.09,1.41,7.44,7.44,0,0,1-7.09,12.69,1,1,0,0,0-.87.15,1,1,0,0,0-.42.79c-.06,3.12-3.45,5.42-6.57,5.62-3.48.22-7-1.37-10-2.78a1,1,0,0,0-.84,1.82c2.91,1.34,6.48,3,10.19,3l.78,0c3.61-.23,7.53-2.69,8.31-6.38A9.43,9.43,0,0,0,227,64.74Z"/><path class="cls-3" d="M105.08,84.44a14.13,14.13,0,0,1-21-5.89,1,1,0,0,0-1.88.69,15.31,15.31,0,0,0,10.44,9.11,17,17,0,0,0,4.64.65,14.43,14.43,0,0,0,9-3,1,1,0,0,0-1.24-1.57Z"/></g></g></svg>