<svg xmlns="http://www.w3.org/2000/svg" viewBox="0 0 160.7 109.35"><defs><style>.cls-1{fill:#fff;}.cls-2{fill:#c7eafb;}.cls-3{fill:#6fbae7;}</style></defs><g id="Layer_2" data-name="Layer 2"><g id="Object"><path class="cls-1" d="M3.19,80.35c1.92,3.43,5.94,5.55,10.47,5.55a12,12,0,0,0,8.55-3.32,11.67,11.67,0,0,1-3.16-9.11,1,1,0,0,1,1.09-.89,1,1,0,0,1,.9,1.1,9.44,9.44,0,0,0,12.73,9.8,1,1,0,0,1,1.29.58,1,1,0,0,1-.59,1.29,11.2,11.2,0,0,1-4,.72A11.81,11.81,0,0,1,25,84.71a28.19,28.19,0,0,0,18.2,15.57,27.12,27.12,0,0,0,7,.9,28.49,28.49,0,0,0,18.3-6.65,1,1,0,0,1,.65-.24h.12a1,1,0,0,1,.69.41c5.65,7.8,15.62,12.65,26,12.65a30.23,30.23,0,0,0,15.81-4.29l1.16-.74c2-1.26,4-2.56,6.45-2.81A14.81,14.81,0,0,1,124,100l1.43.28a17.1,17.1,0,0,0,2.87.24c8.59,0,16.93-6.35,19-14.45a1,1,0,0,1,.68-.72c4.34-1.28,9.39-4.49,10.57-9.67a8.72,8.72,0,0,0-1.8-7.18,6.21,6.21,0,0,0-5.44-2.61,1,1,0,0,1-.95-.49,1,1,0,0,1,0-1.07,14.7,14.7,0,0,0-1-17.32,14.53,14.53,0,0,0-10.85-4.74,13.88,13.88,0,0,0-5.15,1,9.58,9.58,0,0,1,1.55,1.69,10.26,10.26,0,0,1,.85,10.26,1,1,0,0,1-.9.56,1.07,1.07,0,0,1-.43-.09,1,1,0,0,1-.47-1.34,8.14,8.14,0,0,0-8.22-11.63,1,1,0,0,1-1.11-.88,1,1,0,0,1,.89-1.11,10.34,10.34,0,0,1,5.79,1.13c4.34-6.45,2.31-15.42-2-21.08-5-6.44-12.7-10.21-19.61-13.06C103.48,5.13,95.29,2.18,86.9,2h-.71C78,2,70.54,4.84,65.79,9.78c-5.9,6.16-7.67,14.84-9.09,24.75a7.67,7.67,0,0,1,6.44,1.83,1.31,1.31,0,0,1,.34-.21,1.23,1.23,0,0,1,1.31.21,1.55,1.55,0,0,1,.38,1.57A1.42,1.42,0,0,1,64,39,2.41,2.41,0,0,1,62,38c-2.36-2.39-6.58-1.78-9.08.26-2.81,2.29-4.2,6-5.2,9.26a1,1,0,0,1-1.22.68,5.41,5.41,0,0,0-4.64,9.58,1,1,0,0,1-.59,1.81.94.94,0,0,1-.59-.2A7.41,7.41,0,0,1,46,46.08c1.07-3.35,2.61-6.95,5.58-9.37a9.86,9.86,0,0,1,2.3-1.39,16.29,16.29,0,0,0-10.13-3.5A15.46,15.46,0,0,0,38,32.91,16.28,16.28,0,0,0,28.15,47a1,1,0,0,1-.63.89,1,1,0,0,1-1.07-.22A5.76,5.76,0,0,0,22.33,46a9,9,0,0,0-7,3.51c-2.25,3-3,7.35-2.33,13.2a1,1,0,0,1-.95,1.11,10.43,10.43,0,0,0-8.47,5.7A11.16,11.16,0,0,0,3.19,80.35Zm96,6.62a1,1,0,0,1,1.59,0c1.52,2.06,4.71,2.22,6.94,1.32,2.6-1,4.69-3.3,6.53-5.29a1,1,0,0,1,1.47,1.36c-2,2.14-4.24,4.57-7.26,5.78-2.65,1.07-6.21,1-8.48-1.09a12.41,12.41,0,0,1-8.71,3.64,12,12,0,0,1-10.83-6.94,1,1,0,1,1,1.81-.85,10,10,0,0,0,16.94,2ZM77.43,14.23a12.45,12.45,0,0,1,13-3.54,1,1,0,0,1-.63,1.9,10.43,10.43,0,0,0-10.84,3,1,1,0,0,1-.75.34,1,1,0,0,1-.75-1.66Z"/><path class="cls-2" d="M124.49,74.23c-9.22,10-27.77,8.59-35.4-2.66a41.56,41.56,0,0,1-22.46,5.76c-4.48-.14-10.14-2.47-9.76-6.94-9.58,6.15-23.42,4.54-31.33-3.66A34.29,34.29,0,0,1,20.82,73a1,1,0,0,1,.22.72,9.44,9.44,0,0,0,12.73,9.8,1,1,0,0,1,1.29.58,1,1,0,0,1-.59,1.29,11.2,11.2,0,0,1-4,.72A11.81,11.81,0,0,1,25,84.71a28.19,28.19,0,0,0,18.2,15.57,27.12,27.12,0,0,0,7,.9,28.49,28.49,0,0,0,18.3-6.65,1,1,0,0,1,.65-.24h.12a1,1,0,0,1,.69.41c5.65,7.8,15.62,12.65,26,12.65a30.23,30.23,0,0,0,15.81-4.29l1.16-.74c2-1.26,4-2.56,6.45-2.81A14.81,14.81,0,0,1,124,100l1.43.28a17.1,17.1,0,0,0,2.87.24c8.59,0,16.93-6.35,19-14.45a1,1,0,0,1,.68-.72c4.34-1.28,9.39-4.49,10.57-9.67a7.82,7.82,0,0,0,.11-2.65,37.8,37.8,0,0,1-11.77,7C139,82.66,129.11,81.1,124.49,74.23ZM115.71,84.4c-2,2.14-4.24,4.57-7.26,5.78-2.65,1.07-6.21,1-8.48-1.09a12.41,12.41,0,0,1-8.71,3.64,12,12,0,0,1-10.83-6.94,1,1,0,1,1,1.81-.85,10,10,0,0,0,16.94,2,1,1,0,0,1,1.59,0c1.52,2.06,4.71,2.22,6.94,1.32,2.6-1,4.69-3.3,6.53-5.29a1,1,0,0,1,1.47,1.36Z"/><path class="cls-2" d="M19,74.65A15.23,15.23,0,0,1,12,78,11,11,0,0,1,2.1,74.25a10,10,0,0,0,1.09,6.1c1.92,3.43,5.94,5.55,10.47,5.55a12,12,0,0,0,8.55-3.32A11.81,11.81,0,0,1,19,74.65Z"/><path class="cls-3" d="M1.88,68.59a13.13,13.13,0,0,0-.44,12.73c2.28,4.06,7,6.58,12.22,6.58a14.28,14.28,0,0,0,9.16-3.15,30.26,30.26,0,0,0,19.86,17.46,29.35,29.35,0,0,0,7.51,1A30.6,30.6,0,0,0,69,96.72c6.11,7.81,16.36,12.63,27,12.63a32.17,32.17,0,0,0,16.86-4.59c.4-.24.79-.5,1.19-.75,1.86-1.19,3.61-2.31,5.57-2.51a13.31,13.31,0,0,1,4,.42c.5.11,1,.21,1.51.3a18.85,18.85,0,0,0,3.2.27c9.42,0,18.25-6.59,20.78-15.42,4.75-1.54,10.09-5.18,11.41-11a10.8,10.8,0,0,0-2.18-8.87,8.74,8.74,0,0,0-5.37-3.29,16,16,0,0,0-14.4-23.69,16,16,0,0,0-4.33.59c3.24-7,1-15.67-3.33-21.31-5.24-6.81-13.27-10.74-20.43-13.69C104.07,3.21,95.66.18,86.94,0c-9-.17-17.32,2.9-22.59,8.39-6.15,6.41-8.07,15.14-9.52,25.08a18.3,18.3,0,0,0-11-3.66,17.39,17.39,0,0,0-6.52,1.24,18.39,18.39,0,0,0-10.94,14,7.92,7.92,0,0,0-4-1,11,11,0,0,0-8.57,4.32C11.34,51.64,10.41,56.09,11,62A12.62,12.62,0,0,0,1.88,68.59Zm10.21-4.73A1,1,0,0,0,13,62.75c-.68-5.85.08-10.16,2.33-13.2a9,9,0,0,1,7-3.51,5.76,5.76,0,0,1,4.12,1.59,1,1,0,0,0,1.07.22,1,1,0,0,0,.63-.89A16.28,16.28,0,0,1,38,32.91a15.46,15.46,0,0,1,5.77-1.09,16.29,16.29,0,0,1,10.13,3.5,9.86,9.86,0,0,0-2.3,1.39c-3,2.42-4.51,6-5.58,9.37a7.41,7.41,0,0,0-5.4,13.31.94.94,0,0,0,.59.2,1,1,0,0,0,.59-1.81,5.41,5.41,0,0,1,4.64-9.58,1,1,0,0,0,1.22-.68c1-3.29,2.39-7,5.2-9.26,2.5-2,6.72-2.65,9.08-.26A2.41,2.41,0,0,0,64,39a1.42,1.42,0,0,0,1.13-1,1.55,1.55,0,0,0-.38-1.57,1.23,1.23,0,0,0-1.31-.21,1.31,1.31,0,0,0-.34.21,7.67,7.67,0,0,0-6.44-1.83c1.42-9.91,3.19-18.59,9.09-24.75C70.54,4.84,78,2,86.19,2h.71c8.39.17,16.58,3.12,22.77,5.67,6.91,2.85,14.65,6.62,19.61,13.06,4.35,5.66,6.38,14.63,2,21.08a10.34,10.34,0,0,0-5.79-1.13,1,1,0,0,0-.89,1.11,1,1,0,0,0,1.11.88A8.14,8.14,0,0,1,134,54.31a1,1,0,0,0,.47,1.34,1.07,1.07,0,0,0,.43.09,1,1,0,0,0,.9-.56,10.26,10.26,0,0,0-.85-10.26,9.58,9.58,0,0,0-1.55-1.69,13.88,13.88,0,0,1,5.15-1A14.53,14.53,0,0,1,149.37,47a14.7,14.7,0,0,1,1,17.32,1,1,0,0,0,0,1.07,1,1,0,0,0,.95.49,6.21,6.21,0,0,1,5.44,2.61,8.72,8.72,0,0,1,1.8,7.18c-1.18,5.18-6.23,8.39-10.57,9.67a1,1,0,0,0-.68.72c-2.06,8.1-10.4,14.45-19,14.45a17.1,17.1,0,0,1-2.87-.24L124,100a14.81,14.81,0,0,0-4.57-.46c-2.44.25-4.48,1.55-6.45,2.81l-1.16.74A30.23,30.23,0,0,1,96,107.35c-10.42,0-20.39-4.85-26-12.65a1,1,0,0,0-.69-.41h-.12a1,1,0,0,0-.65.24,28.49,28.49,0,0,1-18.3,6.65,27.12,27.12,0,0,1-7-.9A28.19,28.19,0,0,1,25,84.71a11.81,11.81,0,0,0,5.5,1.36,11.2,11.2,0,0,0,4-.72,1,1,0,0,0,.59-1.29,1,1,0,0,0-1.29-.58A9.44,9.44,0,0,1,21,73.68a1,1,0,0,0-.9-1.1,1,1,0,0,0-1.09.89,11.67,11.67,0,0,0,3.16,9.11,12,12,0,0,1-8.55,3.32c-4.53,0-8.55-2.12-10.47-5.55a11.16,11.16,0,0,1,.43-10.79A10.43,10.43,0,0,1,12.09,63.86Z"/><path class="cls-3" d="M82.24,84.94a1,1,0,1,0-1.81.85A12,12,0,0,0,100,89.09c2.27,2,5.83,2.16,8.48,1.09,3-1.21,5.27-3.64,7.26-5.78A1,1,0,0,0,114.24,83c-1.84,2-3.93,4.24-6.53,5.29-2.23.9-5.42.74-6.94-1.32a1,1,0,0,0-1.59,0,10,10,0,0,1-16.94-2Z"/><path class="cls-3" d="M78.18,15.89a1,1,0,0,0,.75-.34,10.43,10.43,0,0,1,10.84-3,1,1,0,0,0,.63-1.9,12.45,12.45,0,0,0-13,3.54,1,1,0,0,0,.75,1.66Z"/></g></g></svg>