<svg xmlns="http://www.w3.org/2000/svg" viewBox="0 0 234.39 100.79"><defs><style>.cls-1{fill:#fff;}.cls-2{fill:#c7eafb;}.cls-3{fill:#6fbae7;}</style></defs><g id="Layer_2" data-name="Layer 2"><g id="Object"><path class="cls-1" d="M226.9,36.89c-.16-10-10.28-17-19.27-17a15.18,15.18,0,0,0-8.8,2.67,1,1,0,0,1-1.57-.75,20.26,20.26,0,0,0-14.5-17.79,18.58,18.58,0,0,0-4.91-.65A20.28,20.28,0,0,0,161.22,12a1,1,0,0,1-.81.44,1.07,1.07,0,0,1-.83-.41C155,5.74,147,2,138.15,2c-9.31,0-17.6,4-22.19,10.81a1,1,0,0,1-.21.21c3.79-.76,7.49.1,9.83,2.35a1,1,0,0,1-1.39,1.44c-2.42-2.32-6.13-2.39-8.81-1.67-3.22.86-6.06,2.83-8.81,4.73A1,1,0,0,1,106,20a1,1,0,0,1-.82-.43,1,1,0,0,1,.25-1.39c2.76-1.9,5.88-4.06,9.44-5h0a.76.76,0,0,1-.16,0C108.08,10.26,100.54,7,92.85,7h-.29C85.47,7,77.14,10.92,75,18.2a1,1,0,0,1-.72.68,1,1,0,0,1-.94-.25A19.55,19.55,0,0,0,59.39,13.3c-9.19,0-17.63,5.25-20.51,12.77a1,1,0,0,1-.58.58,1,1,0,0,1-.82,0,8.67,8.67,0,0,0-4.07-1,12.41,12.41,0,0,0-9.21,4.57,9.6,9.6,0,0,0-2.32,7.94,1,1,0,0,1-.2.8,1,1,0,0,1-.73.38c-9.76.55-16.31,10.4-18.26,19.32C1.69,63.19,1.78,66.9,3,70c2.6,6.77,10.55,9.85,16.84,9.85,7.28,0,14.4-3,20.69-5.74a1,1,0,0,1,.82,0,1,1,0,0,1,.54.62,25.14,25.14,0,0,0,17.25,17,24,24,0,0,0,6.24.82,25.18,25.18,0,0,0,17.22-6.76,1,1,0,0,1,.69-.28h.14a1,1,0,0,1,.72.48c4.78,7.92,14.29,12.84,24.8,12.84,8.58,0,16.32-3.31,21.25-9.1a1,1,0,0,1,1.46-.06c4.89,4.88,11.81,7.56,19.49,7.56,10,0,19.21-4.62,24.09-12.07a1,1,0,0,1,1.32-.33,24.18,24.18,0,0,0,11.77,2.95c12.53,0,24.22-8.36,27.19-19.46a1,1,0,0,1,.88-.74,18,18,0,0,0,15.07-11.48,18,18,0,0,0-4.22-18.47A1,1,0,0,1,226.9,36.89Zm-154.61,39a.62.62,0,0,1-.19,0,22.2,22.2,0,0,0-5-.17,23.45,23.45,0,0,1-5.72-.26,8.65,8.65,0,0,1-5.87-4.71,5.07,5.07,0,0,1-.31-3.14A15.66,15.66,0,0,1,42.73,56.87a15.61,15.61,0,0,1,5.58-16.62,1,1,0,0,1,1.39.21,1,1,0,0,1-.21,1.4,13.19,13.19,0,0,0,7.14,23.82,1,1,0,0,1,.8,1.54,2.75,2.75,0,0,0-.12,2.68,6.56,6.56,0,0,0,4.43,3.53,21,21,0,0,0,5.23.22,23.77,23.77,0,0,1,5.51.21,1,1,0,0,1-.19,2Zm93.37,1a9.66,9.66,0,0,1-7.9,3.93,9,9,0,0,1-4.84-1.35,1,1,0,0,1-.31-1.38,1,1,0,0,1,1.38-.31,7.41,7.41,0,0,0,8.45-12.15A1,1,0,0,1,163.65,64,9.75,9.75,0,0,1,165.66,76.85Zm47.15-26.23a1,1,0,0,1-.6.2,1,1,0,0,1-.8-.4,1,1,0,0,1,.2-1.4c2.24-1.68,2.49-4.59,2-6.76s-2-4.67-4.78-5.19L208.1,37a5.55,5.55,0,0,1-2.9-1,5.64,5.64,0,0,1-1.53-2.48l-.13-.34a13.63,13.63,0,0,0-19.61-5.7,1,1,0,1,1-1.17-1.62,15.62,15.62,0,0,1,22.63,6.57l.14.36a3.94,3.94,0,0,0,.94,1.66,4,4,0,0,0,1.92.58l.8.13c3.1.58,5.53,3.15,6.36,6.7S215.32,48.73,212.81,50.62Z"/><path class="cls-2" d="M220.3,57.34c-4.13.84-9.4.74-11.4-3a24.29,24.29,0,0,1-38.69,2.36c-5.26,3.43-10.81,6.72-17,7.74s-13.2-.71-16.93-5.75a31.86,31.86,0,0,1-50.16,2,55.61,55.61,0,0,1-40.49-2.05,13.63,13.63,0,0,0,11,7.06,1,1,0,0,1,.8,1.54,2.75,2.75,0,0,0-.12,2.68,6.56,6.56,0,0,0,4.43,3.53,21,21,0,0,0,5.23.22,23.77,23.77,0,0,1,5.51.21,1,1,0,0,1-.19,2,.62.62,0,0,1-.19,0,22.2,22.2,0,0,0-5-.17,23.45,23.45,0,0,1-5.72-.26,8.65,8.65,0,0,1-5.87-4.71,5.07,5.07,0,0,1-.31-3.14A15.7,15.7,0,0,1,42.86,57.27c-.36-.19-.72-.36-1.07-.56C31.86,67.15,15.36,70.08,2,65A14.68,14.68,0,0,0,3,70c2.6,6.77,10.55,9.85,16.84,9.85,7.28,0,14.4-3,20.69-5.74a1,1,0,0,1,.82,0,1,1,0,0,1,.54.62,25.14,25.14,0,0,0,17.25,17,24,24,0,0,0,6.24.82,25.18,25.18,0,0,0,17.22-6.76,1,1,0,0,1,.69-.28h.14a1,1,0,0,1,.72.48c4.78,7.92,14.29,12.84,24.8,12.84,8.58,0,16.32-3.31,21.25-9.1a1,1,0,0,1,1.46-.06c4.89,4.88,11.81,7.56,19.49,7.56,10,0,19.21-4.62,24.09-12.07a1,1,0,0,1,1.32-.33,24.18,24.18,0,0,0,11.77,2.95c12.53,0,24.22-8.36,27.19-19.46a1,1,0,0,1,.88-.74,18,18,0,0,0,15.07-11.48,16.37,16.37,0,0,0,.66-2.4A60.73,60.73,0,0,1,220.3,57.34ZM165.66,76.85a9.66,9.66,0,0,1-7.9,3.93,9,9,0,0,1-4.84-1.35,1,1,0,0,1-.31-1.38,1,1,0,0,1,1.38-.31,7.41,7.41,0,0,0,8.45-12.15A1,1,0,0,1,163.65,64,9.75,9.75,0,0,1,165.66,76.85Z"/><path class="cls-3" d="M207.63,17.92a17.48,17.48,0,0,0-8.55,2.15,22.41,22.41,0,0,0-15.8-17.95,20.43,20.43,0,0,0-5.43-.72,22.39,22.39,0,0,0-17.48,8.36C155.3,3.62,147.11,0,138.15,0c-9.66,0-18.33,4.1-23.37,11-6.64-2.9-14.12-6-21.93-6h-.31c-7.14.08-15.83,3.63-19,11.21A21.84,21.84,0,0,0,59.39,11.3c-9.6,0-18.47,5.32-22,13.07a10.75,10.75,0,0,0-4-.75,14.45,14.45,0,0,0-10.75,5.3,11.73,11.73,0,0,0-2.89,8.49C9.56,38.63,2.78,48.89.74,58.2c-1.09,5-1,9,.34,12.46C4,78.36,12.6,81.8,19.83,81.8S34,79,40.25,76.33A27.24,27.24,0,0,0,58.57,93.61a25.75,25.75,0,0,0,6.76.89A27.32,27.32,0,0,0,83,88c5.31,7.92,15.1,12.79,25.86,12.79,8.77,0,16.75-3.27,22.06-9a29.42,29.42,0,0,0,20.14,7.41c10.31,0,19.89-4.66,25.24-12.22a26.38,26.38,0,0,0,11.94,2.77c13.16,0,25.46-8.67,28.93-20.27A20.11,20.11,0,0,0,233.3,56.74a20.08,20.08,0,0,0-4.42-20.29C228.45,25.51,217.43,17.92,207.63,17.92Zm23.79,38.14a18,18,0,0,1-15.07,11.48,1,1,0,0,0-.88.74c-3,11.1-14.66,19.46-27.19,19.46a24.18,24.18,0,0,1-11.77-2.95,1,1,0,0,0-1.32.33c-4.88,7.45-14.11,12.07-24.09,12.07-7.68,0-14.6-2.68-19.49-7.56a1,1,0,0,0-1.46.06c-4.93,5.79-12.67,9.1-21.25,9.1-10.51,0-20-4.92-24.8-12.84a1,1,0,0,0-.72-.48h-.14a1,1,0,0,0-.69.28A25.18,25.18,0,0,1,65.33,92.5a24,24,0,0,1-6.24-.82,25.14,25.14,0,0,1-17.25-17,1,1,0,0,0-.54-.62,1,1,0,0,0-.82,0c-6.29,2.69-13.41,5.73-20.69,5.74C13.5,79.8,5.55,76.72,3,70c-1.17-3-1.26-6.76-.26-11.32C4.64,49.71,11.19,39.86,21,39.31a1,1,0,0,0,.73-.38,1,1,0,0,0,.2-.8,9.6,9.6,0,0,1,2.32-7.94,12.41,12.41,0,0,1,9.21-4.57,8.67,8.67,0,0,1,4.07,1,1,1,0,0,0,.82,0,1,1,0,0,0,.58-.58C41.76,18.55,50.2,13.3,59.39,13.3A19.55,19.55,0,0,1,73.3,18.63a1,1,0,0,0,.94.25A1,1,0,0,0,75,18.2C77.14,10.92,85.47,7,92.56,7h.29c7.69,0,15.23,3.3,21.88,6.21a.76.76,0,0,0,.16,0h0c-3.56.95-6.68,3.11-9.44,5a1,1,0,0,0-.25,1.39A1,1,0,0,0,106,20a1,1,0,0,0,.57-.17c2.75-1.9,5.59-3.87,8.81-4.73,2.68-.72,6.39-.65,8.81,1.67a1,1,0,0,0,1.39-1.44c-2.34-2.25-6-3.11-9.83-2.35a1,1,0,0,0,.21-.21C120.55,6,128.84,2,138.15,2,147,2,155,5.74,159.58,12a1.07,1.07,0,0,0,.83.41,1,1,0,0,0,.81-.44A20.28,20.28,0,0,1,177.85,3.4a18.58,18.58,0,0,1,4.91.65,20.26,20.26,0,0,1,14.5,17.79,1,1,0,0,0,1.57.75,15.18,15.18,0,0,1,8.8-2.67c9,0,19.11,7,19.27,17a1,1,0,0,0,.3.7A18,18,0,0,1,231.42,56.06Z"/><path class="cls-3" d="M72.48,73.86A23.77,23.77,0,0,0,67,73.65a21,21,0,0,1-5.23-.22,6.56,6.56,0,0,1-4.43-3.53,2.75,2.75,0,0,1,.12-2.68,1,1,0,0,0-.8-1.54,13.19,13.19,0,0,1-7.14-23.82,1,1,0,0,0,.21-1.4,1,1,0,0,0-1.39-.21,15.61,15.61,0,0,0-5.58,16.62A15.66,15.66,0,0,0,55.15,67.54a5.07,5.07,0,0,0,.31,3.14,8.65,8.65,0,0,0,5.87,4.71,23.45,23.45,0,0,0,5.72.26,22.2,22.2,0,0,1,5,.17.62.62,0,0,0,.19,0,1,1,0,0,0,.19-2Z"/><path class="cls-3" d="M163.65,64a1,1,0,0,0-1.21,1.59A7.41,7.41,0,0,1,154,77.74a1,1,0,0,0-1.38.31,1,1,0,0,0,.31,1.38,9,9,0,0,0,4.84,1.35A9.33,9.33,0,0,0,163.65,64Z"/><path class="cls-3" d="M209.19,35.11l-.8-.13a4,4,0,0,1-1.92-.58,3.94,3.94,0,0,1-.94-1.66l-.14-.36a15.62,15.62,0,0,0-22.63-6.57,1,1,0,1,0,1.17,1.62,13.63,13.63,0,0,1,19.61,5.7l.13.34A5.64,5.64,0,0,0,205.2,36a5.55,5.55,0,0,0,2.9,1l.72.11c2.75.52,4.27,3,4.78,5.19s.25,5.08-2,6.76a1,1,0,0,0-.2,1.4,1,1,0,0,0,.8.4,1,1,0,0,0,.6-.2c2.51-1.89,3.56-5.27,2.74-8.81S212.29,35.69,209.19,35.11Z"/></g></g></svg>