<svg xmlns="http://www.w3.org/2000/svg" viewBox="0 0 176.81 105.53"><defs><style>.cls-1{fill:#fff;}.cls-2{fill:#c7eafb;}.cls-3{fill:#6fbae7;}</style></defs><g id="Layer_2" data-name="Layer 2"><g id="Object"><path class="cls-1" d="M163.84,41.29A10.79,10.79,0,0,0,156.47,44a1,1,0,0,1-1.56-1.2,11,11,0,0,0,.29-9A15.08,15.08,0,0,0,147,25.19c-6.21-2.47-14.34-1.05-21.31,3.56h0a19.09,19.09,0,0,1,7,6.54,35.19,35.19,0,0,1,2.56,5.33,9.53,9.53,0,0,1,10.07,5.14,10.18,10.18,0,0,1-2.64,11.79,1,1,0,0,1-.64.24,1,1,0,0,1-.65-1.76,8.13,8.13,0,0,0,2.12-9.41,7.47,7.47,0,0,0-8.57-3.86,1,1,0,0,1-1.23-.59,36.27,36.27,0,0,0-2.72-5.82,18.29,18.29,0,0,0-21.3-7.1,1,1,0,0,1-.72-1.86,19.82,19.82,0,0,1,15.21.6,1,1,0,0,1,0-.38c2.07-6.67-2.91-13.53-7.8-17.38A39.44,39.44,0,0,0,92,2a37.91,37.91,0,0,0-13.5,2.42A39.63,39.63,0,0,0,54,33.81a1,1,0,0,1-.59.73,1,1,0,0,1-.94-.07,21.91,21.91,0,0,0-11.74-3.36,21.53,21.53,0,0,0-9.91,2.37A22,22,0,0,0,19.18,51.75a1,1,0,0,1-.5.82,1,1,0,0,1-.95,0,9.06,9.06,0,0,0-4.11-.94c-5.21,0-10.31,4-11.37,8.85C.85,66.94,5.71,74.19,12.43,75.73a13.28,13.28,0,0,0,3,.34,16.71,16.71,0,0,0,14-8.17,14.55,14.55,0,0,1-4.92-8.28,1,1,0,0,1,.79-1.17,1,1,0,0,1,1.17.8,12.3,12.3,0,0,0,21,6.15,1,1,0,0,1,1.41,0,1,1,0,0,1,0,1.42,14.65,14.65,0,0,1-10.53,4.43,13.76,13.76,0,0,1-3.87-.55,13.38,13.38,0,0,1-2.71-1.13A24.93,24.93,0,0,0,46.74,88a23.53,23.53,0,0,0,8.82,1.67,24.9,24.9,0,0,0,16-5.81,1,1,0,0,1,.66-.24h.2a1,1,0,0,1,.69.54A35.65,35.65,0,0,0,105.9,103.5,35.89,35.89,0,0,0,136.17,83c-.62.06-1.24.1-1.86.1a18.91,18.91,0,0,1-8.13-1.8,1,1,0,1,1,.86-1.8A17.4,17.4,0,0,0,144,78.23a1,1,0,0,1,1.12,1.66,18.72,18.72,0,0,1-4.63,2.25,21.18,21.18,0,0,0,9.14,2.07,20.46,20.46,0,0,0,10.52-2.83A20.92,20.92,0,0,0,170,62a1,1,0,0,1,.41-.9,11.55,11.55,0,0,0,2.08-15.94A11.18,11.18,0,0,0,163.84,41.29Zm-92.9-17.2a9,9,0,0,0-8.37,5.11,3.11,3.11,0,0,0-.3,2.29,1.06,1.06,0,0,0,.68.59h0a6.53,6.53,0,0,1,.76-.2,1,1,0,0,1,1.11.59,1,1,0,0,1-.34,1.21,2.38,2.38,0,0,1-1.2.42,5.07,5.07,0,0,0-2.65,3.25,4.8,4.8,0,0,0,1,4.82,1,1,0,0,1-.7,1.72,1,1,0,0,1-.7-.29,6.77,6.77,0,0,1-1.47-6.83,7.36,7.36,0,0,1,2.3-3.58,3.23,3.23,0,0,1-.64-1,4.8,4.8,0,0,1,.35-3.88A11,11,0,0,1,71,22.09a1,1,0,0,1-.09,2Z"/><path class="cls-2" d="M170,62a1,1,0,0,1,.41-.9,11,11,0,0,0,4.27-7.55c0-.06,0-.12,0-.19-2.48,1.76-6,2.39-8.47.71-.31,5.7-3.15,11.46-8.14,14.24S146,70.11,142.75,65.45c-5.36,7.6-16.37,8.09-25.58,6.81-6.28-.87-14.09-4.12-13.69-10.45a25,25,0,0,1-40-6,30.37,30.37,0,0,1-31.22-.4,18.53,18.53,0,0,1-5.41,5.25A12.28,12.28,0,0,0,47.47,65.4a1,1,0,0,1,1.41,0,1,1,0,0,1,0,1.42,14.65,14.65,0,0,1-10.53,4.43,13.76,13.76,0,0,1-3.87-.55,13.38,13.38,0,0,1-2.71-1.13A24.93,24.93,0,0,0,46.74,88a23.53,23.53,0,0,0,8.82,1.67,24.9,24.9,0,0,0,16-5.81,1,1,0,0,1,.66-.24h.2a1,1,0,0,1,.69.54A35.65,35.65,0,0,0,105.9,103.5,35.89,35.89,0,0,0,136.17,83c-.62.06-1.24.1-1.86.1a18.91,18.91,0,0,1-8.13-1.8,1,1,0,1,1,.86-1.8A17.4,17.4,0,0,0,144,78.23a1,1,0,0,1,1.12,1.66,18.72,18.72,0,0,1-4.63,2.25,21.18,21.18,0,0,0,9.14,2.07,20.46,20.46,0,0,0,10.52-2.83A20.92,20.92,0,0,0,170,62Z"/><path class="cls-2" d="M12.43,75.73a13.28,13.28,0,0,0,3,.34,16.71,16.71,0,0,0,14-8.17,14.83,14.83,0,0,1-4.34-6.2,23.38,23.38,0,0,1-22.87-1C.93,67.05,5.76,74.2,12.43,75.73Z"/><path class="cls-3" d="M163.84,39.29a13.4,13.4,0,0,0-6.08,1.41,13.67,13.67,0,0,0-.69-7.63,16.86,16.86,0,0,0-9.36-9.74c-6.21-2.47-14.1-1.47-21.16,2.52.76-6.82-4.13-13.38-9-17.18A41.39,41.39,0,0,0,92,0,40.07,40.07,0,0,0,77.82,2.55,41.77,41.77,0,0,0,52.33,32a23.65,23.65,0,0,0-35,18.22,11.1,11.1,0,0,0-3.66-.59C7.42,49.67,1.56,54.25.29,60.1-1.35,67.66,4.12,75.88,12,77.68a15.38,15.38,0,0,0,3.47.39A18.74,18.74,0,0,0,30,70.66,27,27,0,0,0,46,89.83a25.56,25.56,0,0,0,9.56,1.81A27.15,27.15,0,0,0,72,86.14a37.78,37.78,0,0,0,32.59,19.39q.72,0,1.44,0a37.94,37.94,0,0,0,32.3-22.23,22.69,22.69,0,0,0,11.32,2.94,22.43,22.43,0,0,0,11.55-3.11,23,23,0,0,0,10.91-20.73,13.17,13.17,0,0,0,4.63-8.57,13,13,0,0,0-2.63-9.92A13.22,13.22,0,0,0,163.84,39.29ZM174.7,53.54a11,11,0,0,1-4.27,7.55,1,1,0,0,0-.41.9,20.92,20.92,0,0,1-9.9,19.39,20.46,20.46,0,0,1-10.52,2.83,21.18,21.18,0,0,1-9.14-2.07,18.72,18.72,0,0,0,4.63-2.25A1,1,0,0,0,144,78.23,17.4,17.4,0,0,1,127,79.53a1,1,0,1,0-.86,1.8,18.91,18.91,0,0,0,8.13,1.8c.62,0,1.24,0,1.86-.1A35.89,35.89,0,0,1,105.9,103.5,35.65,35.65,0,0,1,73.16,84.14a1,1,0,0,0-.69-.54h-.2a1,1,0,0,0-.66.24,24.9,24.9,0,0,1-16,5.81A23.53,23.53,0,0,1,46.74,88,24.93,24.93,0,0,1,31.81,69.53a13.38,13.38,0,0,0,2.71,1.13,13.76,13.76,0,0,0,3.87.55,14.65,14.65,0,0,0,10.53-4.43,1,1,0,0,0,0-1.42,1,1,0,0,0-1.41,0,12.3,12.3,0,0,1-21-6.15,1,1,0,0,0-1.17-.8,1,1,0,0,0-.79,1.17,14.55,14.55,0,0,0,4.92,8.28,16.71,16.71,0,0,1-14,8.17,13.28,13.28,0,0,1-3-.34C5.71,74.19.85,66.94,2.25,60.52c1.06-4.88,6.16-8.85,11.37-8.85a9.06,9.06,0,0,1,4.11.94,1,1,0,0,0,.95,0,1,1,0,0,0,.5-.82A22,22,0,0,1,30.84,33.48a21.53,21.53,0,0,1,9.91-2.37,21.91,21.91,0,0,1,11.74,3.36,1,1,0,0,0,.94.07,1,1,0,0,0,.59-.73A39.63,39.63,0,0,1,78.53,4.42,37.91,37.91,0,0,1,92,2a39.44,39.44,0,0,1,24.32,8.24c4.89,3.85,9.87,10.71,7.8,17.38a1,1,0,0,0,0,.38,19.82,19.82,0,0,0-15.21-.6,1,1,0,0,0,.72,1.86,18.29,18.29,0,0,1,21.3,7.1,36.27,36.27,0,0,1,2.72,5.82,1,1,0,0,0,1.23.59,7.47,7.47,0,0,1,8.57,3.86A8.13,8.13,0,0,1,141.33,56,1,1,0,0,0,142,57.8a1,1,0,0,0,.64-.24,10.18,10.18,0,0,0,2.64-11.79,9.53,9.53,0,0,0-10.07-5.14,35.19,35.19,0,0,0-2.56-5.33,19.09,19.09,0,0,0-7-6.54h0c7-4.61,15.1-6,21.31-3.56a15.08,15.08,0,0,1,8.23,8.58,11,11,0,0,1-.29,9,1,1,0,0,0,1.56,1.2,10.79,10.79,0,0,1,7.37-2.71,11.18,11.18,0,0,1,8.67,3.86A11,11,0,0,1,174.7,53.54Z"/><path class="cls-3" d="M71,22.09a11,11,0,0,0-10.27,6.27,4.8,4.8,0,0,0-.35,3.88,3.23,3.23,0,0,0,.64,1,7.36,7.36,0,0,0-2.3,3.58,6.77,6.77,0,0,0,1.47,6.83,1,1,0,0,0,1.42,0,1,1,0,0,0,0-1.42,4.8,4.8,0,0,1-1-4.82,5.07,5.07,0,0,1,2.65-3.25,2.38,2.38,0,0,0,1.2-.42,1,1,0,0,0,.34-1.21,1,1,0,0,0-1.11-.59,6.53,6.53,0,0,0-.76.2h0a1.06,1.06,0,0,1-.68-.59,3.11,3.11,0,0,1,.3-2.29,9,9,0,0,1,8.37-5.11,1,1,0,0,0,.09-2Z"/></g></g></svg>