<svg xmlns="http://www.w3.org/2000/svg" viewBox="0 0 181 96.51"><defs><style>.cls-1{fill:#fff;}.cls-2{fill:#c7eafb;}.cls-3{fill:#6fbae7;}</style></defs><g id="Layer_2" data-name="Layer 2"><g id="Object"><path class="cls-1" d="M151.08,49.68a26.11,26.11,0,0,0-11.6-2.48,37.72,37.72,0,0,0-5.11.37,14,14,0,0,1,3,1.8,14.86,14.86,0,0,1,5.39,13.57,1,1,0,0,1-1,.85h-.14a1,1,0,0,1-.85-1.13,12.64,12.64,0,0,0-17.12-13.59,1,1,0,0,1-.73-1.86,14.75,14.75,0,0,1,9.12-.47,1.45,1.45,0,0,1,.07-.35c4.26-10.42-5.19-21.61-8.18-24.79C112.34,9.32,96.48,2,81.46,2A44.47,44.47,0,0,0,71.11,3.2C51.77,7.8,37.77,27.88,41.35,45.61a14.88,14.88,0,0,1,11.76,0,1,1,0,1,1-.83,1.82A12.5,12.5,0,0,0,35.2,62.64a1,1,0,0,1-1.51,1.13,3.27,3.27,0,0,0-2.87-.28,4.11,4.11,0,0,0-2.6,2.39,5.45,5.45,0,0,0,2.53,6.17,1,1,0,0,1-.53,1.86,1,1,0,0,1-.52-.15,7.53,7.53,0,0,1-3.36-8.55,6,6,0,0,1,3.85-3.62,5.66,5.66,0,0,1,2.65-.24A15,15,0,0,1,37.49,48,13,13,0,0,1,39,46.87a18.87,18.87,0,0,0-27.06,16.7,1,1,0,0,1-1,1A8.31,8.31,0,0,0,4.7,67.72a11.29,11.29,0,0,0-2.59,8.79C3.1,82.75,8.57,87,13.36,89c5.65,2.26,11.89,2.5,17.93,2.73l50.23,1.89c12.19.46,24.79.94,37.22.94h0c11.28,0,21.26-.4,30.5-1.21,6.86-.6,14.71-1.58,21-5.56,5.62-3.59,10.3-10.86,8.36-17.84-1.21-4.33-5.85-7.73-10.58-7.73a7.45,7.45,0,0,0-5.31,2,1,1,0,0,1-1.06.21,1,1,0,0,1-.64-.88C160.71,58,156.83,52.52,151.08,49.68ZM66.84,13.56a13.19,13.19,0,0,1,15.62-.2,1,1,0,0,1-1.2,1.6,11.13,11.13,0,0,0-13.18.17,1,1,0,0,1-.62.22,1,1,0,0,1-.62-1.79ZM88,85.49a11.4,11.4,0,0,1-5.36,1.29,12.67,12.67,0,0,1-10.08-4.9,12.39,12.39,0,0,1-9.81,1.58,12.15,12.15,0,0,1-8.52-6.84A1,1,0,1,1,56,75.85a10.81,10.81,0,0,0,16.09,3.83,1,1,0,0,1,1.5.26A10.46,10.46,0,0,0,87,83.72,1,1,0,0,1,88,85.49Zm68.26-8.95c-.08,5.72-5.67,9.26-10.54,11.7a1,1,0,0,1-.45.11,1,1,0,0,1-.45-1.9c4.36-2.19,9.38-5.3,9.44-9.94a1,1,0,0,1,1-1h0A1,1,0,0,1,156.23,76.54Z"/><path class="cls-2" d="M28.48,69.36l0,0a6.08,6.08,0,0,0,1.5,2.07A13.82,13.82,0,0,1,28.48,69.36Z"/><path class="cls-2" d="M172.41,81.63c-8,1-17.24-3.64-18.54-11.6a21,21,0,0,1-23.26,3.29,7.73,7.73,0,0,0-3.56-1.24,7.41,7.41,0,0,0-3.54,1.58c-10.31,6.7-25.08,5.49-34.16-2.8-9.2,9.9-27.47,8.78-35.39-2.15A14.37,14.37,0,0,1,31.2,72.77a1,1,0,0,1-.12.66,1,1,0,0,1-.86.48,1,1,0,0,1-.52-.15,7.88,7.88,0,0,1-2.88-3.16c-5.41,4-11.27,7.88-18,8.15a14.28,14.28,0,0,1-6.58-1.41C3.61,83.13,8.79,87.11,13.36,89c5.65,2.26,11.89,2.5,17.93,2.73l50.23,1.89c12.19.46,24.79.94,37.22.94h0c11.28,0,21.26-.4,30.5-1.21,6.86-.6,14.71-1.58,21-5.56a20.47,20.47,0,0,0,6.73-7.15A24.52,24.52,0,0,1,172.41,81.63ZM88,85.49a11.4,11.4,0,0,1-5.36,1.29,12.67,12.67,0,0,1-10.08-4.9,12.39,12.39,0,0,1-9.81,1.58,12.15,12.15,0,0,1-8.52-6.84A1,1,0,1,1,56,75.85a10.81,10.81,0,0,0,16.09,3.83,1,1,0,0,1,1.5.26A10.46,10.46,0,0,0,87,83.72,1,1,0,0,1,88,85.49Zm57.72,2.75a1,1,0,0,1-.45.11,1,1,0,0,1-.45-1.9c4.36-2.19,9.38-5.3,9.44-9.94a1,1,0,0,1,1-1h0a1,1,0,0,1,1,1C156.15,82.26,150.56,85.8,145.69,88.24Z"/><path class="cls-3" d="M152,47.89c-4.87-2.4-10.87-3.21-17.48-2.36,2.16-7.53-1.17-16.85-9.14-25.31C113.43,7.56,97,0,81.46,0A46.8,46.8,0,0,0,70.65,1.25,43.06,43.06,0,0,0,46,18.26c-5.87,8.28-8.26,17.6-6.83,26.48a21.3,21.3,0,0,0-18.75,1A21.28,21.28,0,0,0,10,62.61a10.49,10.49,0,0,0-6.8,3.82,13.34,13.34,0,0,0-3,10.39c1.12,7.07,7.18,11.86,12.48,14,6,2.4,12.68,2.65,18.6,2.88l50.22,1.89c12.21.46,24.83.94,37.3.94h0c11.34,0,21.38-.4,30.68-1.22,7.1-.62,15.22-1.64,21.86-5.87,6.24-4,11.41-12.14,9.21-20.06-1.44-5.15-6.93-9.19-12.51-9.19a9.7,9.7,0,0,0-5.21,1.44C161.81,56,157.73,50.73,152,47.89Zm9.64,16.54a1,1,0,0,0,1.06-.21,7.45,7.45,0,0,1,5.31-2c4.73,0,9.37,3.4,10.58,7.73,1.94,7-2.74,14.25-8.36,17.84-6.25,4-14.1,5-21,5.56-9.24.81-19.22,1.21-30.5,1.21h0c-12.43,0-25-.48-37.22-.94L31.29,91.68c-6-.23-12.28-.47-17.93-2.73C8.57,87,3.1,82.75,2.11,76.51A11.29,11.29,0,0,1,4.7,67.72a8.31,8.31,0,0,1,6.24-3.16,1,1,0,0,0,1-1,19.21,19.21,0,0,1,9.46-16.06A19.28,19.28,0,0,1,39,46.87,13,13,0,0,0,37.49,48a15,15,0,0,0-4.65,13.33,5.66,5.66,0,0,0-2.65.24,6,6,0,0,0-3.85,3.62,7.53,7.53,0,0,0,3.36,8.55,1,1,0,0,0,.52.15,1,1,0,0,0,.53-1.86,5.45,5.45,0,0,1-2.53-6.17,4.11,4.11,0,0,1,2.6-2.39,3.27,3.27,0,0,1,2.87.28,1,1,0,0,0,1.51-1.13A12.5,12.5,0,0,1,52.28,47.48a1,1,0,1,0,.83-1.82,14.88,14.88,0,0,0-11.76,0C37.77,27.88,51.77,7.8,71.11,3.2A44.47,44.47,0,0,1,81.46,2c15,0,30.88,7.32,42.44,19.59,3,3.18,12.44,14.37,8.18,24.79a1.45,1.45,0,0,0-.07.35,14.75,14.75,0,0,0-9.12.47,1,1,0,0,0,.73,1.86,12.64,12.64,0,0,1,17.12,13.59,1,1,0,0,0,.85,1.13h.14a1,1,0,0,0,1-.85,14.86,14.86,0,0,0-5.39-13.57,14,14,0,0,0-3-1.8,37.72,37.72,0,0,1,5.11-.37,26.11,26.11,0,0,1,11.6,2.48c5.75,2.84,9.63,8.28,9.89,13.87A1,1,0,0,0,161.61,64.43Z"/><path class="cls-3" d="M87,83.72a10.46,10.46,0,0,1-13.4-3.78,1,1,0,0,0-1.5-.26A10.81,10.81,0,0,1,56,75.85a1,1,0,1,0-1.84.77,12.15,12.15,0,0,0,8.52,6.84,12.39,12.39,0,0,0,9.81-1.58,12.67,12.67,0,0,0,10.08,4.9A11.4,11.4,0,0,0,88,85.49,1,1,0,0,0,87,83.72Z"/><path class="cls-3" d="M155.23,75.52a1,1,0,0,0-1,1c-.06,4.64-5.08,7.75-9.44,9.94a1,1,0,0,0,.45,1.9,1,1,0,0,0,.45-.11c4.87-2.44,10.46-6,10.54-11.7a1,1,0,0,0-1-1Z"/><path class="cls-3" d="M67.46,15.35a1,1,0,0,0,.62-.22A11.13,11.13,0,0,1,81.26,15a1,1,0,0,0,1.2-1.6,13.19,13.19,0,0,0-15.62.2,1,1,0,0,0,.62,1.79Z"/></g></g></svg>