<svg xmlns="http://www.w3.org/2000/svg" viewBox="0 0 283.37 122.91"><defs><style>.cls-1{fill:#fff;}.cls-2{fill:#c7eafb;}.cls-3{fill:#6fbae7;}</style></defs><g id="Layer_2" data-name="Layer 2"><g id="Object"><path class="cls-1" d="M31.49,54.32A60.91,60.91,0,0,0,16.25,86.06a1,1,0,0,1-1.13.84,10.88,10.88,0,0,0-1.52-.1,11.79,11.79,0,0,0-9.59,5,11.79,11.79,0,0,0-.65,12.11,14.74,14.74,0,0,0,3.75,4.33,19.73,19.73,0,0,0,12.41,4.18,20.18,20.18,0,0,0,14.84-6.14,1,1,0,0,1,1-.27,1,1,0,0,1,.68.85c.84,8.53,10.51,13.57,18.31,12.89,7.13-.61,14.32-4.63,22-12.28a.94.94,0,0,1,.74-.3,1.06,1.06,0,0,1,.72.34,14.48,14.48,0,0,0,10.8,4.64,13.81,13.81,0,0,0,7.94-2.39,1,1,0,0,1,1.26.1A37.61,37.61,0,0,0,123.53,120c1,0,2,0,3-.13a37.57,37.57,0,0,0,26.59-14.79,1,1,0,0,1,.69-.4,1,1,0,0,1,.76.24,48.69,48.69,0,0,0,24.23,11,24.06,24.06,0,0,0,3.67.28c3.16,0,8.79-.66,10.93-5.11a1,1,0,0,1,.78-.55h.12a1,1,0,0,1,.76.35c5.34,6.23,13.9,10,22.88,10a29.21,29.21,0,0,0,18.78-6.48l.57-.48a11.07,11.07,0,0,1,4.54-2.75,6.6,6.6,0,0,1,1.56-.17,15.48,15.48,0,0,1,3.9.68c.42.12.85.23,1.27.33a16.43,16.43,0,0,0,3.66.41,18.46,18.46,0,0,0,16.9-11.14,1,1,0,0,1,.8-.62c4.8-.62,9.1-4.62,10.68-10,1.7-5.72.23-11.64-1.31-15.59-2.64-6.79-8.65-13.65-15.9-13.22a1,1,0,0,1-1-.88c-.81-7-8.13-11.66-14.47-11.66a11.88,11.88,0,0,0-5.65,1.35,6.64,6.64,0,0,1-1.2.71,1,1,0,0,1-1.29-.41,1,1,0,0,1,.31-1.32,12,12,0,0,1,1.08-.66,6.82,6.82,0,0,0,2.1-6.18c-.44-2.92-2.26-5.49-4-7.62-4.1-5.08-10.94-11.68-20.23-14.34a28.58,28.58,0,0,0-7.86-1.1,24.14,24.14,0,0,0-15.61,5.33,1,1,0,0,1-1.42-.14c-4.53-5.68-12.07-9.07-20.18-9.07a25.35,25.35,0,0,0-18.79,7.75,19.13,19.13,0,0,1,9,5.72c2.44-.54,5.36-1.08,8.1-.25,3.07.92,5.76,4.13,4.87,7.41a1,1,0,0,1-1,.74.82.82,0,0,1-.26,0,1,1,0,0,1-.7-1.22c.58-2.13-1.39-4.34-3.52-5-2.46-.74-5.23-.12-7.67.43a1,1,0,0,1-1-.35,16.73,16.73,0,0,0-26.34.35A1,1,0,0,1,135,30.28a19.09,19.09,0,0,1,14.65-7.38h.23a18.23,18.23,0,0,1,3.29.31A55.49,55.49,0,0,0,110,2c-1.16,0-2.33,0-3.48.12a55.47,55.47,0,0,0-43.7,27.77,50.86,50.86,0,0,0-5.36,14.28,1,1,0,0,1-.49.66,1,1,0,0,1-.83.07A15.36,15.36,0,0,0,51,44C44.72,44,37.43,47.88,31.49,54.32Zm196,15.12a10.46,10.46,0,0,1,16.71,9.81h0A8.52,8.52,0,0,1,249,80.79a9.88,9.88,0,0,1,4.16,6.28c.78,4.33-1.3,9.09-5.29,12.11a1,1,0,0,1-.6.2,1,1,0,0,1-.61-1.79c3.35-2.54,5.17-6.62,4.53-10.17a7.85,7.85,0,0,0-3.31-5,6.2,6.2,0,0,0-4.72-1.08,1,1,0,0,1-.94-.31,1,1,0,0,1-.22-1,8.68,8.68,0,0,0-3.36-9.34,8.77,8.77,0,0,0-9.92.27,1,1,0,0,1-1.41-.19A1,1,0,0,1,227.45,69.44Zm-34.38-31c3.29-1.53,7.7-.25,10,2.92a11.67,11.67,0,0,1,1.31,10.4,1,1,0,0,1-1,.69.84.84,0,0,1-.31-.05,1,1,0,0,1-.64-1.26,9.69,9.69,0,0,0-1-8.6,6.44,6.44,0,0,0-7.57-2.29,1,1,0,1,1-.84-1.81ZM96.43,89.7a1,1,0,0,1,1,1,8.76,8.76,0,0,0,13,7.4,1,1,0,0,1,1.07.06,1,1,0,0,1,.4,1,2.22,2.22,0,0,0,.43,1.72,11.77,11.77,0,0,0,12-2.32,1,1,0,0,1,1.42,0,1,1,0,0,1,0,1.41,13.78,13.78,0,0,1-9.38,3.61,13.15,13.15,0,0,1-5-1,1.31,1.31,0,0,1-.34-.24,4.19,4.19,0,0,1-1-1.89,10.75,10.75,0,0,1-14.59-9.74A1,1,0,0,1,96.43,89.7Zm-39.9-30a3.94,3.94,0,0,1,3.14,2.35,2,2,0,0,1-.51,2.11,1,1,0,0,1-1.39-1.44l0,0a2.06,2.06,0,0,0-1.51-1,7.44,7.44,0,0,0-7.89,9.9,1,1,0,0,1-1.27,1.29,3.57,3.57,0,0,0-2.75.25,5.44,5.44,0,0,0-2.66,3.11c-.65,2.09-.27,4.68,1.14,7.7.41.89,1.52,2.93,3,2.93H46a1,1,0,0,1,.1,2h-.19c-1.89,0-3.6-1.44-4.83-4.08-1.62-3.49-2-6.57-1.22-9.15a7.36,7.36,0,0,1,3.67-4.3,5.91,5.91,0,0,1,2.61-.64h0a9.42,9.42,0,0,1,10.42-11Z"/><path class="cls-2" d="M253.16,87.41c.61,4.25-1.46,8.83-5.34,11.77a1,1,0,0,1-.6.2,1,1,0,0,1-.61-1.79c3.35-2.54,5.17-6.62,4.53-10.17a6.24,6.24,0,0,0-.24-.92,23.89,23.89,0,0,1-5-3.07c-4.38,8.27-17.83,9.44-23.57,2-8.93,11.28-28.63,11.26-37.54,0-9,10.74-28.39,9.65-36.09-2-11.89,7.06-28.3,5.42-38.56-3.85-1.9-1.72-4.19-3.83-6.65-3.11-1.36.4-2.31,1.57-3.28,2.6-7.16,7.59-20,8.88-28.56,2.86C67.49,87,62.92,92.1,56.87,94.67s-13.95,1.91-18.09-3.2c-6.2,5.86-12.8,11.94-21.1,13.91a19.77,19.77,0,0,1-14.74-2.45c.14.31.26.63.42.93a14.74,14.74,0,0,0,3.75,4.33,19.73,19.73,0,0,0,12.41,4.18,20.18,20.18,0,0,0,14.84-6.14,1,1,0,0,1,1-.27,1,1,0,0,1,.68.85c.84,8.53,10.51,13.57,18.31,12.89,7.13-.61,14.32-4.63,22-12.28a.94.94,0,0,1,.74-.3,1.06,1.06,0,0,1,.72.34,14.48,14.48,0,0,0,10.8,4.64,13.81,13.81,0,0,0,7.94-2.39,1,1,0,0,1,1.26.1A37.61,37.61,0,0,0,123.53,120c1,0,2,0,3-.13a37.57,37.57,0,0,0,26.59-14.79,1,1,0,0,1,.69-.4,1,1,0,0,1,.76.24,48.69,48.69,0,0,0,24.23,11,24.06,24.06,0,0,0,3.67.28c3.16,0,8.79-.66,10.93-5.11a1,1,0,0,1,.78-.55h.12a1,1,0,0,1,.76.35c5.34,6.23,13.9,10,22.88,10a29.21,29.21,0,0,0,18.78-6.48l.57-.48a11.07,11.07,0,0,1,4.54-2.75,6.6,6.6,0,0,1,1.56-.17,15.48,15.48,0,0,1,3.9.68c.42.12.85.23,1.27.33a16.43,16.43,0,0,0,3.66.41,18.46,18.46,0,0,0,16.9-11.14,1,1,0,0,1,.8-.62c4.8-.62,9.1-4.62,10.68-10a19.54,19.54,0,0,0,.74-6.47c-1.16.6-2.33,1.16-3.54,1.67C270.08,89.19,260.93,90.1,253.16,87.41ZM125.82,100a13.78,13.78,0,0,1-9.38,3.61,13.15,13.15,0,0,1-5-1,1.31,1.31,0,0,1-.34-.24,4.19,4.19,0,0,1-1-1.89,10.75,10.75,0,0,1-14.59-9.74,1,1,0,0,1,1-1,1,1,0,0,1,1,1,8.76,8.76,0,0,0,13,7.4,1,1,0,0,1,1.07.06,1,1,0,0,1,.4,1,2.22,2.22,0,0,0,.43,1.72,11.77,11.77,0,0,0,12-2.32,1,1,0,0,1,1.42,0A1,1,0,0,1,125.82,100Z"/><path class="cls-3" d="M51,42c-9.85,0-18,7.65-21,10.93A62.93,62.93,0,0,0,14.43,84.82,13.85,13.85,0,0,0,2.37,90.61a13.82,13.82,0,0,0-.76,14.21,16.63,16.63,0,0,0,4.25,4.93,21.73,21.73,0,0,0,13.66,4.62A22.52,22.52,0,0,0,34.43,109c2.1,8.53,12,13.45,20.14,12.75,7.39-.64,14.75-4.62,22.48-12.15a16.76,16.76,0,0,0,11.58,4.55,16,16,0,0,0,8.4-2.3A39.67,39.67,0,0,0,123.53,122c1.06,0,2.13,0,3.18-.14a39.66,39.66,0,0,0,27.38-14.75A50.65,50.65,0,0,0,178.52,118a26.5,26.5,0,0,0,4,.3c5.58,0,9.78-1.76,12-5A32.54,32.54,0,0,0,218,122.91h0A31.25,31.25,0,0,0,238,116l.58-.5a9.55,9.55,0,0,1,3.71-2.32,9.74,9.74,0,0,1,4.48.49c.45.12.89.24,1.33.34a18.2,18.2,0,0,0,4.12.47,20.53,20.53,0,0,0,18.53-11.87c5.34-.94,10-5.41,11.77-11.28,1.86-6.26.29-12.64-1.37-16.89-2.58-6.65-8.57-14.42-17-14.5-1.43-7.77-9.42-12.53-16.32-12.53a14.88,14.88,0,0,0-3.37.38,9.48,9.48,0,0,0,.69-5.19c-.5-3.39-2.5-6.24-4.4-8.58-4.28-5.3-11.44-12.2-21.23-15a30.61,30.61,0,0,0-8.41-1.18A26.4,26.4,0,0,0,195.05,23c-5-5.69-12.75-9-21.1-9a27.54,27.54,0,0,0-19.5,7.61A57.54,57.54,0,0,0,110,0c-1.2,0-2.42,0-3.62.12A57.56,57.56,0,0,0,61,28.92a53.06,53.06,0,0,0-5.33,13.76A17.28,17.28,0,0,0,51,42Zm5.94,2.8a1,1,0,0,0,.49-.66,50.86,50.86,0,0,1,5.36-14.28,55.47,55.47,0,0,1,43.7-27.77C107.64,2,108.81,2,110,2A55.49,55.49,0,0,1,153.2,23.21a18.23,18.23,0,0,0-3.29-.31h-.23A19.09,19.09,0,0,0,135,30.28a1,1,0,0,0,1.59,1.21A16.73,16.73,0,0,1,163,31.14a1,1,0,0,0,1,.35c2.44-.55,5.21-1.17,7.67-.43,2.13.64,4.1,2.85,3.52,5a1,1,0,0,0,.7,1.22.82.82,0,0,0,.26,0,1,1,0,0,0,1-.74c.89-3.28-1.8-6.49-4.87-7.41-2.74-.83-5.66-.29-8.1.25a19.13,19.13,0,0,0-9-5.72A25.35,25.35,0,0,1,174,15.93c8.11,0,15.65,3.39,20.18,9.07a1,1,0,0,0,1.42.14,24.14,24.14,0,0,1,15.61-5.33,28.58,28.58,0,0,1,7.86,1.1c9.29,2.66,16.13,9.26,20.23,14.34,1.72,2.13,3.54,4.7,4,7.62a6.82,6.82,0,0,1-2.1,6.18,12,12,0,0,0-1.08.66,1,1,0,0,0-.31,1.32,1,1,0,0,0,1.29.41,6.64,6.64,0,0,0,1.2-.71,11.88,11.88,0,0,1,5.65-1.35c6.34,0,13.66,4.69,14.47,11.66a1,1,0,0,0,1,.88c7.25-.43,13.26,6.43,15.9,13.22,1.54,4,3,9.87,1.31,15.59-1.58,5.34-5.88,9.34-10.68,10a1,1,0,0,0-.8.62,18.46,18.46,0,0,1-16.9,11.14,16.43,16.43,0,0,1-3.66-.41c-.42-.1-.85-.21-1.27-.33a15.48,15.48,0,0,0-3.9-.68,6.6,6.6,0,0,0-1.56.17A11.07,11.07,0,0,0,237.3,114l-.57.48A29.21,29.21,0,0,1,218,120.91c-9,0-17.54-3.72-22.88-10a1,1,0,0,0-.76-.35h-.12a1,1,0,0,0-.78.55c-2.14,4.45-7.77,5.11-10.93,5.11a24.06,24.06,0,0,1-3.67-.28,48.69,48.69,0,0,1-24.23-11,1,1,0,0,0-.76-.24,1,1,0,0,0-.69.4,37.57,37.57,0,0,1-26.59,14.79c-1,.09-2,.13-3,.13a37.61,37.61,0,0,1-25.7-10.22,1,1,0,0,0-1.26-.1,13.81,13.81,0,0,1-7.94,2.39,14.48,14.48,0,0,1-10.8-4.64,1.06,1.06,0,0,0-.72-.34.94.94,0,0,0-.74.3c-7.65,7.65-14.84,11.67-22,12.28-7.8.68-17.47-4.36-18.31-12.89a1,1,0,0,0-.68-.85,1,1,0,0,0-1,.27,20.18,20.18,0,0,1-14.84,6.14,19.73,19.73,0,0,1-12.41-4.18,14.74,14.74,0,0,1-3.75-4.33A11.79,11.79,0,0,1,4,91.75a11.79,11.79,0,0,1,9.59-5,10.88,10.88,0,0,1,1.52.1,1,1,0,0,0,1.13-.84A60.91,60.91,0,0,1,31.49,54.32C37.43,47.88,44.72,44,51,44a15.36,15.36,0,0,1,5.11.87A1,1,0,0,0,56.94,44.83Z"/><path class="cls-3" d="M48,63.22a9.65,9.65,0,0,0-1.91,7.51h0a5.91,5.91,0,0,0-2.61.64,7.36,7.36,0,0,0-3.67,4.3c-.81,2.58-.4,5.66,1.22,9.15,1.23,2.64,2.94,4.08,4.83,4.08h.19a1,1,0,0,0-.1-2h-.09c-1.49,0-2.6-2-3-2.93-1.41-3-1.79-5.61-1.14-7.7a5.44,5.44,0,0,1,2.66-3.11,3.57,3.57,0,0,1,2.75-.25,1,1,0,0,0,1.27-1.29,7.44,7.44,0,0,1,7.89-9.9,2.06,2.06,0,0,1,1.51,1l0,0a1,1,0,0,0,1.39,1.44,2,2,0,0,0,.51-2.11,3.94,3.94,0,0,0-3.14-2.35A9.64,9.64,0,0,0,48,63.22Z"/><path class="cls-3" d="M193.91,40.26a6.44,6.44,0,0,1,7.57,2.29,9.69,9.69,0,0,1,1,8.6,1,1,0,0,0,.64,1.26.84.84,0,0,0,.31.05,1,1,0,0,0,1-.69,11.67,11.67,0,0,0-1.31-10.4c-2.32-3.17-6.73-4.45-10-2.92a1,1,0,1,0,.84,1.81Z"/><path class="cls-3" d="M228.67,71a8.77,8.77,0,0,1,9.92-.27A8.68,8.68,0,0,1,242,80.1a1,1,0,0,0,.22,1,1,1,0,0,0,.94.31,6.2,6.2,0,0,1,4.72,1.08,7.85,7.85,0,0,1,3.31,5c.64,3.55-1.18,7.63-4.53,10.17a1,1,0,0,0,.61,1.79,1,1,0,0,0,.6-.2c4-3,6.07-7.78,5.29-12.11A9.88,9.88,0,0,0,249,80.79a8.52,8.52,0,0,0-4.77-1.54h0a10.46,10.46,0,0,0-16.71-9.81,1,1,0,0,0-.19,1.4A1,1,0,0,0,228.67,71Z"/><path class="cls-3" d="M100.9,99.78a11,11,0,0,0,9.15.69,4.19,4.19,0,0,0,1,1.89,1.31,1.31,0,0,0,.34.24,13.15,13.15,0,0,0,5,1,13.78,13.78,0,0,0,9.38-3.61,1,1,0,0,0,0-1.41,1,1,0,0,0-1.42,0,11.77,11.77,0,0,1-12,2.32,2.22,2.22,0,0,1-.43-1.72,1,1,0,0,0-.4-1,1,1,0,0,0-1.07-.06,8.76,8.76,0,0,1-13-7.4,1,1,0,0,0-1-1,1,1,0,0,0-1,1A11,11,0,0,0,100.9,99.78Z"/></g></g></svg>