<svg xmlns="http://www.w3.org/2000/svg" viewBox="0 0 233.83 118.45"><defs><style>.cls-1{fill:#fff;}.cls-2{fill:#c7eafb;}.cls-3{fill:#6fbae7;}</style></defs><g id="Layer_2" data-name="Layer 2"><g id="Object"><path class="cls-1" d="M228.25,59.37a12.3,12.3,0,0,1-2.62-3.52,12.37,12.37,0,0,1-.72-4.78,19.93,19.93,0,0,0-.12-2.36c-.74-5.7-6.35-9.34-11.26-10.31A23.08,23.08,0,0,0,209,38a58,58,0,0,0-12.45,1.85,1,1,0,0,1-1.13-1.39c2.36-5.24-1.92-11.44-7.14-14.6a30.05,30.05,0,0,0-26.7-2,1,1,0,0,1-1.3-.52A33.19,33.19,0,0,0,132.86,2.07c-.67,0-1.36-.07-2-.07a33.2,33.2,0,0,0-27.77,15.43,1,1,0,0,1-.67.46,1,1,0,0,1-.78-.18A24.24,24.24,0,0,0,86.87,13c-11.13,0-21.55,6.46-25.35,15.7a1,1,0,0,1-.59.57,1,1,0,0,1-.82-.08c-7.17-4-15-5.15-21.33-2.92-7.21,2.55-12,10-10.77,16.66a1,1,0,0,1-.23.85,1,1,0,0,1-.81.34l-1,0c-8.67,0-15.9,6.95-18,9.63-6.09,8-7.8,20.38-3.89,28.3C6,85.78,9.87,90.23,18,90.23a24.58,24.58,0,0,0,3-.2,1,1,0,0,1,1.12.92c.57,7.34,8.15,12.26,14.88,12.26a11.84,11.84,0,0,0,7.4-2.42,1,1,0,0,1,.9-.17,1,1,0,0,1,.66.63C48.6,108.75,56.74,114,65.78,114a18.46,18.46,0,0,0,12.7-4.69,1,1,0,0,1,.68-.27h.14a1,1,0,0,1,.71.46c2.65,4.29,7.88,7,13.65,7a15.34,15.34,0,0,0,12.41-5.64,1,1,0,0,1,.7-.39,1,1,0,0,1,.75.24,24.31,24.31,0,0,0,29.54,1,1,1,0,0,1,1-.1,18.22,18.22,0,0,0,7.91,1.76,19.56,19.56,0,0,0,15.56-7.51,1,1,0,0,1,.8-.4h0a1,1,0,0,1,.81.41,13.05,13.05,0,0,0,10.78,5c5.66,0,10.66-2.83,12.73-7.22a1,1,0,0,1,1.36-.46A17.41,17.41,0,0,0,196,105c8.85,0,17.14-5.79,19.94-13.42A14.06,14.06,0,0,1,206,95.73a12.39,12.39,0,0,1-1.36-.07,1,1,0,0,1,.21-2,11.58,11.58,0,0,0,11.44-17,1,1,0,0,1,.4-1.35,1,1,0,0,1,1.36.4A13.93,13.93,0,0,1,219,86.35c3.84-2.82,7.85-6,10.37-10.22s3.7-10.75.23-15.21A19.44,19.44,0,0,0,228.25,59.37ZM79.61,94.55a10,10,0,0,1-6.55,2.31,12,12,0,0,1-2.83-.34,10.78,10.78,0,0,1-6.84-5,15.16,15.16,0,0,1-23.22-9.49,1,1,0,1,1,1.95-.41,13.17,13.17,0,0,0,21,7.61,1,1,0,0,1,1.55.42A9.07,9.07,0,0,0,78.3,93a1,1,0,0,1,1.31,1.51Zm9.77-54.21a1,1,0,0,1-1.4.22,11.14,11.14,0,0,0-17.49,6.63,1,1,0,0,1-1.58.59,10,10,0,0,0-13.63,2,1,1,0,0,1-.81.42,1,1,0,0,1-.59-.19,1,1,0,0,1-.22-1.4,11.59,11.59,0,0,1,7.73-4.52,11.9,11.9,0,0,1,7.53,1.28A13.13,13.13,0,0,1,89.17,39,1,1,0,0,1,89.38,40.34Zm65.91,57.08A7.32,7.32,0,0,1,142,99.49,15.64,15.64,0,0,1,131.05,104c-.42,0-.84,0-1.26,0a15.59,15.59,0,0,1-12.08-7.76,1,1,0,0,1,.38-1.36,1,1,0,0,1,1.37.38,13.37,13.37,0,0,0,22,1.87,1,1,0,0,1,1.71.3,5.33,5.33,0,0,0,10.18-.47,1,1,0,1,1,1.94.49ZM175,45.54a1,1,0,0,1-.84.46,1.08,1.08,0,0,1-.54-.15,1,1,0,0,1-.3-1.39,6.15,6.15,0,0,0,0-6.38A6.81,6.81,0,0,0,170,35.71a10.59,10.59,0,0,1-3.42-2.07,11,11,0,0,1-2.14-3.52,9.12,9.12,0,0,0-1.86-3.05c-2.3-2.2-8.41-7-15.3-4a1,1,0,0,1-.79-1.84c5.62-2.44,12-.84,17.47,4.38a10.59,10.59,0,0,1,2.3,3.69A9.49,9.49,0,0,0,168,32.23a9,9,0,0,0,2.82,1.65A8.69,8.69,0,0,1,175.07,37,8.09,8.09,0,0,1,175,45.54Z"/><path class="cls-2" d="M229.4,76.13c.2-.33.39-.68.57-1a28.37,28.37,0,0,1-9.82,1.77c-.51,0-1,0-1.54-.05a14,14,0,0,1,.42,9.53C222.87,83.53,226.88,80.31,229.4,76.13Z"/><path class="cls-2" d="M186.69,103.59a1,1,0,0,1,1.36-.46A17.41,17.41,0,0,0,196,105c8.85,0,17.14-5.79,19.94-13.42A14.06,14.06,0,0,1,206,95.73a12.39,12.39,0,0,1-1.36-.07,1,1,0,0,1,.21-2,11.58,11.58,0,0,0,11.44-17s0-.05,0-.08A29.11,29.11,0,0,1,197.8,66l-11.91,8.64c-5.67,4.11-11.56,8.33-18.41,9.78s-15-.62-18.48-6.68a17.35,17.35,0,0,1-31.27,1.2c-6.73,5.57-15.25,9.56-24,8.86S76.54,80.71,75.33,72.07c-13.55,6.75-31.75,2-40.26-10.54-6.49,5.19-13.73,10.25-22,10.85A18.74,18.74,0,0,1,2.14,69.66a24,24,0,0,0,2,12.4C6,85.78,9.87,90.23,18,90.23a24.58,24.58,0,0,0,3-.2,1,1,0,0,1,1.12.92c.57,7.34,8.15,12.26,14.88,12.26a11.84,11.84,0,0,0,7.4-2.42,1,1,0,0,1,.9-.17,1,1,0,0,1,.66.63C48.6,108.75,56.74,114,65.78,114a18.46,18.46,0,0,0,12.7-4.69,1,1,0,0,1,.68-.27h.14a1,1,0,0,1,.71.46c2.65,4.29,7.88,7,13.65,7a15.34,15.34,0,0,0,12.41-5.64,1,1,0,0,1,.7-.39,1,1,0,0,1,.75.24,24.31,24.31,0,0,0,29.54,1,1,1,0,0,1,1-.1,18.22,18.22,0,0,0,7.91,1.76,19.56,19.56,0,0,0,15.56-7.51,1,1,0,0,1,.8-.4h0a1,1,0,0,1,.81.41,13.05,13.05,0,0,0,10.78,5C179.62,110.81,184.62,108,186.69,103.59Zm-107.08-9a10,10,0,0,1-6.55,2.31,12,12,0,0,1-2.83-.34,10.78,10.78,0,0,1-6.84-5,15.16,15.16,0,0,1-23.22-9.49,1,1,0,1,1,1.95-.41,13.17,13.17,0,0,0,21,7.61,1,1,0,0,1,1.55.42A9.07,9.07,0,0,0,78.3,93a1,1,0,0,1,1.31,1.51Zm75.68,2.87A7.32,7.32,0,0,1,142,99.49,15.64,15.64,0,0,1,131.05,104c-.42,0-.84,0-1.26,0a15.59,15.59,0,0,1-12.08-7.76,1,1,0,0,1,.38-1.36,1,1,0,0,1,1.37.38,13.37,13.37,0,0,0,22,1.87,1,1,0,0,1,1.71.3,5.33,5.33,0,0,0,10.18-.47,1,1,0,1,1,1.94.49Z"/><path class="cls-3" d="M229.69,58a10.56,10.56,0,0,1-2.22-2.93,10.65,10.65,0,0,1-.56-4,20.38,20.38,0,0,0-.14-2.58c-.86-6.69-7.27-10.92-12.85-12A24.68,24.68,0,0,0,209,36a52.77,52.77,0,0,0-11.16,1.51c1.33-5.83-3.12-12.09-8.52-15.36a32.07,32.07,0,0,0-27.61-2.47A35.29,35.29,0,0,0,133,.07c-.72,0-1.45-.07-2.18-.07a35.29,35.29,0,0,0-28.9,15.48,26.45,26.45,0,0,0-15-4.44C75.36,11,64.54,17.54,60.12,27c-7.4-3.88-15.45-4.85-22-2.53-7.66,2.7-12.93,10.46-12.24,17.7C16.78,42.18,9.19,49,6.44,52.54c-6.63,8.65-8.39,21.71-4.11,30.4,3.26,6.61,9.65,9.92,18,9.18C21.51,100,29.72,105.21,37,105.21a14.08,14.08,0,0,0,7.55-2.08C47.88,110.76,56.4,116,65.78,116A20.73,20.73,0,0,0,79,111.53a18.17,18.17,0,0,0,14.69,6.92A17.55,17.55,0,0,0,107,112.83a26.41,26.41,0,0,0,30.77.79,20.36,20.36,0,0,0,8.24,1.7A21.78,21.78,0,0,0,162.38,108,15.24,15.24,0,0,0,174,112.81c6,0,11.45-2.9,14.08-7.48A19.43,19.43,0,0,0,196,107c10.84,0,20.91-8,22.68-17.86,4.44-3.2,9.39-6.85,12.46-11.93s4.17-12.25.1-17.48A22.68,22.68,0,0,0,229.69,58Zm-.29,18.14c-2.52,4.18-6.53,7.4-10.37,10.22a13.93,13.93,0,0,0-.94-10.65,1,1,0,0,0-1.36-.4,1,1,0,0,0-.4,1.35,11.58,11.58,0,0,1-11.44,17,1,1,0,0,0-.21,2,12.39,12.39,0,0,0,1.36.07,14.06,14.06,0,0,0,9.87-4.19C213.11,99.17,204.82,105,196,105a17.41,17.41,0,0,1-7.92-1.83,1,1,0,0,0-1.36.46c-2.07,4.39-7.07,7.22-12.73,7.22a13.05,13.05,0,0,1-10.78-5,1,1,0,0,0-.81-.41h0a1,1,0,0,0-.8.4A19.56,19.56,0,0,1,146,113.32a18.22,18.22,0,0,1-7.91-1.76,1,1,0,0,0-1,.1,24.31,24.31,0,0,1-29.54-1,1,1,0,0,0-.75-.24,1,1,0,0,0-.7.39,15.34,15.34,0,0,1-12.41,5.64c-5.77,0-11-2.66-13.65-7a1,1,0,0,0-.71-.46h-.14a1,1,0,0,0-.68.27A18.46,18.46,0,0,1,65.78,114c-9,0-17.18-5.24-19.79-12.74a1,1,0,0,0-.66-.63,1,1,0,0,0-.9.17,11.84,11.84,0,0,1-7.4,2.42c-6.73,0-14.31-4.92-14.88-12.26A1,1,0,0,0,21,90a24.58,24.58,0,0,1-3,.2c-8.13,0-12-4.45-13.87-8.17C.22,74.14,1.93,61.71,8,53.76c2.06-2.68,9.29-9.63,18-9.63l1,0a1,1,0,0,0,.81-.34A1,1,0,0,0,28,43c-1.27-6.64,3.56-14.11,10.77-16.66,6.3-2.23,14.16-1.11,21.33,2.92a1,1,0,0,0,.82.08,1,1,0,0,0,.59-.57C65.32,19.5,75.74,13,86.87,13a24.24,24.24,0,0,1,14.73,4.67,1,1,0,0,0,.78.18,1,1,0,0,0,.67-.46A33.2,33.2,0,0,1,130.82,2c.68,0,1.37,0,2,.07a33.19,33.19,0,0,1,27.45,19.27,1,1,0,0,0,1.3.52,30.05,30.05,0,0,1,26.7,2c5.22,3.16,9.5,9.36,7.14,14.6a1,1,0,0,0,1.13,1.39A58,58,0,0,1,209,38a23.08,23.08,0,0,1,4.5.42c4.91,1,10.52,4.61,11.26,10.31a19.93,19.93,0,0,1,.12,2.36,12.37,12.37,0,0,0,.72,4.78,12.3,12.3,0,0,0,2.62,3.52,19.44,19.44,0,0,1,1.38,1.55C233.1,65.38,232,71.93,229.4,76.13Z"/><path class="cls-3" d="M78.3,93A9.07,9.07,0,0,1,64.7,89.7a1,1,0,0,0-1.55-.42,13.17,13.17,0,0,1-21-7.61,1,1,0,1,0-1.95.41,15.16,15.16,0,0,0,23.22,9.49,10.78,10.78,0,0,0,6.84,5,12,12,0,0,0,2.83.34,10,10,0,0,0,6.55-2.31A1,1,0,0,0,78.3,93Z"/><path class="cls-3" d="M76.72,37.25a13.49,13.49,0,0,0-7.8,8.15,11.9,11.9,0,0,0-7.53-1.28,11.59,11.59,0,0,0-7.73,4.52,1,1,0,0,0,.22,1.4,1,1,0,0,0,.59.19,1,1,0,0,0,.81-.42,10,10,0,0,1,13.63-2,1,1,0,0,0,1.58-.59A11.14,11.14,0,0,1,88,40.56a1,1,0,0,0,1.4-.22A1,1,0,0,0,89.17,39,13.47,13.47,0,0,0,76.72,37.25Z"/><path class="cls-3" d="M170.81,33.88A9,9,0,0,1,168,32.23a9.49,9.49,0,0,1-1.73-2.92,10.59,10.59,0,0,0-2.3-3.69c-5.48-5.22-11.85-6.82-17.47-4.38a1,1,0,0,0,.79,1.84c6.89-3,13,1.79,15.3,4a9.12,9.12,0,0,1,1.86,3.05,11,11,0,0,0,2.14,3.52A10.59,10.59,0,0,0,170,35.71a6.81,6.81,0,0,1,3.38,2.37,6.15,6.15,0,0,1,0,6.38,1,1,0,0,0,.3,1.39,1.08,1.08,0,0,0,.54.15,1,1,0,0,0,.84-.46,8.09,8.09,0,0,0,0-8.53A8.69,8.69,0,0,0,170.81,33.88Z"/><path class="cls-3" d="M154.57,96.2a1,1,0,0,0-1.22.73,5.33,5.33,0,0,1-10.18.47,1,1,0,0,0-1.71-.3,13.37,13.37,0,0,1-22-1.87,1,1,0,0,0-1.37-.38,1,1,0,0,0-.38,1.36A15.59,15.59,0,0,0,129.79,104c.42,0,.84,0,1.26,0A15.64,15.64,0,0,0,142,99.49a7.32,7.32,0,0,0,13.3-2.07A1,1,0,0,0,154.57,96.2Z"/></g></g></svg>