<svg xmlns="http://www.w3.org/2000/svg" viewBox="0 0 160.17 90.56"><defs><style>.cls-1{fill:#fff;}.cls-2{fill:#c7eafb;}.cls-3{fill:#6fbae7;}</style></defs><g id="Layer_2" data-name="Layer 2"><g id="Object"><path class="cls-1" d="M12,59.58c1.06,0,2.19,0,3.27-.1s2.28-.11,3.42-.11a22.41,22.41,0,0,1,3.6.25,1,1,0,0,1,.85,1c-.48,11.34,7.24,22.74,18,26.5a25.33,25.33,0,0,0,8.46,1.41A27.77,27.77,0,0,0,71.68,77.69a1,1,0,0,1,.93-.4,1,1,0,0,1,.8.61,14.37,14.37,0,0,0,26,1.2,1,1,0,0,1,.77-.53,1,1,0,0,1,.88.35,17.52,17.52,0,0,0,13.5,5.77c7,0,13.22-3.32,16.22-8.66a1,1,0,0,1,1.32-.41,11.19,11.19,0,0,0,5.11,1.18,15.57,15.57,0,0,0,11.22-5.19,12.47,12.47,0,0,0,3.48-9.55,1,1,0,0,1,.26-.77c4-4.39,6-8.38,6-12.21a9.51,9.51,0,0,0-2.71-6.5,6.27,6.27,0,0,0-5-2,1,1,0,0,1-.48-1.92,4.5,4.5,0,0,0,2.57-3.57,6.88,6.88,0,0,0-2-6.14,10.17,10.17,0,0,0-6.79-2.23,18.63,18.63,0,0,0-5.25.81,1,1,0,0,1-1-1.68c1.85-1.73,1.6-4.82.43-6.86-1.34-2.33-3.75-4-6.11-5.46C119.37,5.65,109,2,99.18,2h-.5C87.82,2.15,75,8.37,71.56,20a1,1,0,0,1-.78.7,1,1,0,0,1-1-.38,20.75,20.75,0,0,0-16.24-7.94,19.31,19.31,0,0,0-3,.24A20.66,20.66,0,0,0,34.67,26a1,1,0,0,1-1.66.38,6.18,6.18,0,0,0-4.42-1.78,5.89,5.89,0,0,0-3,.78,6.32,6.32,0,0,0-2.81,6.92,1,1,0,0,1-1,1.28A20.87,20.87,0,0,0,3.46,45.18c-1.79,3.71-2.31,9.07.79,12.06C6.4,59.3,9.37,59.58,12,59.58ZM135.88,36.69a6,6,0,0,1,5.43,5.21,5.31,5.31,0,0,1-1.36,4,4.94,4.94,0,0,1-3.51,1.74h0a1,1,0,0,1,0-2,3,3,0,0,0,2.08-1.07,3.36,3.36,0,0,0,.87-2.47,4,4,0,0,0-3.61-3.41,1,1,0,0,1-.91-1.08A1,1,0,0,1,135.88,36.69Zm-13.4,28.62a1,1,0,0,1,1.32-.5,9.78,9.78,0,0,0,11.25-2.62,2.4,2.4,0,0,0,.73-1.6.65.65,0,0,0-.24-.41.51.51,0,0,0-.17-.09,1,1,0,1,1-.75-1.85,2.09,2.09,0,0,1,1.89.18,2.67,2.67,0,0,1,1.26,2,4.17,4.17,0,0,1-1.18,3.07,11.81,11.81,0,0,1-9,4.12,11.23,11.23,0,0,1-4.56-1A1,1,0,0,1,122.48,65.31ZM83.93,19.1a11.22,11.22,0,0,1,16.81-2.91,7.56,7.56,0,0,1,2,3l.15,0A13,13,0,0,1,116.11,30a1,1,0,0,1-.86,1.12h-.13a1,1,0,0,1-1-.88,11,11,0,0,0-10.52-9.17h-.06l-.91,1.67-.21.38a1,1,0,0,1-1.73-1l.15-.27c.61-1.32-.27-3.13-1.47-4.23A9.22,9.22,0,0,0,85.7,20a1,1,0,1,1-1.77-.93ZM34.76,46.19A1,1,0,1,1,36,47.76a7.94,7.94,0,0,0,.53,12.16c2.95,1.94,6.87,1.67,11,1.18a1,1,0,0,1,.84.3,1,1,0,0,1,.26.87,8.78,8.78,0,0,0,.22,4,11.77,11.77,0,0,0,13.58-.37,1,1,0,1,1,1.24,1.58,13.52,13.52,0,0,1-8.29,2.75,13.35,13.35,0,0,1-8-2.54,1,1,0,0,1-.36-.48,10.85,10.85,0,0,1-.54-4c-4,.42-7.87.46-11-1.64a9.93,9.93,0,0,1-.67-15.4Z"/><path class="cls-2" d="M151.91,62.06a1,1,0,0,1,.26-.77c3.23-3.53,5.11-6.81,5.74-9.95a17.46,17.46,0,0,1-5.21,2.09c-5,1.06-11.22-1.57-12.11-6.63a14.61,14.61,0,0,1-25.81,1.55c-4.35,4.83-9.15,9.83-15.47,11.37S85,57.55,84.51,51.07C77.79,57.79,65.17,57,59.34,49.48c-5.32,2.45-11.3,4-17.05,2.84A16.93,16.93,0,0,1,35,48.82,7.84,7.84,0,0,0,33.43,54a7.45,7.45,0,0,0,3.1,6c2.95,1.94,6.87,1.67,11,1.18a1,1,0,0,1,.84.3,1,1,0,0,1,.26.87,8.78,8.78,0,0,0,.22,4,11.77,11.77,0,0,0,13.58-.37,1,1,0,1,1,1.24,1.58,13.52,13.52,0,0,1-8.29,2.75,13.35,13.35,0,0,1-8-2.54,1,1,0,0,1-.36-.48,10.85,10.85,0,0,1-.54-4c-4,.42-7.87.46-11-1.64a9.45,9.45,0,0,1-4-7.54,9.77,9.77,0,0,1,2.09-6.61A12.4,12.4,0,0,1,30.24,41c-4.43,3.06-9,6.16-14.15,7.64-4.46,1.28-9.55,1.14-13.52-1.13-1,3.38-.82,7.32,1.68,9.72C6.4,59.3,9.37,59.58,12,59.58c1.06,0,2.19,0,3.27-.1s2.28-.11,3.42-.11a22.41,22.41,0,0,1,3.6.25,1,1,0,0,1,.85,1c-.48,11.34,7.24,22.74,18,26.5a25.33,25.33,0,0,0,8.46,1.41A27.77,27.77,0,0,0,71.68,77.69a1,1,0,0,1,.93-.4,1,1,0,0,1,.8.61,14.37,14.37,0,0,0,26,1.2,1,1,0,0,1,.77-.53,1,1,0,0,1,.88.35,17.52,17.52,0,0,0,13.5,5.77c7,0,13.22-3.32,16.22-8.66a1,1,0,0,1,1.32-.41,11.19,11.19,0,0,0,5.11,1.18,15.57,15.57,0,0,0,11.22-5.19A12.47,12.47,0,0,0,151.91,62.06Zm-15.32,1.41a11.81,11.81,0,0,1-9,4.12,11.23,11.23,0,0,1-4.56-1,1,1,0,0,1,.82-1.83,9.78,9.78,0,0,0,11.25-2.62,2.4,2.4,0,0,0,.73-1.6.65.65,0,0,0-.24-.41.51.51,0,0,0-.17-.09,1,1,0,1,1-.75-1.85,2.09,2.09,0,0,1,1.89.18,2.67,2.67,0,0,1,1.26,2A4.17,4.17,0,0,1,136.59,63.47Z"/><path class="cls-3" d="M12,61.58c1.11,0,2.25,0,3.36-.11a44,44,0,0,1,5.76,0C21,73.36,29.21,85.1,40.43,89a27.5,27.5,0,0,0,9.13,1.52,30,30,0,0,0,22.72-10.4,16.68,16.68,0,0,0,13.65,8.6c.24,0,.47,0,.71,0a16.85,16.85,0,0,0,13.83-7.55,19.83,19.83,0,0,0,14.09,5.46c7.38,0,14-3.38,17.49-8.89a13.33,13.33,0,0,0,5.16,1A17.56,17.56,0,0,0,149.91,73a14.54,14.54,0,0,0,4-10.63c4.16-4.65,6.2-9,6.23-13.23a11.41,11.41,0,0,0-3.29-7.92A9,9,0,0,0,153,38.81a7.08,7.08,0,0,0,1.51-3.43,8.8,8.8,0,0,0-2.71-8C149,25,144.91,24.17,140.33,25a8.65,8.65,0,0,0-.72-7c-1.57-2.72-4.2-4.53-6.77-6.16C120.1,3.75,109.41,0,99.18,0h-.53c-11.05.15-24,6.26-28.42,17.71a22.89,22.89,0,0,0-16.66-7.33,21,21,0,0,0-3.37.27,22.75,22.75,0,0,0-16.91,13.4,8.4,8.4,0,0,0-4.7-1.42,7.9,7.9,0,0,0-4,1.05,8.35,8.35,0,0,0-4,8,23,23,0,0,0-19,12.67C-.51,48.8-1,55,2.87,58.68,5.52,61.23,9,61.58,12,61.58ZM3.46,45.18A20.87,20.87,0,0,1,21.84,33.61a1,1,0,0,0,1-1.28,6.32,6.32,0,0,1,2.81-6.92,5.89,5.89,0,0,1,3-.78A6.18,6.18,0,0,1,33,26.41,1,1,0,0,0,34.67,26,20.66,20.66,0,0,1,50.52,12.62a19.31,19.31,0,0,1,3-.24,20.75,20.75,0,0,1,16.24,7.94,1,1,0,0,0,1,.38,1,1,0,0,0,.78-.7C75,8.37,87.82,2.15,98.68,2h.5c9.83,0,20.19,3.65,32.59,11.5,2.36,1.48,4.77,3.13,6.11,5.46,1.17,2,1.42,5.13-.43,6.86a1,1,0,0,0,1,1.68,18.63,18.63,0,0,1,5.25-.81,10.17,10.17,0,0,1,6.79,2.23,6.88,6.88,0,0,1,2,6.14,4.5,4.5,0,0,1-2.57,3.57,1,1,0,0,0,.48,1.92,6.27,6.27,0,0,1,5,2,9.51,9.51,0,0,1,2.71,6.5c0,3.83-2,7.82-6,12.21a1,1,0,0,0-.26.77,12.47,12.47,0,0,1-3.48,9.55,15.57,15.57,0,0,1-11.22,5.19,11.19,11.19,0,0,1-5.11-1.18,1,1,0,0,0-1.32.41c-3,5.34-9.21,8.66-16.22,8.66a17.52,17.52,0,0,1-13.5-5.77,1,1,0,0,0-.88-.35,1,1,0,0,0-.77.53,14.37,14.37,0,0,1-26-1.2,1,1,0,0,0-.8-.61,1,1,0,0,0-.93.4A27.77,27.77,0,0,1,49.56,88.56a25.33,25.33,0,0,1-8.46-1.41c-10.72-3.76-18.44-15.16-18-26.5a1,1,0,0,0-.85-1,22.41,22.41,0,0,0-3.6-.25c-1.14,0-2.3.05-3.42.11s-2.21.1-3.27.1c-2.63,0-5.6-.28-7.75-2.34C1.15,54.25,1.67,48.89,3.46,45.18Z"/><path class="cls-3" d="M35.43,61.59c3.18,2.1,7,2.06,11,1.64a10.85,10.85,0,0,0,.54,4,1,1,0,0,0,.36.48,13.35,13.35,0,0,0,8,2.54,13.52,13.52,0,0,0,8.29-2.75,1,1,0,1,0-1.24-1.58,11.77,11.77,0,0,1-13.58.37,8.78,8.78,0,0,1-.22-4,1,1,0,0,0-.26-.87,1,1,0,0,0-.84-.3c-4.1.49-8,.76-11-1.18A7.94,7.94,0,0,1,36,47.76a1,1,0,1,0-1.24-1.57,9.93,9.93,0,0,0,.67,15.4Z"/><path class="cls-3" d="M123,66.64a11.23,11.23,0,0,0,4.56,1,11.81,11.81,0,0,0,9-4.12,4.17,4.17,0,0,0,1.18-3.07,2.67,2.67,0,0,0-1.26-2,2.09,2.09,0,0,0-1.89-.18,1,1,0,1,0,.75,1.85.51.51,0,0,1,.17.09.65.65,0,0,1,.24.41,2.4,2.4,0,0,1-.73,1.6,9.78,9.78,0,0,1-11.25,2.62,1,1,0,0,0-.82,1.83Z"/><path class="cls-3" d="M84.35,20.45A1,1,0,0,0,85.7,20a9.22,9.22,0,0,1,13.68-2.37c1.2,1.1,2.08,2.91,1.47,4.23l-.15.27a1,1,0,0,0,1.73,1l.21-.38.91-1.67h.06a11,11,0,0,1,10.52,9.17,1,1,0,0,0,1,.88h.13a1,1,0,0,0,.86-1.12,13,13,0,0,0-13.23-10.89l-.15,0a7.56,7.56,0,0,0-2-3A11.22,11.22,0,0,0,83.93,19.1,1,1,0,0,0,84.35,20.45Z"/><path class="cls-3" d="M135.71,38.68a4,4,0,0,1,3.61,3.41,3.36,3.36,0,0,1-.87,2.47,3,3,0,0,1-2.08,1.07,1,1,0,0,0,0,2h0A4.94,4.94,0,0,0,140,45.88a5.31,5.31,0,0,0,1.36-4,6,6,0,0,0-5.43-5.21,1,1,0,0,0-1.08.91A1,1,0,0,0,135.71,38.68Z"/></g></g></svg>