<svg xmlns="http://www.w3.org/2000/svg" viewBox="0 0 191.84 109.44"><defs><style>.cls-1{fill:#fff;}.cls-2{fill:#c7eafb;}.cls-3{fill:#6fbae7;}</style></defs><g id="Layer_2" data-name="Layer 2"><g id="Object"><path class="cls-1" d="M22,92.42a19.39,19.39,0,0,0,10-2.64,1,1,0,0,1,1.37.34A24.25,24.25,0,0,0,50.6,101.28a23.64,23.64,0,0,0,3,.2,24.4,24.4,0,0,0,16.22-6.21,56.73,56.73,0,0,1-6.38-3.61A1,1,0,0,1,64.53,90a40.8,40.8,0,0,0,8.83,4.55,12.91,12.91,0,0,0,9.24-.12,1,1,0,1,1,.83,1.82,12.83,12.83,0,0,1-5.31,1.08,17.64,17.64,0,0,1-5.38-.88l-.14,0c5.23,6.49,13.94,10.46,23.14,10.46a28,28,0,0,0,18.33-6.43,1,1,0,0,1,.65-.24h.11a1,1,0,0,1,.7.4c3.17,4.3,8.67,6.87,14.72,6.87,5.78,0,11.12-2.4,14.28-6.43,2.8-3.57,7.73-4.08,12.5-4.57a32.3,32.3,0,0,0,7.43-1.33c11-4,20.37-13.53,23.85-24.15a27.58,27.58,0,0,0-3.22-24.53c-4.83-7.29-14-12-23.35-12a24.3,24.3,0,0,0-14.37,4.43,1,1,0,0,1-.85.16,1,1,0,0,1-.65-.56,33.46,33.46,0,0,0-26.07-19.3,16.67,16.67,0,0,0-1.94-.12c-2.51,0-4.28.67-5.25,2a1,1,0,0,1-.88.4,1,1,0,0,1-.81-.52C104.6,9.25,91,2,75.3,2A46.43,46.43,0,0,0,62.62,3.73c-11.13,3.16-20.47,9.72-26.3,18.48-5.95,8.94-7.83,20.27-5.06,29.9a17.91,17.91,0,0,1,13.65-3.87,6.38,6.38,0,0,1,3.52,1.57,9.11,9.11,0,0,1,7.86-4,9.58,9.58,0,0,1,8.37,6.61,1,1,0,1,1-1.91.6,7.61,7.61,0,0,0-6.57-5.21,6.91,6.91,0,0,0-6.82,4.55,1,1,0,0,1-2-.33c0-.95-1.42-1.67-2.78-1.86A15.61,15.61,0,0,0,27.14,68.64a1,1,0,0,1-.8,1.17l-.19,0a1,1,0,0,1-1-.81,17.91,17.91,0,0,1,4-14.89,19.38,19.38,0,0,0-7-1.3A20.64,20.64,0,0,0,5.74,60.77,20.52,20.52,0,0,0,7,86,20.47,20.47,0,0,0,22,92.42Zm121.38,6.06a10.24,10.24,0,0,0,3.19-1.89c3.86-3,7.43-6,8.65-10.12a1,1,0,0,1,1.64-.45,6.44,6.44,0,0,0,8.9-.54c1-1.17,1.35-3.1.36-3.94a1,1,0,0,1,1.3-1.52c2,1.71,1.49,4.83-.13,6.75a8.13,8.13,0,0,1-5.75,2.76,8.53,8.53,0,0,1-4.88-1.16c-1.66,4-5.14,6.91-8.87,9.8A11.56,11.56,0,0,1,144,100.4a6.88,6.88,0,0,1-1.95.26,16.06,16.06,0,0,1-4.26-.75l-6.13-1.66a1,1,0,1,1,.53-1.93L138.26,98C139.9,98.43,141.77,98.94,143.41,98.48Zm-24.1-59.93a9.07,9.07,0,0,1,13.17,6.54,6.62,6.62,0,0,1,6.31,2.14,9.37,9.37,0,0,1,2,7.48,2.38,2.38,0,0,1-1.2,1.79,1.51,1.51,0,0,1-.58.12,1.41,1.41,0,0,1-.79-.24,1,1,0,0,1,.55-1.83h0a.52.52,0,0,0,0-.11,7.34,7.34,0,0,0-1.47-5.89,4.42,4.42,0,0,0-5.2-1.19,1,1,0,0,1-1,0,1,1,0,0,1-.5-.85,7.09,7.09,0,0,0-10.37-6.18,1,1,0,0,1-.93-1.77ZM80.12,11.9a13.48,13.48,0,0,1,10.7,2A13.49,13.49,0,0,1,96.88,23,1,1,0,0,1,96,24.1h-.15a1,1,0,0,1-1-.84,12.07,12.07,0,0,0-14.28-9.44,1,1,0,0,1-1.22-.72A1,1,0,0,1,80.12,11.9Z"/><path class="cls-2" d="M172.88,66c-1.83.56-3.83.44-5.65,1-2,.67-3.69,2.17-5.52,3.3A17.17,17.17,0,0,1,142.31,69c-3.85,8.53-16.12,11.81-23.72,6.33-13.78,12.22-37.67,10.26-49.27-4-6.5,8.27-21.37,7.4-26.87-1.57a91.4,91.4,0,0,1-17.08,5.11c-6.85,1.19-14.42,1-20-3.15a13.58,13.58,0,0,1-3-3.07A20.45,20.45,0,0,0,7,86,20.47,20.47,0,0,0,22,92.42a19.39,19.39,0,0,0,10-2.64,1,1,0,0,1,1.37.34A24.25,24.25,0,0,0,50.6,101.28a23.64,23.64,0,0,0,3,.2,24.4,24.4,0,0,0,16.22-6.21,56.73,56.73,0,0,1-6.38-3.61A1,1,0,0,1,64.53,90a40.8,40.8,0,0,0,8.83,4.55,12.91,12.91,0,0,0,9.24-.12,1,1,0,1,1,.83,1.82,12.83,12.83,0,0,1-5.31,1.08,17.64,17.64,0,0,1-5.38-.88l-.14,0c5.23,6.49,13.94,10.46,23.14,10.46a28,28,0,0,0,18.33-6.43,1,1,0,0,1,.65-.24h.11a1,1,0,0,1,.7.4c3.17,4.3,8.67,6.87,14.72,6.87,5.78,0,11.12-2.4,14.28-6.43,2.8-3.57,7.73-4.08,12.5-4.57a32.3,32.3,0,0,0,7.43-1.33c11-4,20.37-13.53,23.85-24.15a27.7,27.7,0,0,0-.95-20.43c-2.53,3.55-5.18,7-8,10.32C177.55,63,175.55,65.16,172.88,66Zm-5.56,20.78a8.13,8.13,0,0,1-5.75,2.76,8.53,8.53,0,0,1-4.88-1.16c-1.66,4-5.14,6.91-8.87,9.8A11.56,11.56,0,0,1,144,100.4a6.88,6.88,0,0,1-1.95.26,16.06,16.06,0,0,1-4.26-.75l-6.13-1.66a1,1,0,1,1,.53-1.93L138.26,98c1.64.45,3.51,1,5.15.5a10.24,10.24,0,0,0,3.19-1.89c3.86-3,7.43-6,8.65-10.12a1,1,0,0,1,1.64-.45,6.44,6.44,0,0,0,8.9-.54c1-1.17,1.35-3.1.36-3.94a1,1,0,0,1,1.3-1.52C169.45,81.73,168.94,84.85,167.32,86.77Z"/><path class="cls-3" d="M22,94.42A21.51,21.51,0,0,0,32.16,92a26.28,26.28,0,0,0,18.18,11.29,24.07,24.07,0,0,0,3.3.22,26.46,26.46,0,0,0,17.07-6.27c5.56,7.19,15,11.62,25,11.62a30.21,30.21,0,0,0,18.83-6.25,20.33,20.33,0,0,0,15.68,6.86c6.39,0,12.32-2.69,15.86-7.19,2.27-2.91,6.57-3.35,11.12-3.82A33.28,33.28,0,0,0,165.15,97c11.74-4.31,21.34-14,25.06-25.4a29.45,29.45,0,0,0-3.46-26.26c-5.26-8-14.84-12.89-25-12.89a26.61,26.61,0,0,0-14.55,4.13A35.56,35.56,0,0,0,120,17.17c-3.48-.41-6.26.13-8,1.6C105.08,7.16,91.15,0,75.3,0A48.46,48.46,0,0,0,62.07,1.81C50.48,5.09,40.75,12,34.66,21.1S26.49,42,29.13,52a21.68,21.68,0,0,0-7-1.14,22.66,22.66,0,0,0-18,8.75A22.58,22.58,0,0,0,5.5,87.37,22.48,22.48,0,0,0,22,94.42ZM5.74,60.77a20.64,20.64,0,0,1,16.41-7.94,19.38,19.38,0,0,1,7,1.3,17.91,17.91,0,0,0-4,14.89,1,1,0,0,0,1,.81l.19,0a1,1,0,0,0,.8-1.17A15.61,15.61,0,0,1,44.63,50.22c1.36.19,2.8.91,2.78,1.86a1,1,0,0,0,2,.33,6.91,6.91,0,0,1,6.82-4.55,7.61,7.61,0,0,1,6.57,5.21,1,1,0,1,0,1.91-.6,9.58,9.58,0,0,0-8.37-6.61,9.11,9.11,0,0,0-7.86,4,6.38,6.38,0,0,0-3.52-1.57,17.91,17.91,0,0,0-13.65,3.87c-2.77-9.63-.89-21,5.06-29.9,5.83-8.76,15.17-15.32,26.3-18.48A46.43,46.43,0,0,1,75.3,2C91,2,104.6,9.25,110.92,20.91a1,1,0,0,0,.81.52,1,1,0,0,0,.88-.4c1-1.32,2.74-2,5.25-2a16.67,16.67,0,0,1,1.94.12,33.46,33.46,0,0,1,26.07,19.3,1,1,0,0,0,.65.56,1,1,0,0,0,.85-.16,24.3,24.3,0,0,1,14.37-4.43c9.36,0,18.52,4.71,23.35,12A27.58,27.58,0,0,1,188.31,71c-3.48,10.62-12.84,20.1-23.85,24.15A32.3,32.3,0,0,1,157,96.44c-4.77.49-9.7,1-12.5,4.57-3.16,4-8.5,6.43-14.28,6.43-6,0-11.55-2.57-14.72-6.87a1,1,0,0,0-.7-.4h-.11a1,1,0,0,0-.65.24,28,28,0,0,1-18.33,6.43c-9.2,0-17.91-4-23.14-10.46l.14,0a17.64,17.64,0,0,0,5.38.88,12.83,12.83,0,0,0,5.31-1.08,1,1,0,1,0-.83-1.82,12.91,12.91,0,0,1-9.24.12A40.8,40.8,0,0,1,64.53,90a1,1,0,0,0-1.05,1.69,56.73,56.73,0,0,0,6.38,3.61,24.4,24.4,0,0,1-16.22,6.21,23.64,23.64,0,0,1-3-.2A24.25,24.25,0,0,1,33.35,90.12,1,1,0,0,0,32,89.78,19.39,19.39,0,0,1,22,92.42,20.47,20.47,0,0,1,7,86,20.52,20.52,0,0,1,5.74,60.77Z"/><path class="cls-3" d="M132.14,96.32a1,1,0,1,0-.53,1.93l6.13,1.66a16.06,16.06,0,0,0,4.26.75,6.88,6.88,0,0,0,1.95-.26,11.56,11.56,0,0,0,3.87-2.23c3.73-2.89,7.21-5.82,8.87-9.8a8.53,8.53,0,0,0,4.88,1.16,8.13,8.13,0,0,0,5.75-2.76c1.62-1.92,2.13-5,.13-6.75a1,1,0,0,0-1.3,1.52c1,.84.62,2.77-.36,3.94a6.44,6.44,0,0,1-8.9.54,1,1,0,0,0-1.64.45c-1.22,4.11-4.79,7.13-8.65,10.12a10.24,10.24,0,0,1-3.19,1.89c-1.64.46-3.51,0-5.15-.5Z"/><path class="cls-3" d="M120.24,40.32a7.09,7.09,0,0,1,10.37,6.18,1,1,0,0,0,.5.85,1,1,0,0,0,1,0,4.42,4.42,0,0,1,5.2,1.19,7.34,7.34,0,0,1,1.47,5.89.52.52,0,0,1,0,.11h0a1,1,0,0,0-.55,1.83,1.41,1.41,0,0,0,.79.24,1.51,1.51,0,0,0,.58-.12,2.38,2.38,0,0,0,1.2-1.79,9.37,9.37,0,0,0-2-7.48,6.62,6.62,0,0,0-6.31-2.14,9.07,9.07,0,0,0-13.17-6.54,1,1,0,0,0,.93,1.77Z"/><path class="cls-3" d="M80.62,13.83A12.07,12.07,0,0,1,94.9,23.27a1,1,0,0,0,1,.84H96A1,1,0,0,0,96.88,23a13.49,13.49,0,0,0-6.06-9,13.48,13.48,0,0,0-10.7-2,1,1,0,0,0-.72,1.21A1,1,0,0,0,80.62,13.83Z"/></g></g></svg>