<svg xmlns="http://www.w3.org/2000/svg" viewBox="0 0 115.86 160.15"><defs><style>.cls-1{fill:#87c663;}.cls-2{fill:#79a96f;}.cls-3{fill:#597d68;}.cls-4{fill:#a36d55;}.cls-5{fill:#bc8867;}.cls-6{fill:#b27c5f;}</style></defs><g id="Layer_2" data-name="Layer 2"><g id="OBJECTS"><path class="cls-1" d="M78.89,38.68C64.45,45.26,59.41,53.47,60.62,57.61s8.55,3.57,22.86-3.21S117,46.05,115.81,42,93.33,32.11,78.89,38.68Z"/><path class="cls-2" d="M112.9,42.53a85.31,85.31,0,0,0-14.54,1.26c-1.19.23-2.39.42-3.58.67l-3.56.79-3.53.93-.88.24-.87.27-1.73.56-1.74.55c-.58.19-1.14.42-1.71.63-1.14.43-2.28.83-3.41,1.29-2.21,1-4.47,1.88-6.61,3a91.24,91.24,0,0,0-12.4,7.56l-.59-.81a91.36,91.36,0,0,1,12.66-7.43c2.17-1.13,4.47-2,6.71-2.95,1.14-.43,2.3-.82,3.45-1.24.58-.2,1.15-.42,1.73-.6l1.76-.52,1.75-.53.88-.26.89-.22,3.55-.88,3.59-.73c1.19-.23,2.4-.4,3.6-.61A85.79,85.79,0,0,1,112.9,42.53Z"/><path class="cls-1" d="M32.26,48.5c15.86,0,23.84,5.42,24.45,9.69S50.4,65,34.57,64.71.61,70.94,0,66.81,16.39,48.47,32.26,48.5Z"/><path class="cls-2" d="M2.87,66.05A85.29,85.29,0,0,1,16.56,61c1.18-.31,2.35-.65,3.54-.94l3.56-.81,3.6-.67.9-.16.91-.13L30.89,58l1.81-.24c.61-.08,1.22-.11,1.83-.17,1.21-.1,2.43-.22,3.65-.3,2.44-.05,4.89-.22,7.33-.08A90.61,90.61,0,0,1,60.1,58.73l-.2,1A89.63,89.63,0,0,0,45.49,58c-2.43-.17-4.85-.05-7.28,0-1.21.06-2.42.16-3.64.23-.6,0-1.21.08-1.81.14L31,58.49l-1.81.22-.91.11-.9.15-3.59.6-3.57.75c-1.19.27-2.36.59-3.54.88A85.15,85.15,0,0,0,2.87,66.05Z"/><path class="cls-1" d="M48.49,30.21C59.26,44.62,60.06,53.7,55.56,56.34S42.89,54.15,32.45,39.42,18.17,2.9,22.67.26,37.73,15.81,48.49,30.21Z"/><path class="cls-2" d="M23.41,1.9a131,131,0,0,0,6.67,15.56c.65,1.25,1.27,2.52,1.94,3.76l2,3.71c1.43,2.43,2.84,4.88,4.38,7.24L39.58,34c.38.6.79,1.17,1.19,1.75.8,1.16,1.59,2.33,2.4,3.48,1.71,2.24,3.33,4.55,5.16,6.7a138.56,138.56,0,0,0,11.4,12.45l-.7.72a140.11,140.11,0,0,1-11.29-12.7c-1.8-2.19-3.4-4.53-5.08-6.81-.8-1.17-1.57-2.35-2.36-3.53-.39-.59-.8-1.17-1.17-1.77L38,32.44c-1.52-2.39-2.9-4.87-4.29-7.33l-2-3.74c-.65-1.26-1.25-2.54-1.89-3.8A131.6,131.6,0,0,1,23.41,1.9Z"/><path class="cls-1" d="M73.85,41.14C68.08,53.52,62.29,57.32,58.91,55.25s-3.09-9.26,3-21.54S81.24,11,84.63,13.09,79.63,28.75,73.85,41.14Z"/><path class="cls-2" d="M83.79,14.17a100.71,100.71,0,0,0-8,10.08c-.6.88-1.22,1.75-1.81,2.65l-1.75,2.7C71.13,31.43,70,33.26,69,35.14l-.79,1.4c-.25.47-.49,1-.73,1.43L66,40.83c-.88,2-1.84,3.87-2.62,5.86a106.2,106.2,0,0,0-4.2,12.1l-1-.27A106.87,106.87,0,0,1,62.7,46.39c.82-2,1.82-3.9,2.75-5.84L67,37.7c.25-.47.5-1,.77-1.41l.81-1.4c1.06-1.87,2.22-3.68,3.37-5.49l1.81-2.68c.6-.88,1.24-1.75,1.87-2.62A98.59,98.59,0,0,1,83.79,14.17Z"/><path class="cls-1" d="M79.88,65.14c-13.67,0-19.57-3.58-19.14-7.52s7.08-6.73,20.79-6.43S110.27,59,109.84,63,93.54,65.1,79.88,65.14Z"/><path class="cls-2" d="M108.51,62.67a99.81,99.81,0,0,0-12.52-3c-1.06-.17-2.11-.36-3.17-.51l-3.19-.43c-2.13-.23-4.26-.47-6.4-.59l-1.6-.11c-.54,0-1.07,0-1.61-.06l-3.21-.11c-2.14,0-4.28,0-6.41.13a104.4,104.4,0,0,0-12.74,1.34l-.17-1a109.18,109.18,0,0,1,12.88-1.11c2.15-.1,4.31,0,6.46,0l3.22.16c.54,0,1.08,0,1.61.09l1.61.15c2.14.16,4.28.45,6.41.71l3.18.5c1.06.17,2.12.38,3.18.58A99.54,99.54,0,0,1,108.51,62.67Z"/><path class="cls-1" d="M43.12,74.33C55.37,68.28,59,62.41,56.9,59.07s-9.34-2.88-21.48,3.5S13.17,82.38,15.31,85.72,30.87,80.37,43.12,74.33Z"/><path class="cls-2" d="M16.38,84.86a99.44,99.44,0,0,1,9.89-8.21c.87-.63,1.73-1.27,2.62-1.87L31.55,73c1.8-1.15,3.6-2.32,5.46-3.38l1.39-.81c.46-.27.94-.51,1.41-.77l2.83-1.52c1.93-.93,3.82-1.93,5.8-2.75a107.45,107.45,0,0,1,12-4.47l-.29-1a104.59,104.59,0,0,0-12,4.75c-2,.86-3.86,1.91-5.79,2.87l-2.81,1.59c-.46.27-.94.52-1.4.8l-1.37.84c-1.85,1.1-3.63,2.31-5.42,3.5L28.7,74.52c-.87.63-1.72,1.29-2.58,1.93A98.73,98.73,0,0,0,16.38,84.86Z"/><path class="cls-3" d="M64.46,158.43s-3.92-15.88-4.36-41C58.72,92.65,61.63,56.7,61.63,56.7L57.05,56s-1.48,12-3.89,40.1c-1.25,39.31,1.66,63.2,1.66,63.2Z"/><path class="cls-4" d="M64.71,58.23c0,2.74-2.22,6.42-4.95,6.42s-5-3.68-5-6.42a5,5,0,0,1,9.91,0Z"/><path class="cls-5" d="M60.67,64.7c0,3.38-2.74,7.93-6.13,7.93s-6.12-4.55-6.12-7.93a6.13,6.13,0,1,1,12.25,0Z"/><path class="cls-6" d="M68.62,64.87c0,2.74-2.22,6.42-5,6.42s-4.95-3.68-4.95-6.42a5,5,0,0,1,9.91,0Z"/><path class="cls-5" d="M77.86,158.57c-1.19.19-2.38.39-3.56.56s-2.37.31-3.56.44-2.36.25-3.55.32-2.37.12-3.56.15c-2.38.07-4.76.09-7.15.1-1.19,0-2.39,0-3.59,0s-2.4,0-3.6,0a.35.35,0,0,1-.07-.68l3.52-.76,1.77-.38,1.78-.32c2.37-.42,4.75-.77,7.14-1,1.2-.12,2.4-.22,3.6-.29s2.4,0,3.6,0,2.41.09,3.61.19,2.4.26,3.6.44C78.25,157.33,78.23,158.5,77.86,158.57Z"/><path class="cls-2" d="M60,73.88c-1.48.16-2.9.12-4.37.27-.06,0-.09-.11,0-.13A7.86,7.86,0,0,1,60,73.67C60,73.68,60,73.87,60,73.88Z"/><path class="cls-2" d="M59.36,80.86a12,12,0,0,1-3.68.08s0-.15,0-.15a11.89,11.89,0,0,1,3.67-.13S59.41,80.85,59.36,80.86Z"/><path class="cls-2" d="M59.34,87.21a17.16,17.16,0,0,1-4.69-.12c-.06,0-.07-.16,0-.16a18.5,18.5,0,0,1,4.7.08C59.41,87,59.41,87.2,59.34,87.21Z"/><path class="cls-2" d="M57.9,96.18a11.33,11.33,0,0,1-3.68.18s0-.16,0-.16A11.63,11.63,0,0,1,57.9,96C58,96,58,96.17,57.9,96.18Z"/><path class="cls-2" d="M58.29,104.6a36.67,36.67,0,0,1-4.79-.23c-.06,0-.06-.13,0-.14.81,0,1.6-.13,2.41-.14a7.86,7.86,0,0,1,2.41.31C58.38,104.42,58.35,104.6,58.29,104.6Z"/><path class="cls-2" d="M59.13,112.44c-.87.12-1.7.28-2.57.41a19,19,0,0,1-2.63.26c-.07,0-.08-.12,0-.13.86-.17,1.69-.44,2.55-.63a7,7,0,0,1,2.66-.15C59.21,112.21,59.2,112.43,59.13,112.44Z"/><path class="cls-2" d="M59.34,124.62a20.09,20.09,0,0,1-5.93.28.08.08,0,0,1,0-.16l3-.28a22.47,22.47,0,0,1,3-.06C59.41,124.4,59.42,124.61,59.34,124.62Z"/><path class="cls-2" d="M58.42,133.14a12.61,12.61,0,0,1-3.68.08c-.05,0-.05-.12,0-.13a13.37,13.37,0,0,1,3.68-.13S58.47,133.13,58.42,133.14Z"/><path class="cls-2" d="M59.66,142.32c-1.85.36-3.68.37-5.51.68-.07,0-.11-.11,0-.13a10.85,10.85,0,0,1,2.74-.66,17.35,17.35,0,0,1,2.79-.09C59.72,142.12,59.73,142.31,59.66,142.32Z"/><path class="cls-2" d="M61.94,148.67a25.93,25.93,0,0,1-3.27.44c-1.09.09-2.18.17-3.26.35-.08,0-.12-.12,0-.15a15.09,15.09,0,0,1,3.26-.66c1.1-.12,2.19-.14,3.29-.16C62,148.49,62,148.65,61.94,148.67Z"/></g></g></svg>