<svg xmlns="http://www.w3.org/2000/svg" viewBox="0 0 89.47 129.03"><defs><style>.cls-1{fill:#87c663;}.cls-2{fill:#79a96f;}.cls-3{fill:#597d68;}.cls-4{fill:#a36d55;}.cls-5{fill:#bc8867;}.cls-6{fill:#b27c5f;}</style></defs><g id="Layer_2" data-name="Layer 2"><g id="OBJECTS"><path class="cls-1" d="M20.55,40.64C7,42.51,0,47.94,0,47.94s6.18-11.62,19.72-13.5,25.61,7.23,25.61,7.23A70.75,70.75,0,0,0,20.55,40.64Z"/><path class="cls-1" d="M50.19,19.57c-6.35,12.11-6,21-6,21s-5.87-11.79.47-23.9S65.42,0,65.42,0A70.91,70.91,0,0,0,50.19,19.57Z"/><path class="cls-1" d="M65.67,38.89C52.07,37.45,44,41,44,41s8.8-9.79,22.39-8.35S89.47,45.86,89.47,45.86A70.73,70.73,0,0,0,65.67,38.89Z"/><path class="cls-1" d="M35.39,17.39c12,12.67,8.93,23.48,8.93,23.48s-10.19,2.51-21.93-10.3A99.71,99.71,0,0,1,4.79,2.34S23.42,4.72,35.39,17.39Z"/><path class="cls-2" d="M4.79,2.34c3.57,2.46,8,3.83,11.75,6.15a70.87,70.87,0,0,1,11,8.46,71,71,0,0,1,9.18,10.49,67.24,67.24,0,0,1,3.84,6c.93,1.63,2.93,3.77,2.77,5.72-1.19-.69-2.23-3.73-3-5.06C39.21,32.23,38,30.4,36.7,28.62a77.53,77.53,0,0,0-8.4-9.78,79.24,79.24,0,0,0-11-9.07C13.23,7.05,8.78,5.09,4.79,2.34Z"/><path class="cls-1" d="M51.29,22.39c-9.44,10-7,18.52-7,18.52s8,2,17.3-8.13A78.5,78.5,0,0,0,75.43,10.51S60.73,12.39,51.29,22.39Z"/><path class="cls-2" d="M75.43,10.51c-2.82,1.94-6.32,3-9.27,4.86A55.38,55.38,0,0,0,57.45,22a56.45,56.45,0,0,0-7.25,8.27,54.56,54.56,0,0,0-3,4.75c-.73,1.28-2.3,3-2.18,4.51.94-.55,1.76-2.94,2.39-4,.9-1.48,1.85-2.93,2.87-4.34A62,62,0,0,1,65.59,16.38C68.77,14.23,72.28,12.68,75.43,10.51Z"/><path class="cls-1" d="M64,39.32c-13.08-4.23-19.75,1.59-19.75,1.59S45.9,49,59,53.05a78.63,78.63,0,0,0,26.07,3S77.08,43.56,64,39.32Z"/><path class="cls-2" d="M85.08,56c-3-1.71-5.44-4.41-8.36-6.29a55.68,55.68,0,0,0-20.35-8,52.5,52.5,0,0,0-5.58-.7c-1.48-.11-3.68-.81-5,0,.9.62,3.41.33,4.63.45,1.72.17,3.44.41,5.15.73a61.65,61.65,0,0,1,20,7.47C78.87,51.61,81.77,54.12,85.08,56Z"/><path class="cls-1" d="M25.75,43.21c11.18-8,19.3-4.48,19.3-4.48S45.93,47,34.67,54.78a78.87,78.87,0,0,1-24,10.75S14.56,51.21,25.75,43.21Z"/><path class="cls-2" d="M10.72,65.53C13,63,14.57,59.67,16.79,57a55.53,55.53,0,0,1,17-13.78,50.27,50.27,0,0,1,5.11-2.36c1.37-.55,3.25-1.89,4.76-1.56-.66.86-3.15,1.35-4.27,1.83-1.59.69-3.16,1.44-4.69,2.26a60.39,60.39,0,0,0-8.53,5.53,61.2,61.2,0,0,0-8.27,7.66C15.3,59.43,13.3,62.7,10.72,65.53Z"/><path class="cls-3" d="M53.57,126.22s-7.22-12.39-6.84-32.38,0-54,0-54L42.1,39.2s.27,12-2.09,36.72c-3.11,32.63,1.82,51.59,1.82,51.59Z"/><path class="cls-4" d="M49.85,42.52c0,2.73-2.22,6.41-5,6.41s-5-3.68-5-6.41a5,5,0,1,1,9.91,0Z"/><path class="cls-5" d="M45.81,49c0,3.38-2.75,7.93-6.13,7.93S33.55,52.36,33.55,49a6.13,6.13,0,0,1,12.26,0Z"/><path class="cls-6" d="M53.76,49.16c0,2.73-2.22,6.41-5,6.41s-5-3.68-5-6.41a5,5,0,0,1,9.92,0Z"/><path class="cls-2" d="M46.47,57c-1.35.25-2.66.08-4,.26,0,0-.1-.12,0-.14a5,5,0,0,1,2-.49,8.56,8.56,0,0,1,2,.14C46.52,56.81,46.52,57,46.47,57Z"/><path class="cls-2" d="M44.5,63.46a7.64,7.64,0,0,1-2.86,0s0-.12,0-.13a8.33,8.33,0,0,1,2.86,0S44.54,63.45,44.5,63.46Z"/><path class="cls-2" d="M45.65,68.38a8.59,8.59,0,0,1-1.72.34,5.52,5.52,0,0,1-1.76-.14c-.05,0-.05-.19,0-.2a14.74,14.74,0,0,1,1.71-.26,8.55,8.55,0,0,1,1.75,0S45.69,68.37,45.65,68.38Z"/><path class="cls-2" d="M45.1,73.17a23,23,0,0,1-2.34.18c-.77,0-1.56,0-2.34.08a.07.07,0,0,1,0-.13,15.1,15.1,0,0,1,2.34-.44,9,9,0,0,1,2.37.09C45.17,73,45.17,73.16,45.1,73.17Z"/><path class="cls-2" d="M43.87,80a10.06,10.06,0,0,1-1.65,0,7.14,7.14,0,0,0-1.6,0s-.08-.09,0-.11a3.79,3.79,0,0,1,1.66-.26,8.22,8.22,0,0,1,1.64.24S43.91,80,43.87,80Z"/><path class="cls-2" d="M44.07,86.1a8.59,8.59,0,0,1-1.12.09c-.37,0-.74,0-1.1,0a7,7,0,0,0-2.15.07c-.05,0-.11-.11-.06-.14a3.52,3.52,0,0,1,1.09-.37,6.11,6.11,0,0,1,1.13-.13,10.19,10.19,0,0,1,2.21.25C44.13,85.86,44.13,86.09,44.07,86.1Z"/><path class="cls-2" d="M44.79,92.53a20.08,20.08,0,0,1-4.9-.12c-.06,0-.07-.15,0-.15a21.21,21.21,0,0,1,4.91.08C44.87,92.35,44.85,92.52,44.79,92.53Z"/><path class="cls-2" d="M44.28,99.94a12.49,12.49,0,0,1-4.6.4c-.06,0-.06-.17,0-.18a24.17,24.17,0,0,1,4.58-.43C44.33,99.73,44.34,99.92,44.28,99.94Z"/><path class="cls-2" d="M45.94,108.28c-.95.21-1.91.35-2.84.47-.47.07-.93.13-1.39.23a6,6,0,0,0-1.36.38c-.07,0-.15-.1-.09-.15a6.16,6.16,0,0,1,2.76-1,15.64,15.64,0,0,1,2.9-.11C46,108.06,46,108.26,45.94,108.28Z"/><path class="cls-2" d="M46.57,116.41a25.41,25.41,0,0,1-2.81.66,22.47,22.47,0,0,0-2.79.63c-.08,0-.13-.11-.07-.15a10.82,10.82,0,0,1,2.75-1,16.54,16.54,0,0,1,2.88-.35C46.62,116.19,46.65,116.38,46.57,116.41Z"/><path class="cls-2" d="M46.88,122.63a15.71,15.71,0,0,1-4.49.29c-.06,0-.06-.12,0-.13a25.77,25.77,0,0,1,4.48-.33C46.94,122.46,46.94,122.62,46.88,122.63Z"/><path class="cls-5" d="M72.23,126.36c-3.46.26-6.9.65-10.35,1.06s-6.91.7-10.38,1a133.07,133.07,0,0,1-20.94.34c-.54,0-.54-.53,0-.54,7-.1,13.84-1,20.75-1.71,3.46-.37,6.93-.72,10.42-.92s7-.18,10.48,0C72.81,125.61,72.78,126.31,72.23,126.36Z"/></g></g></svg>