<svg xmlns="http://www.w3.org/2000/svg" viewBox="0 0 99.59 131.34"><defs><style>.cls-1{fill:#87c663;}.cls-2{fill:#597d68;}.cls-3{fill:#bc8867;}.cls-4{fill:#b27c5f;}.cls-5{fill:#79a96f;}</style></defs><g id="Layer_2" data-name="Layer 2"><g id="OBJECTS"><path class="cls-1" d="M72.06,25.89C58.18,34.4,53.12,43.66,53.12,43.66S54.32,28,68.2,19.52s31.39-4.34,31.39-4.34A84.5,84.5,0,0,0,72.06,25.89Z"/><path class="cls-1" d="M65,20.14c-9.74,13-11,23.52-11,23.52s-4.68-15,5.07-28S86.58,0,86.58,0A84.46,84.46,0,0,0,65,20.14Z"/><path class="cls-1" d="M24.46,41.54C8.33,43.81,0,50.29,0,50.29S7.33,36.44,23.46,34.17,54,42.71,54,42.71A84.51,84.51,0,0,0,24.46,41.54Z"/><path class="cls-1" d="M34.09,32.13c-11.72-3.48-19.42-1.65-19.42-1.65s9.32-7.18,21-3.7S53.88,42.13,53.88,42.13A63.31,63.31,0,0,0,34.09,32.13Z"/><path class="cls-1" d="M71.27,35.47c-12,2.22-18.06,7.35-18.06,7.35s5-10.63,17.07-12.85,23.16,5.42,23.16,5.42A63.38,63.38,0,0,0,71.27,35.47Z"/><path class="cls-1" d="M27.06,51.57c3.72-1.67,7.67-3.45,11.77-5.16s8.29-3.35,12.28-4.76c-4.37,0-8.6-.15-13,.14A40,40,0,0,0,24.12,45,31.61,31.61,0,0,0,6.69,65.9a26.62,26.62,0,0,1,4.21-5,35.47,35.47,0,0,1,5.29-4A86.6,86.6,0,0,1,27.06,51.57Z"/><path class="cls-1" d="M71.22,38.27a24.81,24.81,0,0,0-10.07.35A44.45,44.45,0,0,0,52,41.93,42.67,42.67,0,0,1,61,43.31c2.89.69,5.73,1.46,8.91,2,2.71.52,5.64.78,8.7,1.23a45,45,0,0,1,9.16,2.16,42.81,42.81,0,0,0-7.53-6.54A25.38,25.38,0,0,0,71.22,38.27Z"/><path class="cls-1" d="M36.57,24.09a111.73,111.73,0,0,1,9,7,55.52,55.52,0,0,1,8.08,8.66,56.37,56.37,0,0,0-4.22-11.31,28.83,28.83,0,0,0-8.66-10.19,26.27,26.27,0,0,0-12.2-4.54A30.42,30.42,0,0,0,16,14.92a29.37,29.37,0,0,1,11.46,3.29A70.71,70.71,0,0,1,36.57,24.09Z"/><path class="cls-1" d="M47.11,54.47c.85-1.85,1.46-3.93,2.22-6.1a29.28,29.28,0,0,1,3-6.34,30,30,0,0,0-6.54,3.34,15.47,15.47,0,0,0-5.2,6.09,15.75,15.75,0,0,0-1.18,7.6A28.9,28.9,0,0,0,41,66.5,30.23,30.23,0,0,1,44,60C45.14,57.91,46.36,56.12,47.11,54.47Z"/><path class="cls-2" d="M56.59,129.09s6.44-56.9-5-87.87l3.53-2.38c23.16,36.79,13.86,90.87,13.86,90.87Z"/><path class="cls-3" d="M56.82,42.27c1,2.53.23,6.72-2.29,7.69s-5.89-1.64-6.86-4.17a4.9,4.9,0,0,1,9.15-3.52Z"/><path class="cls-4" d="M60.31,38.37c.79,2,.19,5.43-1.86,6.22s-4.76-1.33-5.54-3.37a4,4,0,1,1,7.4-2.85Z"/><path class="cls-5" d="M90.34,15.76A50.1,50.1,0,0,0,72.5,21.48a42.72,42.72,0,0,0-7.7,5.38c-1.18,1-2.33,2.12-3.45,3.22a15.45,15.45,0,0,0-2.89,3.67c-.23.43-.37.39-.18-.08a15.21,15.21,0,0,1,2.83-3.83c1.11-1.13,2.23-2.24,3.41-3.3A39.87,39.87,0,0,1,72.25,21a45.54,45.54,0,0,1,18.07-5.48C90.85,15.48,90.84,15.7,90.34,15.76Z"/><path class="cls-5" d="M75.58,5.22c-1.36,1-2.68,2-4,3s-2.53,2.17-3.73,3.34a56.62,56.62,0,0,0-6.52,7.56,52.94,52.94,0,0,0-5,8.6,24.75,24.75,0,0,0-1.65,4.7,20.29,20.29,0,0,0-.38,2.46L54,37.42c-.06.51-.16.52-.12,0l.19-2.5a19.43,19.43,0,0,1,.32-2.5A24.38,24.38,0,0,1,56,27.62a50,50,0,0,1,5-8.73,51.83,51.83,0,0,1,6.62-7.57c1.22-1.16,2.5-2.25,3.8-3.29s2.67-2,4.07-2.95C76,4.76,76,4.91,75.58,5.22Z"/><path class="cls-5" d="M83.21,32.66c-1.94,0-3.87,0-5.8,0a32.23,32.23,0,0,0-5.73.41,41.25,41.25,0,0,0-5.61,1.34l-2.75.93a12.28,12.28,0,0,0-2.61,1.18c-.24.17-.34.07-.09-.12A11.86,11.86,0,0,1,63.23,35l2.71-1a37,37,0,0,1,5.64-1.51,28,28,0,0,1,5.84-.4c1.94,0,3.87.21,5.8.36C83.54,32.46,83.52,32.66,83.21,32.66Z"/><path class="cls-5" d="M47.06,28c-1.31-1.32-2.47-2.77-3.8-4a38.93,38.93,0,0,0-4.34-3.4,34.44,34.44,0,0,0-4.69-2.9A23.86,23.86,0,0,0,29,15.79c-.27-.07-.26-.17,0-.11a23,23,0,0,1,5.29,1.72,31.18,31.18,0,0,1,4.8,2.83,33.12,33.12,0,0,1,4.37,3.47C44.86,25,46,26.5,47.2,27.88,47.4,28.11,47.27,28.22,47.06,28Z"/><path class="cls-5" d="M46.24,34.37a40.2,40.2,0,0,0-10.73-5.09A26.12,26.12,0,0,0,29.72,28a14.65,14.65,0,0,0-3-.07c-1,.06-2,.19-3,.19-.31,0-.31-.11,0-.12,1,0,2-.2,3-.3a15.14,15.14,0,0,1,3,0,24.82,24.82,0,0,1,5.91,1.2A45.37,45.37,0,0,1,41.26,31a24.49,24.49,0,0,1,5.11,3.17C46.64,34.41,46.49,34.56,46.24,34.37Z"/><path class="cls-5" d="M42.17,39A76.63,76.63,0,0,0,34,38.31a74.21,74.21,0,0,0-8.17.15,61.22,61.22,0,0,0-8.09,1.11,31.76,31.76,0,0,0-3.93,1.08c-1.28.44-2.49,1.11-3.81,1.49-.41.11-.45,0,0-.12,1.3-.41,2.48-1.11,3.77-1.6a35.8,35.8,0,0,1,3.94-1.2A55.77,55.77,0,0,1,25.83,38a62.63,62.63,0,0,1,8.22-.12,62,62,0,0,1,8.15.93C42.65,38.89,42.6,39.07,42.17,39Z"/><path class="cls-5" d="M44.23,43.12c-2.58.17-5.09,1-7.66,1.38a55.16,55.16,0,0,0-7.48,2A45.9,45.9,0,0,0,22,49.6c-1.13.62-2.2,1.35-3.29,2.07-.53.36-1.06.73-1.58,1.13-.25.2-.51.4-.74.62a7.51,7.51,0,0,1-.72.66c-.35.23-.41.13-.08-.1a8.7,8.7,0,0,0,.69-.67,9.19,9.19,0,0,1,.74-.66c.5-.41,1-.8,1.55-1.19,1.06-.75,2.12-1.52,3.26-2.18a39.09,39.09,0,0,1,7.14-3.21,49.68,49.68,0,0,1,7.57-2c1.29-.22,2.56-.44,3.84-.68A23,23,0,0,1,44.22,43C44.66,43,44.64,43.1,44.23,43.12Z"/><path class="cls-5" d="M46.51,47.26c-.88,2.09-2,4.05-3,6.07a19.37,19.37,0,0,0-2.07,6.37c0,.17-.13.17-.12,0a17,17,0,0,1,1.8-6.56c1-2.06,2.15-4,3.26-6C46.45,47,46.58,47.09,46.51,47.26Z"/><path class="cls-5" d="M59.86,54.47a10.49,10.49,0,0,1-1.64.45,6,6,0,0,1-1.74,0s0-.17,0-.19a11.46,11.46,0,0,1,3.36-.53C59.88,54.25,59.91,54.45,59.86,54.47Z"/><path class="cls-5" d="M61.72,61c-.75.2-1.49.39-2.26.52a11.38,11.38,0,0,1-2.34.18c-.06,0-.07-.15,0-.17a19.64,19.64,0,0,1,4.59-.74C61.76,60.82,61.78,61,61.72,61Z"/><path class="cls-5" d="M62.67,69.76a10,10,0,0,1-1.78.29c-.6.06-1.19.07-1.79.1-.05,0-.08-.12,0-.14a9.68,9.68,0,0,1,3.58-.43C62.7,69.59,62.71,69.75,62.67,69.76Z"/><path class="cls-5" d="M65.24,77.17c-1.94.21-3.87.2-5.81.27a.07.07,0,0,1,0-.14A17.33,17.33,0,0,1,65.24,77C65.32,77,65.32,77.16,65.24,77.17Z"/><path class="cls-5" d="M65.66,86a20.38,20.38,0,0,1-3,.34,8.2,8.2,0,0,1-3-.45c-.08,0,0-.17,0-.16a15.62,15.62,0,0,0,3,.11c1,0,2-.09,3,0C65.73,85.83,65.74,86,65.66,86Z"/><path class="cls-5" d="M67.21,93.52a29.82,29.82,0,0,1-3.86.62c-1.3.12-2.6.18-3.9.28-.1,0-.12-.12,0-.14,1.28-.24,2.58-.44,3.87-.6s2.58-.26,3.88-.35C67.29,93.33,67.31,93.5,67.21,93.52Z"/><path class="cls-5" d="M67.61,107.07c-1.37.09-2.74.22-4.13.25a21.4,21.4,0,0,1-4.15-.28c-.1,0-.09-.14,0-.14a40.53,40.53,0,0,0,4.12-.09,30.12,30.12,0,0,1,4.14,0C67.73,106.86,67.72,107.06,67.61,107.07Z"/><path class="cls-5" d="M67.41,114.36a30.78,30.78,0,0,1-3.46.12q-1.74,0-3.48-.24c-.09,0-.09-.17,0-.18,1.16-.09,2.31-.13,3.47-.13a29,29,0,0,1,3.48.2C67.51,114.15,67.51,114.36,67.41,114.36Z"/><path class="cls-5" d="M66.26,123.09c-1.19,0-2.39,0-3.58-.07s-2.37-.2-3.56-.26a.07.07,0,1,1,0-.14,28.68,28.68,0,0,1,3.59-.07c1.2.06,2.38.19,3.56.35C66.37,122.92,66.36,123.09,66.26,123.09Z"/><path class="cls-3" d="M84.82,129.32a55.59,55.59,0,0,0-10.48.18c-3.49.28-7,.63-10.54.88s-7.13.29-10.64.31a75.42,75.42,0,0,0-10.52.64c-.54.08-.67-.45-.12-.58a67.49,67.49,0,0,1,10.56-1.68c3.55-.35,7.05-.51,10.55-.86s7.05-.66,10.62-.7a48.48,48.48,0,0,1,10.68,1.1C85.52,128.75,85.37,129.36,84.82,129.32Z"/></g></g></svg>